<svg xmlns="http://www.w3.org/2000/svg" xmlns:xlink="http://www.w3.org/1999/xlink" width="380" height="400" viewBox="0 0 380 400"><defs><clipPath id="clip-path"><rect width="380" height="390" fill="none"/></clipPath><linearGradient id="linear-gradient" x1="-2.7" y1="162.41" x2="177.08" y2="162.41" gradientUnits="userSpaceOnUse"><stop offset="0" stop-color="#bdbec0" stop-opacity="0"/><stop offset="1" stop-color="#bdbec0" stop-opacity="0.5"/></linearGradient><linearGradient id="linear-gradient-2" x1="352.54" y1="167.77" x2="177.96" y2="167.77" gradientUnits="userSpaceOnUse"><stop offset="0" stop-color="#bdbec0" stop-opacity="0"/><stop offset="1" stop-color="#bdbec0" stop-opacity="0.3"/></linearGradient></defs><g id="Layer_2" data-name="Layer 2"><rect width="380" height="400" fill="#f5f5f4"/><g clip-path="url(#clip-path)"><polygon points="-2.7 0 -2.7 324.83 177.08 242.11 177.08 242.04 177.08 0 -2.7 0" fill="url(#linear-gradient)"/><polygon points="177.08 0 177.08 242.04 177.16 242.07 380.29 335.54 380.29 0 177.08 0" fill="url(#linear-gradient-2)"/><polyline points="-2.7 324.83 177.08 242.11 177.08 242.04 177.08 21.85" fill="none" stroke="#222" stroke-miterlimit="1" stroke-width="1.03"/><polyline points="177.08 0 177.08 242.04 177.16 242.07 380.29 335.54" fill="none" stroke="#222" stroke-miterlimit="1" stroke-width="1.03"/><polygon points="191.38 63.26 187.23 61.35 91.41 105.44 95.56 107.35 191.38 63.26" fill="#f8f8f9" stroke="#222" stroke-miterlimit="1" stroke-width="1.03"/><polygon points="319.8 118.07 191.83 59.19 187.17 61.33 315.17 120.22 319.8 118.07" fill="#f8f8f9" stroke="#222" stroke-miterlimit="1" stroke-width="1.03"/><polygon points="183.39 82.28 191.34 85.94 191.34 63.3 95.58 107.36 112.22 115.02 183.39 82.28" fill="#bdbec0" stroke="#222" stroke-miterlimit="1" stroke-width="1.03"/><polygon points="191.4 63.27 191.34 63.3 191.34 85.94 286.31 129.65 286.31 129.65 310.98 118.3 191.4 63.27" fill="#dededf" stroke="#222" stroke-miterlimit="1" stroke-width="1.03"/><polygon points="115.17 116.38 141.77 128.62 141.77 128.62 183.3 109.5 183.3 85.04 115.17 116.38" fill="#bdbec0" stroke="#222" stroke-miterlimit="1" stroke-width="1.03"/><polygon points="283.33 131.02 183.35 85.02 183.3 85.04 183.3 109.5 183.32 109.49 256.73 143.26 256.73 143.26 283.33 131.02" fill="#dededf" stroke="#222" stroke-miterlimit="1" stroke-width="1.03"/><polygon points="214.7 330.79 96.88 276.58 96.88 289.48 227.83 349.73 227.83 324.76 214.7 330.79" fill="#dededf" stroke="#222" stroke-miterlimit="1" stroke-width="1.03"/><polygon points="319.85 118.06 219.32 164.32 219.32 328.68 227.83 324.76 227.83 349.66 319.85 307.32 319.85 118.06" fill="#bdbec0" stroke="#222" stroke-miterlimit="1" stroke-width="1.03"/><polygon points="67.92 98.92 67.92 263.26 214.7 330.79 214.7 166.46 67.92 98.92" fill="#dededf" stroke="#222" stroke-miterlimit="1" stroke-width="1.03"/><polygon points="219.32 164.3 214.7 166.46 214.7 330.79 219.32 328.66 219.32 164.3" fill="#bdbec0" stroke="#222" stroke-miterlimit="1" stroke-width="1.03"/><line x1="222.9" y1="327.01" x2="222.9" y2="347.43" fill="none" stroke="#222" stroke-miterlimit="1" stroke-width="1.03"/><line x1="100.58" y1="278.28" x2="100.58" y2="291.16" fill="none" stroke="#222" stroke-miterlimit="1" stroke-width="1.03"/><polygon points="219.32 164.3 72.54 96.77 67.92 98.92 214.7 166.46 219.32 164.3" fill="#f8f8f9" stroke="#222" stroke-miterlimit="1" stroke-width="1.03"/><polyline points="89.71 104.58 85.08 106.74 85.08 271.07" fill="none" stroke="#222" stroke-miterlimit="1" stroke-width="1.03"/><polygon points="315.13 120.21 310.98 118.3 215.16 162.39 219.31 164.3 315.13 120.21" fill="#f8f8f9" stroke="#222" stroke-miterlimit="1" stroke-width="1.03"/><polygon points="186.33 83.65 183.33 85.03 283.31 131.03 286.31 129.65 186.33 83.65" fill="#f2f2f2" stroke="#222" stroke-miterlimit="1" stroke-width="1.03"/><polygon points="183.39 82.28 112.22 115.02 115.17 116.38 186.34 83.64 183.39 82.28" fill="#f2f2f2" stroke="#222" stroke-miterlimit="1" stroke-width="1.03"/><polygon points="256.73 143.26 183.32 109.49 141.77 128.62 215.16 162.39 256.73 143.26" fill="#f2f2f2" stroke="#222" stroke-miterlimit="1" stroke-width="1.03"/><polygon points="211.46 208.42 206.83 210.58 206.83 328.37 211.46 326.24 211.46 208.42" fill="#bdbec0" stroke="#222" stroke-miterlimit="1" stroke-width="1.03"/><polygon points="211.46 208.42 87.11 151.21 82.45 153.35 206.83 210.58 211.46 208.42" fill="#f8f8f9" stroke="#222" stroke-miterlimit="1" stroke-width="1.03"/><line x1="149.16" y1="179.75" x2="144.5" y2="181.89" fill="none" stroke="#222" stroke-miterlimit="1" stroke-width="1.03"/><polygon points="206.83 210.58 82.41 153.33 82.41 271.12 206.83 328.37 206.83 210.58" fill="none" stroke="#ea0029" stroke-miterlimit="1" stroke-width="1.03"/><polygon points="206.83 210.58 82.41 153.33 82.41 271.12 206.83 328.37 206.83 210.58" fill="#e5e5e6"/><polygon points="206.83 210.58 82.41 153.33 82.41 271.12 206.83 328.37 206.83 210.58" fill="none" stroke="#222" stroke-miterlimit="1" stroke-width="1.03"/><line x1="144.49" y1="181.91" x2="144.49" y2="299.69" fill="none" stroke="#ea0029" stroke-miterlimit="1" stroke-width="1.03"/><line x1="144.49" y1="181.91" x2="144.49" y2="299.69" fill="none" stroke="#222" stroke-miterlimit="1" stroke-width="1.03"/><polygon points="177.08 242.04 177.08 242.11 177.16 242.07 177.08 242.04" fill="none" stroke="#ea0029" stroke-miterlimit="1" stroke-width="1.03"/><polygon points="215.16 162.39 232.41 154.45 197.91 154.45 215.16 162.39" fill="#e5e5e6" stroke="#222" stroke-miterlimit="1" stroke-width="1.03"/><polygon points="95.58 107.36 109.08 113.58 109.08 101.15 95.58 107.36" fill="#e5e5e6" stroke="#222" stroke-miterlimit="1" stroke-width="1.03"/><polygon points="191.4 63.27 191.34 63.3 174.53 71.04 208.27 71.04 191.4 63.27" fill="#e5e5e6" stroke="#222" stroke-miterlimit="1" stroke-width="1.03"/><rect x="174.53" y="71.04" width="33.74" height="2.98" fill="#dededf" stroke="#222" stroke-miterlimit="1" stroke-width="1.03"/><polygon points="296.72 111.74 296.72 124.86 310.98 118.3 296.72 111.74" fill="#e5e5e6" stroke="#222" stroke-miterlimit="1" stroke-width="1.03"/><polygon points="211.46 167.72 206.83 169.88 206.83 207.07 211.46 204.94 211.46 167.72" fill="#bdbec0" stroke="#222" stroke-miterlimit="1" stroke-width="1.03"/><polygon points="211.46 167.72 87.11 110.5 82.45 112.65 206.83 169.88 211.46 167.72" fill="#f8f8f9" stroke="#222" stroke-miterlimit="1" stroke-width="1.03"/><polygon points="206.83 169.88 82.41 112.63 82.41 149.82 206.83 207.07 206.83 169.88" fill="#e5e5e6" stroke="#222" stroke-miterlimit="1" stroke-width="1.03"/><polygon points="51.73 276.62 51.73 299.59 198.51 367.12 198.51 367.12 198.51 344.16 51.73 276.62" fill="#cad878" stroke="#222" stroke-miterlimit="1" stroke-width="1.03"/><polygon points="198.51 344.16 198.51 367.12 201.05 365.95 201.05 342.98 198.51 344.16" fill="#919b57" stroke="#222" stroke-miterlimit="1" stroke-width="1.03"/><polygon points="201.05 342.98 201.05 342.9 54.35 275.4 51.73 276.62 198.51 344.16 201.05 342.98" fill="#d7e29a" stroke="#222" stroke-miterlimit="1" stroke-width="1.03"/></g></g></svg>