<?xml version="1.0" encoding="utf-8"?>
<!-- Generator: Adobe Illustrator 26.3.1, SVG Export Plug-In . SVG Version: 6.00 Build 0)  -->
<svg version="1.1" id="Layer_1" xmlns="http://www.w3.org/2000/svg" xmlns:xlink="http://www.w3.org/1999/xlink" x="0px" y="0px"
	 viewBox="0 0 32 31.4" style="enable-background:new 0 0 32 31.4;" xml:space="preserve">
<style type="text/css">
	.st0{fill:#ffffff;}
</style>
<g id="Layer_2_00000145778341378253296140000004236339311229512876_">
	<g>
		<path class="st0" d="M16,17.6c-4.9,0-8.8-3.9-8.8-8.8C7.2,3.9,11.2,0,16,0c4.9,0,8.8,3.9,8.8,8.8C24.8,13.7,20.9,17.6,16,17.6z
			 M16,2c-3.7,0-6.8,3.1-6.8,6.8s3.1,6.8,6.8,6.8c3.7,0,6.8-3.1,6.8-6.8S19.8,2,16,2z"/>
	</g>
	<g>
		<path class="st0" d="M32,31.4H0l0-1c0-6.2,5-11.2,11.2-11.2h9.6c6.2,0,11.2,5,11.2,11.2L32,31.4z M2.1,29.4h27.9
			c-0.5-4.6-4.4-8.2-9.1-8.2h-9.6C6.5,21.2,2.6,24.8,2.1,29.4z"/>
	</g>
</g>
</svg>
