<svg xmlns="http://www.w3.org/2000/svg" width="339" height="339" viewBox="0 0 339 339"><g id="Layer_2" data-name="Layer 2"><circle cx="168.83" cy="169.54" r="124.43" fill="#222"/><circle cx="169.5" cy="169.5" r="164.62" fill="none" stroke="#222" stroke-miterlimit="10" stroke-width="5"/><path d="M116.26,164.35l9.79-21.2a.59.59,0,0,1,.54-.34h.32a.54.54,0,0,1,.53.34l9.7,21.2a.55.55,0,0,1-.53.82h-2.74a.91.91,0,0,1-.92-.63l-1.54-3.4H122l-1.54,3.4a1,1,0,0,1-.91.63H116.8A.56.56,0,0,1,116.26,164.35Zm13.61-6.71-3.15-6.93h-.1l-3.08,6.93Z" fill="#fff"/><path d="M139.91,143.72a.6.6,0,0,1,.57-.6h7.46a11,11,0,1,1,0,22h-7.46a.59.59,0,0,1-.57-.6Zm7.65,17.61a7.2,7.2,0,0,0,0-14.4H144v14.4Z" fill="#fff"/><path d="M163.06,143.72a.59.59,0,0,1,.56-.6h7.47a11,11,0,1,1,0,22h-7.47a.59.59,0,0,1-.56-.6Zm7.65,17.61a7.2,7.2,0,0,0,0-14.4h-3.59v14.4Z" fill="#fff"/><path d="M191.15,164.35l9.79-21.2a.59.59,0,0,1,.54-.34h.31a.55.55,0,0,1,.54.34l9.7,21.2a.56.56,0,0,1-.54.82h-2.74a.9.9,0,0,1-.91-.63l-1.54-3.4h-9.42l-1.54,3.4a1,1,0,0,1-.92.63h-2.74A.55.55,0,0,1,191.15,164.35Zm13.6-6.71-3.15-6.93h-.09l-3.09,6.93Z" fill="#fff"/><path d="M96,173.88a.59.59,0,0,1,.6-.57H97a.66.66,0,0,1,.53.22l12.85,13.7h.07v-13a.6.6,0,0,1,.59-.6H114a.62.62,0,0,1,.6.6v21.2a.6.6,0,0,1-.6.57h-.44a.69.69,0,0,1-.53-.22l-12.92-14.24H100v13.54a.6.6,0,0,1-.6.6H96.55a.62.62,0,0,1-.6-.6Z" fill="#fff"/><path d="M119.91,174.22a.61.61,0,0,1,.6-.6h12.82a.6.6,0,0,1,.6.6v2.59a.59.59,0,0,1-.6.59H124v5.17h7.78a.61.61,0,0,1,.59.6v2.61a.59.59,0,0,1-.59.6H124v5.51h9.32a.6.6,0,0,1,.6.6v2.58a.6.6,0,0,1-.6.6H120.51a.6.6,0,0,1-.6-.6Z" fill="#fff"/><path d="M136.07,174.38a.55.55,0,0,1,.57-.76h2.89a.65.65,0,0,1,.57.45l3.28,12.56h.12l5-13a.5.5,0,0,1,.53-.35h.57a.52.52,0,0,1,.54.35l5,13h.12l3.21-12.56a.67.67,0,0,1,.57-.45H162a.56.56,0,0,1,.57.76l-6,21.16a.6.6,0,0,1-.56.45h-.51a.53.53,0,0,1-.53-.35l-5.64-14.27h-.16l-5.57,14.27a.54.54,0,0,1-.54.35h-.5a.61.61,0,0,1-.57-.45Z" fill="#fff"/><path d="M173.48,174.22a.63.63,0,0,1,.6-.6H177a.63.63,0,0,1,.6.6v20.85a.62.62,0,0,1-.6.6h-2.93a.62.62,0,0,1-.6-.6Z" fill="#fff"/><path d="M186.52,177.4H181.7a.59.59,0,0,1-.6-.59v-2.59a.6.6,0,0,1,.6-.6h13.76a.6.6,0,0,1,.6.6v2.59a.59.59,0,0,1-.6.59h-4.81v17.67a.62.62,0,0,1-.6.6h-2.93a.62.62,0,0,1-.6-.6Z" fill="#fff"/><path d="M199.56,174.22a.6.6,0,0,1,.6-.6H213a.6.6,0,0,1,.6.6v2.59a.59.59,0,0,1-.6.59h-9.32v5.17h7.78a.62.62,0,0,1,.6.6v2.61a.6.6,0,0,1-.6.6h-7.78v5.51H213a.6.6,0,0,1,.6.6v2.58a.6.6,0,0,1-.6.6H200.16a.6.6,0,0,1-.6-.6Z" fill="#fff"/><path d="M220.25,173.78a.53.53,0,0,1,.56-.47h.51a.57.57,0,0,1,.53.31l6.93,14.87h.1l6.93-14.87a.54.54,0,0,1,.53-.31h.51a.53.53,0,0,1,.56.47L241.13,195a.55.55,0,0,1-.57.72H237.7a.67.67,0,0,1-.6-.47l-1.86-11.94h-.1l-5.51,12.38a.53.53,0,0,1-.53.35h-.57a.56.56,0,0,1-.53-.35l-5.58-12.38h-.09L220.5,195.2a.6.6,0,0,1-.57.47H217.1a.58.58,0,0,1-.6-.72Z" fill="#fff"/></g></svg>