<svg xmlns="http://www.w3.org/2000/svg" xmlns:xlink="http://www.w3.org/1999/xlink" width="630" height="425" viewBox="0 0 630 425"><defs><linearGradient id="linear-gradient" x1="223.37" y1="271.85" x2="292.36" y2="271.85" gradientUnits="userSpaceOnUse"><stop offset="0" stop-color="#bc6d3e"/><stop offset="1" stop-color="#bc6d3e" stop-opacity="0"/></linearGradient><linearGradient id="linear-gradient-2" x1="383.09" y1="271.85" x2="468.79" y2="271.85" xlink:href="#linear-gradient"/></defs><g id="Layer_2" data-name="Layer 2"><polygon points="109.57 421.94 109.57 391.81 125.63 399.37 259.32 337.86 259.32 353.07 109.57 421.94" fill="#d1d1d3" stroke="#222" stroke-miterlimit="1" stroke-width="1.45"/><polygon points="14.72 74.58 14.72 343.72 159.49 277.13 159.49 7.96 14.72 74.58" fill="#d7d8d9" stroke="#222" stroke-miterlimit="1" stroke-width="1.45"/><polygon points="259.31 322.93 259.31 322.95 261.03 323.74 259.31 322.93" fill="none"/><polygon points="280.41 59.05 275.37 61.36 275.37 330.5 280.41 328.18 280.41 59.05" fill="#d1d1d3" stroke="#222" stroke-miterlimit="1" stroke-width="1.45"/><polygon points="265.29 325.74 259.32 322.93 259.32 353.07 265.29 350.32 265.29 325.74" fill="#d1d1d3" stroke="#222" stroke-miterlimit="1" stroke-width="1.45"/><polygon points="159.44 7.98 164.46 5.67 280.41 59.02 275.39 61.33 159.44 7.98" fill="#eeefef" stroke="#222" stroke-miterlimit="1" stroke-width="1.45"/><polygon points="4.05 74.3 158.89 3.05 164.53 5.64 9.65 76.91 4.05 74.3" fill="#eeefef" stroke="#222" stroke-miterlimit="1" stroke-width="1.45"/><polygon points="159.49 8.06 159.49 277.02 259.31 322.95 259.31 322.93 261.03 323.74 271.33 328.48 261.03 323.74 275.37 330.49 275.37 61.38 159.49 8.06" fill="#bdbec0" stroke="#222" stroke-miterlimit="1" stroke-width="1.45"/><polygon points="48.18 89.97 169.16 34.3 169.22 34.33 169.22 63.93 169.2 63.92 80.37 104.78 80.37 104.78 48.18 89.97" fill="#d7d8d9" stroke="#222" stroke-miterlimit="1" stroke-width="1.45"/><polygon points="165.55 32.65 169.18 34.32 48.2 89.98 44.58 88.31 165.55 32.65" fill="#eeefef" stroke="#222" stroke-miterlimit="1" stroke-width="1.45"/><polygon points="275.37 324.87 159.6 271.46 9.86 340.33 125.63 393.75 275.37 324.87" fill="#eeefef" stroke="#222" stroke-miterlimit="1" stroke-width="1.45"/><polygon points="115.54 394.62 109.57 391.81 109.57 421.95 115.54 419.2 115.54 394.62" fill="#d1d1d3" stroke="#222" stroke-miterlimit="1" stroke-width="1.45"/><polygon points="275.36 61.35 259.02 68.87 259.02 53.83 275.36 61.35" fill="#e5e5e6" stroke="#222" stroke-miterlimit="1" stroke-width="1.45"/><polygon points="159.41 8 159.49 8.03 179.83 17.39 139 17.39 159.41 8" fill="#e5e5e6" stroke="#222" stroke-miterlimit="1" stroke-width="1.45"/><rect x="139" y="17.39" width="40.83" height="5.62" fill="#d1d1d3" stroke="#222" stroke-miterlimit="1" stroke-width="1.45"/><polygon points="31.97 66.64 31.97 82.52 14.72 74.58 31.97 66.64" fill="#e5e5e6" stroke="#222" stroke-miterlimit="1" stroke-width="1.45"/><polygon points="130.66 391.46 130.66 397.06 275.37 330.47 275.37 324.87 130.66 391.46" fill="#d1d1d3" stroke="#222" stroke-miterlimit="1" stroke-width="1.45"/><polygon points="232.41 214.11 159.6 180.53 9.86 249.41 82.67 282.99 232.41 214.11" fill="#eeefef" stroke="#222" stroke-miterlimit="1" stroke-width="1.45"/><polygon points="87.7 280.8 87.7 286.4 232.41 219.81 232.41 214.21 87.7 280.8" fill="#dededf" stroke="#222" stroke-miterlimit="1" stroke-width="1.45"/><polygon points="169.11 30.99 271.93 78.29 268.35 79.93 165.54 32.64 169.11 30.99" fill="#eeefef" stroke="#222" stroke-miterlimit="1" stroke-width="1.45"/><polygon points="268.35 79.93 268.35 116.04 271.93 114.39 271.93 78.29 268.35 79.93" fill="#d7d8d9" stroke="#222" stroke-miterlimit="1" stroke-width="1.45"/><polygon points="264.72 78.27 268.35 79.94 147.38 135.6 143.75 133.93 264.72 78.27" fill="#eeefef" stroke="#222" stroke-miterlimit="1" stroke-width="1.45"/><polygon points="169.22 34.33 169.22 63.93 232.51 93.09 264.69 78.29 169.22 34.33" fill="#bdbec0" stroke="#222" stroke-miterlimit="1" stroke-width="1.45"/><polygon points="268.35 79.94 147.37 135.61 147.37 171.7 268.35 116.04 268.35 79.94" fill="#d1d1d3" stroke="#222" stroke-miterlimit="1" stroke-width="1.45"/><polygon points="44.55 88.29 147.37 135.59 143.79 137.23 40.98 89.93 44.55 88.29" fill="#f2f2f2" stroke="#222" stroke-miterlimit="1" stroke-width="1.45"/><polygon points="143.79 137.23 143.79 173.33 147.37 171.69 147.37 135.59 143.79 137.23" fill="#d7d8d9" stroke="#222" stroke-miterlimit="1" stroke-width="1.45"/><polygon points="40.98 126.03 143.79 173.32 143.79 137.23 40.98 89.93 40.98 126.03" fill="#bdbec0" stroke="#222" stroke-miterlimit="1" stroke-width="1.45"/><polygon points="9.7 76.89 14.72 74.58 130.66 127.93 125.64 130.24 9.7 76.89" fill="#eeefef" stroke="#222" stroke-miterlimit="1" stroke-width="1.45"/><polygon points="169.2 63.92 80.33 104.8 143.72 133.97 232.53 93.1 169.2 63.92" fill="#eeefef" stroke="#222" stroke-miterlimit="1" stroke-width="1.45"/><polygon points="130.66 127.93 109.79 118.32 151.54 118.32 130.66 127.93" fill="#e5e5e6" stroke="#222" stroke-miterlimit="1" stroke-width="1.45"/><path d="M130.66,127.93v5.6l20.88-9.6v-5.6Z" fill="#d1d1d3" stroke="#222" stroke-miterlimit="1" stroke-width="1.45"/><polygon points="259.02 68.87 259.02 68.87 259.02 74.47 259.02 74.47 275.37 66.95 275.37 61.35 259.02 68.87" fill="#d1d1d3" stroke="#222" stroke-miterlimit="1" stroke-width="1.45"/><polygon points="3.99 74.29 125.63 130.26 125.63 399.37 109.57 391.81 109.57 421.94 3.99 373.54 3.99 74.29" fill="#bdbec0" stroke="#222" stroke-miterlimit="1" stroke-width="1.45"/><polygon points="130.66 127.93 125.63 130.24 125.63 399.38 130.66 397.06 130.66 127.93" fill="#d1d1d3" stroke="#222" stroke-miterlimit="1" stroke-width="1.45"/><polygon points="244.69 267.96 244.69 280.91 222.49 244 244.69 227.34 244.69 240.29 350.27 288.7 350.27 316.37 244.69 267.96" fill="url(#linear-gradient)"/><polygon points="293.62 130.24 299.22 132.85 299.22 401.93 293.62 399.36 293.62 130.24" fill="#919b57" stroke="#222" stroke-miterlimit="1" stroke-width="1.45"/><polygon points="448.4 59.02 293.62 130.24 299.22 132.85 454.04 61.62 448.4 59.02" fill="#cad878" stroke="#222" stroke-miterlimit="1" stroke-width="1.45"/><path d="M299.22,132.85V401.93L454,330.7V61.62ZM441.94,79.28v42.8L311.32,182.19v-42.8Zm-130.62,305v-190l130.62-60.11v190Zm0,12.1v-21" fill="#cad878" stroke="#222" stroke-miterlimit="1" stroke-width="1.45"/><polygon points="441.94 79.28 436.34 81.86 436.34 119.52 441.94 122.1 441.94 79.28" fill="#919b57" stroke="#222" stroke-miterlimit="1" stroke-width="1.45"/><polyline points="441.94 81.53 441.94 67.26 436.32 64.67" fill="none" stroke="#222" stroke-miterlimit="1" stroke-width="1.45"/><polyline points="311.32 143.9 311.32 127.29 305.57 124.63" fill="none" stroke="#222" stroke-miterlimit="1" stroke-width="1.45"/><polygon points="441.94 324.16 441.94 134.25 436.34 136.82 436.34 321.6 441.93 324.17 441.94 324.16" fill="#919b57" stroke="#222" stroke-miterlimit="1" stroke-width="1.45"/><line x1="441.94" y1="336.23" x2="441.94" y2="322.33" fill="#919b57" stroke="#222" stroke-miterlimit="1" stroke-width="1.45"/><polygon points="436.32 119.51 311.32 177.03 311.32 182.22 441.96 122.11 436.32 119.51" fill="#cad878" stroke="#222" stroke-miterlimit="1" stroke-width="1.45"/><polygon points="436.27 321.57 311.32 379.06 311.32 384.25 441.91 324.16 436.27 321.57" fill="#cad878" stroke="#222" stroke-miterlimit="1" stroke-width="1.45"/><polygon points="469.86 196.78 475.46 199.4 475.46 408.25 469.86 405.68 469.86 196.78" fill="#bdbec0" stroke="#222" stroke-miterlimit="1" stroke-width="1.45"/><polygon points="469.86 196.78 620.32 127.56 625.96 130.15 475.46 199.4 469.86 196.78" fill="#eeefef" stroke="#222" stroke-miterlimit="1" stroke-width="1.45"/><polygon points="475.46 199.4 626.01 130.13 626.01 338.98 475.46 408.26 475.46 199.4" fill="none" stroke="#ea0029" stroke-miterlimit="1" stroke-width="1.24"/><polygon points="475.46 199.4 626.01 130.13 626.01 338.98 475.46 408.26 475.46 199.4" fill="#d1d1d3"/><polygon points="475.46 199.4 626.01 130.13 626.01 338.98 475.46 408.26 475.46 199.4" fill="none" stroke="#222" stroke-miterlimit="1" stroke-width="1.45"/><polygon points="469.86 128.57 475.46 131.18 475.46 191.25 469.86 188.68 469.86 128.57" fill="#bdbec0" stroke="#222" stroke-miterlimit="1" stroke-width="1.45"/><polygon points="469.86 128.57 620.32 59.34 625.96 61.93 475.46 131.18 469.86 128.57" fill="#eeefef" stroke="#222" stroke-miterlimit="1" stroke-width="1.45"/><polygon points="475.46 131.18 626.01 61.91 626.01 121.98 475.46 191.25 475.46 131.18" fill="#d1d1d3" stroke="#222" stroke-miterlimit="1" stroke-width="1.45"/><polygon points="493.61 140.98 493.61 164.75 607.86 112.18 607.86 88.41 493.61 140.98" fill="#c7c8c9" stroke="#222" stroke-miterlimit="1" stroke-width="1.45"/><polygon points="493.61 209.19 493.61 381.75 607.86 329.19 607.86 156.63 493.61 209.19" fill="none" stroke="#ea0029" stroke-miterlimit="1" stroke-width="1.24"/><polygon points="493.61 209.19 493.61 381.75 607.86 329.19 607.86 156.63 493.61 209.19" fill="#c7c8c9"/><polygon points="493.61 209.19 493.61 381.75 607.86 329.19 607.86 156.63 493.61 209.19" fill="none" stroke="#222" stroke-miterlimit="1" stroke-width="1.45"/><polygon points="607.86 88.41 605.44 89.52 605.44 110.92 607.86 112.04 607.86 88.41" fill="#bdbec0" stroke="#222" stroke-miterlimit="1" stroke-width="1.45"/><polygon points="605.39 110.9 493.61 162.33 493.61 164.75 607.86 112.18 607.86 112.04 605.39 110.9" fill="#f8f8f9" stroke="#222" stroke-miterlimit="1" stroke-width="1.45"/><polygon points="607.86 156.63 605.44 157.74 605.44 327.9 607.86 329.01 607.86 156.63" fill="none" stroke="#ea0029" stroke-miterlimit="1" stroke-width="1.24"/><polygon points="607.86 156.63 605.44 157.74 605.44 327.9 607.86 329.01 607.86 156.63" fill="#bdbec0"/><polygon points="607.86 156.63 605.44 157.74 605.44 327.9 607.86 329.01 607.86 156.63" fill="none" stroke="#222" stroke-miterlimit="1" stroke-width="1.45"/><polygon points="605.42 327.89 493.61 379.33 493.61 381.75 607.86 329.19 607.86 329.01 605.42 327.89" fill="none" stroke="#ea0029" stroke-miterlimit="1" stroke-width="1.24"/><polygon points="605.42 327.89 493.61 379.33 493.61 381.75 607.86 329.19 607.86 329.01 605.42 327.89" fill="#f8f8f9"/><polygon points="605.42 327.89 493.61 379.33 493.61 381.75 607.86 329.19 607.86 329.01 605.42 327.89" fill="none" stroke="#222" stroke-miterlimit="1" stroke-width="1.45"/><polyline points="607.86 130.33 607.86 70.26 602.25 67.7" fill="none" stroke="#222" stroke-miterlimit="1" stroke-width="1.45"/><polyline points="493.61 182.92 493.61 122.85 488 120.29" fill="none" stroke="#222" stroke-miterlimit="1" stroke-width="1.45"/><polyline points="493.61 399.9 493.61 191.05 488 188.48" fill="none" stroke="#222" stroke-miterlimit="1" stroke-width="1.45"/><polyline points="607.86 347.33 607.86 138.47 602.25 135.91" fill="none" stroke="#222" stroke-miterlimit="1" stroke-width="1.45"/><polygon points="405.14 267.96 405.14 280.91 382.94 244 405.14 227.34 405.14 240.29 510.72 288.7 510.72 316.37 405.14 267.96" fill="url(#linear-gradient-2)"/></g></svg>