<svg xmlns="http://www.w3.org/2000/svg" width="520" height="540" viewBox="0 0 520 540"><g id="Layer_2" data-name="Layer 2"><rect width="520" height="540" fill="#808041"/><path d="M260,281.3a52,52,0,1,1,52-52A52,52,0,0,1,260,281.3Zm0-92.11a40.16,40.16,0,1,0,40.15,40.15A40.19,40.19,0,0,0,260,189.19Z" fill="#fff"/><path d="M354.48,362.62h-189v-5.9a66.21,66.21,0,0,1,66.14-66.14h56.68a66.21,66.21,0,0,1,66.14,66.14ZM177.65,350.81h164.7a54.4,54.4,0,0,0-54-48.42H231.66A54.4,54.4,0,0,0,177.65,350.81Z" fill="#fff"/></g></svg>