<?xml version="1.0" encoding="utf-8"?>
<!-- Generator: Adobe Illustrator 26.3.1, SVG Export Plug-In . SVG Version: 6.00 Build 0)  -->
<svg version="1.1" id="Layer_1" xmlns="http://www.w3.org/2000/svg" xmlns:xlink="http://www.w3.org/1999/xlink" x="0px" y="0px"
	 viewBox="0 0 273.2 96.9" style="enable-background:new 0 0 273.2 96.9;" xml:space="preserve">
<style type="text/css">
	.st0{fill:#222222;}
	.st1{enable-background:new    ;}
</style>
<g id="Layer_2_00000133521494905902789990000017659911715194373276_">
	<g>
		<path class="st0" d="M273.2,96.9H0V0h273.2V96.9z M2,94.9h269.2V2H2V94.9z"/>
	</g>
	<g class="st1">
		<path class="st0" d="M112.5,55.5c-0.2-0.2-0.3-0.3-0.1-0.7l0.9-1.5c0.2-0.3,0.6-0.3,0.8-0.2c1,0.8,2.1,1.5,3.8,1.5
			c1.3,0,2.3-0.8,2.3-1.9c0-1.3-1.1-2.1-3.2-3c-2.3-0.9-4.7-2.4-4.7-5.4c0-2.2,1.6-4.8,5.6-4.8c2.5,0,4.5,1.3,5,1.7
			c0.2,0.1,0.3,0.6,0.1,0.8l-0.9,1.4c-0.2,0.3-0.6,0.5-0.9,0.3c-1.1-0.7-2.1-1.4-3.5-1.4c-1.4,0-2.2,0.8-2.2,1.7
			c0,1.2,0.9,2,2.9,2.8c2.4,1,5.2,2.4,5.2,5.6c0,2.6-2.2,4.9-5.7,4.9C114.8,57.4,113.2,56.1,112.5,55.5z"/>
		<path class="st0" d="M132.3,40.2c0-0.2,0.2-0.5,0.5-0.5h10.1c0.3,0,0.5,0.2,0.5,0.5v2c0,0.2-0.2,0.5-0.5,0.5h-7.4v4.1h6.1
			c0.2,0,0.5,0.2,0.5,0.5v2.1c0,0.3-0.2,0.5-0.5,0.5h-6.1v4.4h7.4c0.3,0,0.5,0.2,0.5,0.5v2c0,0.2-0.2,0.5-0.5,0.5h-10.1
			c-0.3,0-0.5-0.2-0.5-0.5V40.2z"/>
		<path class="st0" d="M152.1,40.2c0-0.2,0.2-0.5,0.5-0.5h2.3c0.2,0,0.5,0.2,0.5,0.5v14h6.3c0.3,0,0.5,0.2,0.5,0.5v2
			c0,0.2-0.2,0.5-0.5,0.5h-9.1c-0.3,0-0.5-0.2-0.5-0.5V40.2z"/>
	</g>
	<g class="st1">
		<path class="st0" d="M170.1,40.2c0-0.2,0.2-0.5,0.5-0.5h10.1c0.3,0,0.5,0.2,0.5,0.5v2c0,0.2-0.2,0.5-0.5,0.5h-7.4v4.1h6.1
			c0.2,0,0.5,0.2,0.5,0.5v2.1c0,0.3-0.2,0.5-0.5,0.5h-6.1v4.4h7.4c0.3,0,0.5,0.2,0.5,0.5v2c0,0.2-0.2,0.5-0.5,0.5h-10.1
			c-0.3,0-0.5-0.2-0.5-0.5V40.2z"/>
	</g>
	<g class="st1">
		<path class="st0" d="M197.6,39.5c2.5,0,4.3,0.8,6,2.3c0.2,0.2,0.2,0.5,0,0.7l-1.5,1.6c-0.2,0.2-0.4,0.2-0.6,0
			c-1-0.9-2.4-1.5-3.8-1.5c-3.2,0-5.5,2.7-5.5,5.8c0,3.1,2.4,5.7,5.6,5.7c1.5,0,2.8-0.6,3.8-1.4c0.2-0.2,0.5-0.1,0.6,0l1.5,1.6
			c0.2,0.2,0.1,0.5,0,0.7c-1.7,1.6-3.8,2.4-6,2.4c-5,0-9-4-9-8.9S192.7,39.5,197.6,39.5z"/>
		<path class="st0" d="M215.1,42.7h-3.8c-0.3,0-0.5-0.2-0.5-0.5v-2c0-0.2,0.2-0.5,0.5-0.5h10.9c0.3,0,0.5,0.2,0.5,0.5v2
			c0,0.2-0.2,0.5-0.5,0.5h-3.8v14c0,0.2-0.2,0.5-0.5,0.5h-2.3c-0.2,0-0.5-0.2-0.5-0.5V42.7z"/>
	</g>
	<g>
		<path class="st0" d="M58.5,83c-19.1,0-34.6-15.5-34.6-34.6c0-19.1,15.5-34.6,34.6-34.6s34.6,15.5,34.6,34.6
			C93.1,67.5,77.6,83,58.5,83z M58.5,15.9c-18,0-32.6,14.6-32.6,32.6S40.6,81,58.5,81s32.6-14.6,32.6-32.6S76.5,15.9,58.5,15.9z"/>
	</g>
	<g>
		<polygon class="st0" points="53.7,64.2 36.9,47.5 40.3,44.1 53.7,57.4 76.8,34.4 80.2,37.7 		"/>
	</g>
</g>
</svg>
