<svg xmlns="http://www.w3.org/2000/svg" width="31.7" height="32.08" viewBox="0 0 31.7 32.08"><g id="Layer_2" data-name="Layer 2"><path id="fhIjoL" d="M29.67,22.71a1,1,0,0,1,1.09,1,1.09,1.09,0,0,1-1.15,1.1H12.88a3.49,3.49,0,0,1-2.2-.69A2.12,2.12,0,0,1,10,22a6.35,6.35,0,0,1,1.6-2.53,8,8,0,0,0,.55-.63.47.47,0,0,0,.07-.36L5.69,2.8a.33.33,0,0,0-.33-.23L.93,2.12A1.05,1.05,0,0,1,0,1,1,1,0,0,1,1.08,0L6.4.52a1.1,1.1,0,0,1,1,.74c.44,1.07.88,2.13,1.31,3.19a.49.49,0,0,0,.51.35l21.05.68a1.54,1.54,0,0,1,1.2.43,1.23,1.23,0,0,1,.24.83c-.09,1-.24,1.92-.36,2.88l-.42,3.43c-.16,1.21-.32,2.41-.49,3.62a8.89,8.89,0,0,1-.13.88,1,1,0,0,1-.88.73l-3.2.34-5.89.63-2.91.28-3,.3a.74.74,0,0,0-.53.28c-.5.6-1.18,1.36-1.72,2-.12.14-.23.25-.23.42s.25.16.43.16ZM14,17.08c.29.66.3.64,1,.55l12.81-1.32a.61.61,0,0,0,.58-.57l1-7.68A.44.44,0,0,0,29,7.6L9.77,7Z"/><path d="M14.41,28.83a1.13,1.13,0,1,1-1.13-1.13A1.13,1.13,0,0,1,14.41,28.83Zm-1.13-3.26a3.26,3.26,0,1,0,3.26,3.26A3.26,3.26,0,0,0,13.28,25.57Z"/><path d="M28.53,28.83A1.13,1.13,0,1,1,27.4,27.7,1.13,1.13,0,0,1,28.53,28.83ZM27.4,25.57a3.26,3.26,0,1,0,3.26,3.26A3.26,3.26,0,0,0,27.4,25.57Z"/></g></svg>