<svg xmlns="http://www.w3.org/2000/svg" width="35.04" height="27.52" viewBox="0 0 35.04 27.52"><g id="Layer_2" data-name="Layer 2"><g id="zwh95R"><path d="M34.26,7.76a2.94,2.94,0,0,0-2.24-1h-2V6a3,3,0,0,0-3.24-3.26H12.55A3,3,0,0,0,9.24,0H3.18A3,3,0,0,0,0,3.18v23c0,1,.3,1.31,1.28,1.31l28,0h0a1,1,0,0,0,1.16-.91l2.22-7.95,2.22-8A2.91,2.91,0,0,0,34.26,7.76ZM6.29,2h3.1a1.15,1.15,0,0,1,.87.28,1.07,1.07,0,0,1,.24.79,2.48,2.48,0,0,0,.15,1.17.73.73,0,0,0,.16.22c.3.32.78.31,1.4.32H26.8a1.31,1.31,0,0,1,1,.27,1.39,1.39,0,0,1,.25,1v.69H8.38A3,3,0,0,0,5.15,9.24L2.78,17.76,2,20.44V3.21C2,2.37,2.36,2,3.19,2ZM28.34,25.49H2.77L7.08,9.92c.27-1,.42-1.09,1.43-1.09H31.94a1.08,1.08,0,0,1,.89.37,1,1,0,0,1,.11.93c-.57,2.11-1.16,4.21-1.75,6.32l-1.12,4c-.44,1.54-.87,3.09-1.28,4.64C28.71,25.42,28.62,25.49,28.34,25.49Z" fill="#222"/></g></g></svg>