<svg xmlns="http://www.w3.org/2000/svg" width="40.82" height="40.82" viewBox="0 0 40.82 40.82"><g id="Layer_2" data-name="Layer 2"><path d="M40.82,20.41A20.41,20.41,0,1,1,20.41,0,20.41,20.41,0,0,1,40.82,20.41Z" fill="#9a999a"/><path d="M25.26,31.83h-9.7A6.4,6.4,0,0,1,9,25.63V15.2A6.4,6.4,0,0,1,15.56,9h9.7a6.41,6.41,0,0,1,6.59,6.2V25.63A6.41,6.41,0,0,1,25.26,31.83Zm-9.7-20.65a4.22,4.22,0,0,0-4.4,4V25.63a4.23,4.23,0,0,0,4.4,4h9.7a4.24,4.24,0,0,0,4.41-4V15.2a4.23,4.23,0,0,0-4.41-4Z" fill="#fff"/><path d="M20.41,26.25a5.84,5.84,0,1,1,5.84-5.84A5.84,5.84,0,0,1,20.41,26.25Zm0-9.66a3.82,3.82,0,1,0,3.82,3.82A3.82,3.82,0,0,0,20.41,16.59Z" fill="#fff"/><path d="M28.06,14.32a1.44,1.44,0,1,1-1.44-1.43A1.44,1.44,0,0,1,28.06,14.32Z" fill="#fff"/></g></svg>