<svg xmlns="http://www.w3.org/2000/svg" width="40.82" height="40.82" viewBox="0 0 40.82 40.82"><g id="Layer_2" data-name="Layer 2"><path d="M40.82,20.41A20.41,20.41,0,1,1,20.41,0,20.4,20.4,0,0,1,40.82,20.41Z" fill="#9a999a"/><path d="M10.41,15.82h4.64V30.76H10.41ZM12.73,8.4A2.69,2.69,0,1,1,10,11.09,2.68,2.68,0,0,1,12.73,8.4" fill="#fff"/><path d="M18,15.82h4.45v2h.06a4.9,4.9,0,0,1,4.4-2.41c4.7,0,5.57,3.09,5.57,7.12v8.19H27.81V23.5c0-1.74,0-4-2.41-4s-2.79,1.89-2.79,3.84v7.39H18Z" fill="#fff"/></g></svg>