<?xml version="1.0" encoding="UTF-8"?>
<svg id="Layer_2" data-name="Layer 2" xmlns="http://www.w3.org/2000/svg" viewBox="0 0 334.24 334.24">
  <defs>
    <style>
      .cls-1 {
        fill: #fff;
      }

      .cls-2 {
        fill: #222;
      }
    </style>
  </defs>
  <circle class="cls-2" cx="166.44" cy="167.16" r="124.43"/>
  <path class="cls-2" d="M167.12,334.24C74.97,334.24,0,259.27,0,167.12S74.97,0,167.12,0s167.12,74.97,167.12,167.12-74.97,167.12-167.12,167.12Zm0-329.24C77.73,5,5,77.73,5,167.12s72.73,162.12,162.12,162.12,162.12-72.73,162.12-162.12S256.51,5,167.12,5Z"/>
  <g>
    <path class="cls-1" d="M110.98,160.65c-.31-.25-.44-.44-.16-.94l1.13-1.95c.25-.44,.79-.44,1.07-.22,1.29,.98,2.71,1.95,4.75,1.95,1.64,0,2.87-1.07,2.87-2.43,0-1.61-1.35-2.71-4-3.78-2.96-1.2-5.92-3.09-5.92-6.8,0-2.8,2.08-6.05,7.09-6.05,3.21,0,5.67,1.64,6.3,2.11,.31,.19,.41,.72,.19,1.04l-1.2,1.79c-.25,.38-.72,.63-1.1,.38-1.35-.85-2.65-1.73-4.38-1.73s-2.77,1.01-2.77,2.2c0,1.48,1.17,2.49,3.72,3.53,3.05,1.23,6.58,3.06,6.58,7.12,0,3.24-2.8,6.24-7.24,6.24-3.97,0-6.02-1.67-6.93-2.46Z"/>
    <path class="cls-1" d="M128.84,141.34c0-.32,.28-.6,.6-.6h2.99c.35,0,.6,.28,.6,.6v13.13c0,2.68,1.83,4.54,4.57,4.54s4.6-1.86,4.6-4.5v-13.16c0-.32,.25-.6,.6-.6h2.99c.31,0,.6,.28,.6,.6v13.35c0,4.79-3.81,8.41-8.79,8.41s-8.75-3.62-8.75-8.41v-13.35Z"/>
    <path class="cls-1" d="M162.82,151.64c1.83,.63,3.78,2.11,3.78,5.07,0,3.53-3.02,6.08-6.87,6.08h-7.62c-.35,0-.6-.28-.6-.6v-20.85c0-.32,.25-.6,.6-.6h7.21c3.75,0,6.65,2.52,6.65,5.83,0,2.36-1.51,4.09-3.15,4.91v.16Zm-3.81-1.64c1.61,0,2.65-1.26,2.65-2.83s-1.04-2.68-2.65-2.68h-3.43v5.51h3.43Zm.44,9.07c1.58,0,2.77-1.23,2.77-2.87s-1.2-2.74-2.77-2.74h-3.87v5.61h3.87Z"/>
    <path class="cls-1" d="M173.46,140.9c.03-.25,.22-.47,.57-.47h.5c.25,0,.44,.13,.54,.32l6.93,14.87h.09l6.93-14.87c.09-.19,.25-.32,.54-.32h.5c.35,0,.54,.22,.57,.47l3.72,21.16c.09,.44-.16,.72-.57,.72h-2.87c-.28,0-.54-.25-.6-.47l-1.86-11.94h-.09l-5.51,12.38c-.06,.19-.25,.35-.54,.35h-.57c-.28,0-.44-.16-.54-.35l-5.57-12.38h-.09l-1.83,11.94c-.03,.22-.28,.47-.57,.47h-2.83c-.41,0-.66-.28-.6-.72l3.75-21.16Z"/>
    <path class="cls-1" d="M198.5,141.34c0-.32,.28-.6,.6-.6h2.93c.32,0,.6,.28,.6,.6v20.85c0,.32-.28,.6-.6,.6h-2.93c-.32,0-.6-.28-.6-.6v-20.85Z"/>
    <path class="cls-1" d="M211.54,144.52h-4.82c-.35,0-.6-.28-.6-.6v-2.58c0-.32,.25-.6,.6-.6h13.76c.35,0,.6,.28,.6,.6v2.58c0,.32-.25,.6-.6,.6h-4.82v17.67c0,.32-.28,.6-.6,.6h-2.93c-.32,0-.6-.28-.6-.6v-17.67Z"/>
    <path class="cls-1" d="M122.57,171.84c0-.32,.25-.6,.6-.6h12.82c.35,0,.6,.28,.6,.6v2.58c0,.32-.25,.6-.6,.6h-9.32v5.92h7.78c.32,0,.6,.28,.6,.6v2.58c0,.32-.28,.6-.6,.6h-7.78v7.97c0,.32-.28,.6-.6,.6h-2.9c-.35,0-.6-.28-.6-.6v-20.85Z"/>
    <path class="cls-1" d="M150.13,170.93c6.3,0,11.34,5.07,11.34,11.37s-5.04,11.31-11.34,11.31-11.31-5.01-11.31-11.31,5.01-11.37,11.31-11.37Zm0,18.58c3.97,0,7.24-3.24,7.24-7.21s-3.28-7.28-7.24-7.28-7.21,3.31-7.21,7.28,3.24,7.21,7.21,7.21Z"/>
    <path class="cls-1" d="M165.52,171.84c0-.32,.25-.6,.6-.6h9.01c3.78,0,6.87,3.02,6.87,6.77,0,2.9-1.92,5.26-4.66,6.36l4.31,8c.22,.41,0,.91-.54,.91h-3.31c-.28,0-.44-.16-.5-.28l-4.19-8.35h-3.5v8.03c0,.32-.28,.6-.6,.6h-2.9c-.35,0-.6-.28-.6-.6v-20.85Zm9.26,9.45c1.67,0,3.12-1.45,3.12-3.21,0-1.67-1.45-3.05-3.12-3.05h-5.13v6.27h5.13Z"/>
    <path class="cls-1" d="M188.86,171.4c.03-.25,.22-.47,.57-.47h.5c.25,0,.44,.12,.54,.31l6.93,14.87h.09l6.93-14.87c.09-.19,.25-.31,.54-.31h.5c.35,0,.54,.22,.57,.47l3.72,21.16c.09,.44-.16,.72-.57,.72h-2.87c-.28,0-.54-.25-.6-.47l-1.86-11.94h-.09l-5.51,12.38c-.06,.19-.25,.35-.54,.35h-.57c-.28,0-.44-.16-.54-.35l-5.57-12.38h-.09l-1.83,11.94c-.03,.22-.28,.47-.57,.47h-2.83c-.41,0-.66-.28-.6-.72l3.75-21.16Z"/>
  </g>
</svg>