<svg xmlns="http://www.w3.org/2000/svg" width="500" height="370" viewBox="0 0 500 370"><g id="Layer_2" data-name="Layer 2"><rect width="500" height="370" fill="#fff"/><polygon points="111.1 300.33 234.55 214.67 234.55 28.89 111.1 114.55 111.1 300.33" fill="none" stroke="#222" stroke-miterlimit="1" stroke-width="3.46"/><polygon points="111.1 300.33 111.1 114.55 118.72 119.13 118.72 304.91 111.1 300.33" fill="#fff" stroke="#222" stroke-miterlimit="1" stroke-width="3.46"/><polygon points="234.55 28.89 111.1 114.55 118.72 119.13 242.18 33.47 234.55 28.89" fill="#fff" stroke="#222" stroke-miterlimit="1" stroke-width="3.46"/><polygon points="118.72 304.91 242.18 219.25 242.18 33.47 118.72 119.13 118.72 304.91" fill="#fff" stroke="#222" stroke-miterlimit="1" stroke-width="3.46"/><polygon points="334.13 77.98 210.68 163.64 210.68 171.51 334.13 85.85 334.13 77.98" fill="#fff" stroke="#222" stroke-miterlimit="1" stroke-width="3.46"/><polygon points="326.51 81.27 203.06 166.93 118.72 127.01 242.18 41.35 326.51 81.27" fill="#fff" stroke="#222" stroke-miterlimit="1" stroke-width="3.46"/><polygon points="326.51 73.39 203.06 159.06 118.72 119.13 242.18 33.47 326.51 73.39" fill="#fff" stroke="#222" stroke-miterlimit="1" stroke-width="3.46"/><polygon points="118.72 119.13 203.06 159.06 203.06 166.93 118.72 127.01 118.72 119.13" fill="#fff" stroke="#222" stroke-miterlimit="1" stroke-width="3.46"/><polygon points="326.51 259.18 203.06 344.84 118.72 304.91 242.18 219.25 326.51 259.18" fill="#fff" stroke="#222" stroke-miterlimit="1" stroke-width="3.46"/><polygon points="326.51 251.3 203.06 336.96 118.72 297.04 242.18 211.38 326.51 251.3" fill="#fff" stroke="#222" stroke-miterlimit="1" stroke-width="3.46"/><polygon points="118.72 297.04 203.06 336.96 203.06 344.84 118.72 304.91 118.72 297.04" fill="#fff" stroke="#222" stroke-miterlimit="1" stroke-width="3.46"/><polygon points="203.06 344.84 326.51 259.18 326.51 73.39 203.06 159.06 203.06 344.84" fill="none" stroke="#222" stroke-miterlimit="1" stroke-width="3.46"/><polygon points="203.06 344.84 203.06 159.06 210.68 163.64 210.68 349.42 203.06 344.84" fill="#ceced0" stroke="#222" stroke-miterlimit="1" stroke-width="3.46"/><polygon points="326.51 73.39 203.06 159.06 210.68 163.64 334.13 77.98 326.51 73.39" fill="#dededf" stroke="#222" stroke-miterlimit="1" stroke-width="3.46"/><polygon points="210.68 349.42 334.13 263.76 334.13 77.98 210.68 163.64 210.68 349.42" fill="#bdbec0" stroke="#222" stroke-miterlimit="1" stroke-width="3.46"/><polygon points="388.9 140.08 336.31 178.84 388.9 217.6 388.9 140.08" fill="#cad878"/></g></svg>