<svg xmlns="http://www.w3.org/2000/svg" width="500" height="370" viewBox="0 0 500 370"><g id="Layer_2" data-name="Layer 2"><rect width="500" height="370" fill="#ffff"/><polygon points="388.58 298.25 265.13 212.59 265.13 26.81 388.58 112.47 388.58 298.25" fill="none" stroke="#222" stroke-miterlimit="1" stroke-width="3.46"/><polygon points="388.58 298.25 388.58 112.47 380.95 117.06 380.95 302.84 388.58 298.25" fill="#fff" stroke="#222" stroke-miterlimit="1" stroke-width="3.46"/><polygon points="265.13 26.81 388.58 112.47 380.95 117.06 257.5 31.4 265.13 26.81" fill="#fff" stroke="#222" stroke-miterlimit="1" stroke-width="3.46"/><polygon points="380.95 302.84 257.5 217.18 257.5 31.4 380.95 117.06 380.95 302.84" fill="#fff" stroke="#222" stroke-miterlimit="1" stroke-width="3.46"/><polygon points="165.54 75.91 289 161.57 289 169.44 165.54 83.78 165.54 75.91" fill="#fff" stroke="#222" stroke-miterlimit="1" stroke-width="3.46"/><polygon points="173.17 79.2 296.62 164.86 380.95 124.94 257.5 39.27 173.17 79.2" fill="#fff" stroke="#222" stroke-miterlimit="1" stroke-width="3.46"/><polygon points="173.17 71.32 296.62 156.98 380.95 117.06 257.5 31.4 173.17 71.32" fill="#fff" stroke="#222" stroke-miterlimit="1" stroke-width="3.46"/><polygon points="380.95 117.06 296.62 156.98 296.62 164.86 380.95 124.94 380.95 117.06" fill="#fff" stroke="#222" stroke-miterlimit="1" stroke-width="3.46"/><polygon points="173.17 257.1 296.62 342.76 380.95 302.84 257.5 217.18 173.17 257.1" fill="#fff" stroke="#222" stroke-miterlimit="1" stroke-width="3.46"/><polygon points="173.17 249.23 296.62 334.89 380.95 294.96 257.5 209.3 173.17 249.23" fill="#fff" stroke="#222" stroke-miterlimit="1" stroke-width="3.46"/><polygon points="380.95 294.96 296.62 334.89 296.62 342.76 380.95 302.84 380.95 294.96" fill="#fff" stroke="#222" stroke-miterlimit="1" stroke-width="3.46"/><polygon points="296.62 342.76 173.17 257.1 173.17 71.32 296.62 156.98 296.62 342.76" fill="none" stroke="#222" stroke-miterlimit="1" stroke-width="3.46"/><polygon points="296.62 342.76 296.62 156.98 289 161.57 289 347.35 296.62 342.76" fill="#ceced0" stroke="#222" stroke-miterlimit="1" stroke-width="3.46"/><polygon points="173.17 71.32 296.62 156.98 289 161.57 165.54 75.91 173.17 71.32" fill="#dededf" stroke="#222" stroke-miterlimit="1" stroke-width="3.46"/><polygon points="289 347.35 165.54 261.69 165.54 75.91 289 161.57 289 347.35" fill="#bdbec0" stroke="#222" stroke-miterlimit="1" stroke-width="3.46"/><polygon points="111.42 138 164.01 176.76 111.42 215.53 111.42 138" fill="#cad878"/></g></svg>