<svg xmlns="http://www.w3.org/2000/svg" width="330" height="322" viewBox="0 0 330 322"><g id="Layer_2" data-name="Layer 2"><rect x="6.6" y="305.18" width="313" height="13" fill="#cad878" stroke="#222" stroke-miterlimit="10" stroke-width="1.5"/><polygon points="322.6 3.82 319.6 3.82 6.6 3.82 3.6 3.82 3.6 7.18 6.6 7.18 6.6 16.82 319.6 16.82 319.6 7.18 322.6 7.18 322.6 3.82" fill="#cad878" stroke="#222" stroke-miterlimit="10" stroke-width="1.5"/><rect x="-131.58" y="155" width="288.35" height="12" transform="translate(173.6 148.4) rotate(90)" fill="#cad878" stroke="#222" stroke-miterlimit="10" stroke-width="1.5"/><rect x="87.6" y="16.82" width="58" height="116.75" fill="none" stroke="#222" stroke-miterlimit="10" stroke-width="1.5"/><rect x="18.6" y="16.82" width="69" height="116.75" fill="none" stroke="#222" stroke-miterlimit="10" stroke-width="1.5"/><rect x="18.6" y="133.58" width="69" height="171.6" fill="none" stroke="#222" stroke-miterlimit="10" stroke-width="1.5"/><rect x="145.6" y="16.82" width="58" height="116.75" fill="none" stroke="#222" stroke-miterlimit="10" stroke-width="1.5"/><rect x="203.6" y="16.82" width="58" height="116.75" fill="none" stroke="#222" stroke-miterlimit="10" stroke-width="1.5"/><rect x="261.6" y="16.82" width="58" height="116.75" fill="none" stroke="#222" stroke-miterlimit="10" stroke-width="1.5"/><rect x="87.6" y="191.42" width="58" height="113.75" fill="none" stroke="#222" stroke-miterlimit="10" stroke-width="1.5"/><rect x="145.6" y="191.42" width="58" height="113.75" fill="none" stroke="#222" stroke-miterlimit="10" stroke-width="1.5"/><rect x="203.6" y="191.42" width="58" height="113.75" fill="none" stroke="#222" stroke-miterlimit="10" stroke-width="1.5"/><rect x="261.6" y="191.42" width="58" height="113.75" fill="none" stroke="#222" stroke-miterlimit="10" stroke-width="1.5"/><rect x="87.6" y="191.42" width="58" height="22.84" fill="none" stroke="#222" stroke-miterlimit="10" stroke-width="1.5"/><rect x="145.6" y="191.42" width="58" height="22.84" fill="none" stroke="#222" stroke-miterlimit="10" stroke-width="1.5"/><rect x="87.6" y="214.27" width="58" height="37.71" fill="none" stroke="#222" stroke-miterlimit="10" stroke-width="1.5"/><rect x="145.6" y="214.27" width="58" height="37.71" fill="none" stroke="#222" stroke-miterlimit="10" stroke-width="1.5"/><rect x="203.6" y="191.42" width="58" height="22.84" fill="none" stroke="#222" stroke-miterlimit="10" stroke-width="1.5"/><rect x="261.6" y="191.42" width="58" height="22.84" fill="none" stroke="#222" stroke-miterlimit="10" stroke-width="1.5"/><rect x="87.6" y="178.42" width="238.8" height="13" fill="none" stroke="#222" stroke-miterlimit="10" stroke-width="1.5"/><line x1="79.6" y1="109.58" x2="79.6" y2="126.38" fill="none" stroke="#222" stroke-miterlimit="10" stroke-width="2"/><line x1="137.6" y1="109.58" x2="137.6" y2="126.38" fill="none" stroke="#222" stroke-miterlimit="10" stroke-width="2"/><line x1="153.6" y1="109.58" x2="153.6" y2="126.38" fill="none" stroke="#222" stroke-miterlimit="10" stroke-width="2"/><line x1="253.6" y1="109.58" x2="253.6" y2="126.38" fill="none" stroke="#222" stroke-miterlimit="10" stroke-width="2"/><line x1="269.6" y1="109.58" x2="269.6" y2="126.38" fill="none" stroke="#222" stroke-miterlimit="10" stroke-width="2"/><line x1="253.6" y1="221.58" x2="253.6" y2="238.38" fill="none" stroke="#222" stroke-miterlimit="10" stroke-width="2"/><line x1="269.6" y1="221.58" x2="269.6" y2="238.38" fill="none" stroke="#222" stroke-miterlimit="10" stroke-width="2"/><line x1="79.6" y1="142.25" x2="79.6" y2="159.05" fill="none" stroke="#222" stroke-miterlimit="10" stroke-width="2"/><line x1="241" y1="202.85" x2="224.2" y2="202.85" fill="none" stroke="#222" stroke-miterlimit="10" stroke-width="2"/><line x1="183" y1="202.85" x2="166.2" y2="202.85" fill="none" stroke="#222" stroke-miterlimit="10" stroke-width="2"/><line x1="125" y1="202.85" x2="108.2" y2="202.85" fill="none" stroke="#222" stroke-miterlimit="10" stroke-width="2"/><line x1="183" y1="233.12" x2="166.2" y2="233.12" fill="none" stroke="#222" stroke-miterlimit="10" stroke-width="2"/><line x1="125" y1="233.12" x2="108.2" y2="233.12" fill="none" stroke="#222" stroke-miterlimit="10" stroke-width="2"/><line x1="183" y1="278.58" x2="166.2" y2="278.58" fill="none" stroke="#222" stroke-miterlimit="10" stroke-width="2"/><line x1="125" y1="278.58" x2="108.2" y2="278.58" fill="none" stroke="#222" stroke-miterlimit="10" stroke-width="2"/><line x1="299" y1="202.85" x2="282.2" y2="202.85" fill="none" stroke="#222" stroke-miterlimit="10" stroke-width="2"/></g></svg>