<svg xmlns="http://www.w3.org/2000/svg" width="339" height="339" viewBox="0 0 339 339"><g id="Layer_2" data-name="Layer 2"><circle cx="168.83" cy="169.54" r="124.43" fill="#222"/><circle cx="169.5" cy="169.5" r="164.62" fill="none" stroke="#222" stroke-miterlimit="10" stroke-width="5"/><path d="M113.36,163c-.31-.25-.44-.44-.16-.95l1.14-2a.73.73,0,0,1,1.07-.22,7.59,7.59,0,0,0,4.76,2,2.63,2.63,0,0,0,2.86-2.42c0-1.61-1.35-2.71-4-3.78-3-1.2-5.92-3.09-5.92-6.81,0-2.8,2.08-6,7.09-6a11.12,11.12,0,0,1,6.3,2.11.77.77,0,0,1,.18,1l-1.19,1.79a.83.83,0,0,1-1.1.38c-1.36-.85-2.65-1.73-4.38-1.73s-2.77,1-2.77,2.2c0,1.48,1.16,2.49,3.71,3.53,3.06,1.23,6.58,3.06,6.58,7.12,0,3.24-2.8,6.23-7.24,6.23A9.92,9.92,0,0,1,113.36,163Z" fill="#fff"/><path d="M131.22,143.72a.62.62,0,0,1,.6-.6h3a.6.6,0,0,1,.6.6v13.13a4.58,4.58,0,0,0,9.16,0V143.72a.6.6,0,0,1,.6-.6h3a.62.62,0,0,1,.6.6v13.35a8.78,8.78,0,0,1-17.54,0Z" fill="#fff"/><path d="M165.2,154a5.17,5.17,0,0,1,3.78,5.07c0,3.53-3,6.08-6.87,6.08h-7.62a.6.6,0,0,1-.6-.6V143.72a.61.61,0,0,1,.6-.6h7.21c3.75,0,6.65,2.52,6.65,5.83a5.53,5.53,0,0,1-3.15,4.91Zm-3.81-1.64a2.64,2.64,0,0,0,2.64-2.83,2.51,2.51,0,0,0-2.64-2.68H158v5.51Zm.44,9.07a2.75,2.75,0,0,0,2.77-2.86,2.68,2.68,0,0,0-2.77-2.74H158v5.6Z" fill="#fff"/><path d="M175.84,143.28a.54.54,0,0,1,.57-.47h.5a.56.56,0,0,1,.54.31L184.38,158h.09l6.93-14.87a.54.54,0,0,1,.54-.31h.5a.53.53,0,0,1,.57.47l3.71,21.16a.54.54,0,0,1-.56.73h-2.87a.7.7,0,0,1-.6-.47l-1.85-11.94h-.1l-5.51,12.38a.53.53,0,0,1-.54.34h-.56a.57.57,0,0,1-.54-.34L178,152.76h-.1L176.1,164.7a.62.62,0,0,1-.57.47H172.7a.58.58,0,0,1-.6-.73Z" fill="#fff"/><path d="M200.88,143.72a.62.62,0,0,1,.6-.6h2.93a.63.63,0,0,1,.6.6v20.85a.62.62,0,0,1-.6.6h-2.93a.62.62,0,0,1-.6-.6Z" fill="#fff"/><path d="M213.92,146.9H209.1a.6.6,0,0,1-.6-.6v-2.58a.6.6,0,0,1,.6-.6h13.76a.6.6,0,0,1,.6.6v2.58a.6.6,0,0,1-.6.6H218v17.67a.61.61,0,0,1-.59.6h-2.93a.62.62,0,0,1-.6-.6Z" fill="#fff"/><path d="M67.16,194.85l9.8-21.2a.57.57,0,0,1,.53-.34h.32a.54.54,0,0,1,.53.34l9.7,21.2a.55.55,0,0,1-.53.82H84.77a.9.9,0,0,1-.91-.63l-1.55-3.4H72.9L71.35,195a1,1,0,0,1-.91.63H67.7A.56.56,0,0,1,67.16,194.85Zm13.61-6.71-3.15-6.93h-.09l-3.09,6.93Z" fill="#fff"/><path d="M90.81,174.22a.61.61,0,0,1,.6-.6h7.4a7,7,0,1,1,0,14H94.91v7.4a.62.62,0,0,1-.6.6h-2.9a.6.6,0,0,1-.6-.6Zm7.88,9.61a3.15,3.15,0,0,0,3.12-3.28,3,3,0,0,0-3.12-3.05H94.91v6.33Z" fill="#fff"/><path d="M109.36,174.22a.61.61,0,0,1,.6-.6h7.4a7,7,0,1,1,0,14h-3.93v7.4a.62.62,0,0,1-.6.6H110a.6.6,0,0,1-.6-.6Zm7.88,9.61a3.15,3.15,0,0,0,3.12-3.28,3,3,0,0,0-3.12-3.05h-3.78v6.33Z" fill="#fff"/><path d="M127.91,174.22a.6.6,0,0,1,.6-.6h2.9a.63.63,0,0,1,.6.6v17.67h8a.6.6,0,0,1,.6.6v2.58a.6.6,0,0,1-.6.6H128.51a.6.6,0,0,1-.6-.6Z" fill="#fff"/><path d="M143.82,174.22a.62.62,0,0,1,.59-.6h2.93a.62.62,0,0,1,.6.6v20.85a.62.62,0,0,1-.6.6h-2.93a.61.61,0,0,1-.59-.6Z" fill="#fff"/><path d="M163.37,173.31a10.66,10.66,0,0,1,7.62,2.93.58.58,0,0,1,0,.88l-1.92,2a.5.5,0,0,1-.79,0,7.49,7.49,0,0,0-4.85-1.85,7.31,7.31,0,0,0,0,14.61,7.59,7.59,0,0,0,4.82-1.8.58.58,0,0,1,.79,0l1.95,2a.6.6,0,0,1,0,.85,10.83,10.83,0,0,1-7.66,3.06,11.34,11.34,0,1,1,0-22.68Z" fill="#fff"/><path d="M172.35,194.85l9.79-21.2a.58.58,0,0,1,.54-.34H183a.55.55,0,0,1,.54.34l9.7,21.2a.56.56,0,0,1-.54.82H190A.9.9,0,0,1,189,195l-1.54-3.4h-9.42l-1.54,3.4a1,1,0,0,1-.92.63h-2.74A.55.55,0,0,1,172.35,194.85Zm13.6-6.71-3.15-6.93h-.09l-3.09,6.93Z" fill="#fff"/><path d="M199.56,177.4h-4.82a.6.6,0,0,1-.6-.6v-2.58a.6.6,0,0,1,.6-.6H208.5a.6.6,0,0,1,.6.6v2.58a.6.6,0,0,1-.6.6h-4.82v17.67a.62.62,0,0,1-.6.6h-2.92a.62.62,0,0,1-.6-.6Z" fill="#fff"/><path d="M212.6,174.22a.62.62,0,0,1,.59-.6h2.93a.62.62,0,0,1,.6.6v20.85a.62.62,0,0,1-.6.6h-2.93a.61.61,0,0,1-.59-.6Z" fill="#fff"/><path d="M232.09,173.31a11.34,11.34,0,1,1-11.31,11.37A11.32,11.32,0,0,1,232.09,173.31Zm0,18.58a7.25,7.25,0,1,0-7.21-7.21A7.25,7.25,0,0,0,232.09,191.89Z" fill="#fff"/><path d="M247.49,173.88a.59.59,0,0,1,.6-.57h.47a.7.7,0,0,1,.54.22l12.84,13.7H262v-13a.6.6,0,0,1,.6-.6h2.89a.62.62,0,0,1,.6.6v21.2a.6.6,0,0,1-.6.57h-.44a.67.67,0,0,1-.53-.23l-12.92-14.23h-.06v13.54a.6.6,0,0,1-.6.6h-2.86a.62.62,0,0,1-.6-.6Z" fill="#fff"/></g></svg>