<svg xmlns="http://www.w3.org/2000/svg" xmlns:xlink="http://www.w3.org/1999/xlink" width="380" height="400" viewBox="0 0 380 400"><defs><clipPath id="clip-path"><rect width="380" height="390" fill="none"/></clipPath><linearGradient id="linear-gradient" x1="-2.7" y1="160" x2="177.08" y2="160" gradientUnits="userSpaceOnUse"><stop offset="0" stop-color="#bdbec0" stop-opacity="0"/><stop offset="1" stop-color="#bdbec0" stop-opacity="0.5"/></linearGradient><linearGradient id="linear-gradient-2" x1="378.44" y1="169.57" x2="181.01" y2="169.57" gradientUnits="userSpaceOnUse"><stop offset="0" stop-color="#bdbec0" stop-opacity="0"/><stop offset="1" stop-color="#bdbec0" stop-opacity="0.3"/></linearGradient></defs><g id="Layer_2" data-name="Layer 2"><rect width="380" height="400" fill="#f5f5f4"/><g clip-path="url(#clip-path)"><polygon points="-2.7 0 -2.7 320.01 177.08 237.29 177.08 245.64 177.08 0 -2.7 0" fill="url(#linear-gradient)"/><polygon points="177.08 0 177.08 245.64 177.16 245.68 380.29 339.14 380.29 0 177.08 0" fill="url(#linear-gradient-2)"/><polyline points="-2.7 320.01 177.08 237.29 177.08 245.64 177.08 25.46" fill="none" stroke="#222" stroke-miterlimit="1" stroke-width="1.03"/><polyline points="177.08 0 177.08 245.64 177.16 245.68 380.29 339.14" fill="none" stroke="#222" stroke-miterlimit="1" stroke-width="1.03"/><polygon points="191.38 66.87 187.23 64.96 91.41 109.05 95.56 110.96 191.38 66.87" fill="#f8f8f9" stroke="#222" stroke-miterlimit="1" stroke-width="1.03"/><polygon points="319.8 121.67 191.83 62.79 187.17 64.94 315.17 123.83 319.8 121.67" fill="#f8f8f9" stroke="#222" stroke-miterlimit="1" stroke-width="1.03"/><polygon points="183.39 85.89 191.34 89.55 191.34 66.91 95.58 110.97 112.22 118.63 183.39 85.89" fill="#bdbec0" stroke="#222" stroke-miterlimit="1" stroke-width="1.03"/><polygon points="191.4 66.88 191.34 66.91 191.34 89.55 286.31 133.26 286.31 133.26 310.98 121.9 191.4 66.88" fill="#dededf" stroke="#222" stroke-miterlimit="1" stroke-width="1.03"/><polygon points="115.17 119.99 141.77 132.23 141.77 132.23 183.3 113.11 183.3 88.64 115.17 119.99" fill="#bdbec0" stroke="#222" stroke-miterlimit="1" stroke-width="1.03"/><polygon points="283.33 134.63 183.35 88.62 183.3 88.64 183.3 113.11 183.32 113.1 256.73 146.87 256.73 146.87 283.33 134.63" fill="#dededf" stroke="#222" stroke-miterlimit="1" stroke-width="1.03"/><polygon points="319.85 310.93 319.85 121.67 219.32 167.93 219.32 357.2 319.85 310.93" fill="#bdbec0" stroke="#222" stroke-miterlimit="1" stroke-width="1.03"/><polygon points="219.32 167.91 214.7 170.07 214.7 359.48 219.32 357.35 219.32 167.91" fill="#bdbec0" stroke="#222" stroke-miterlimit="1" stroke-width="1.03"/><polygon points="219.32 167.91 72.54 100.37 67.92 102.53 214.7 170.07 219.32 167.91" fill="#f8f8f9" stroke="#222" stroke-miterlimit="1" stroke-width="1.03"/><polygon points="315.13 123.81 310.98 121.9 215.16 165.99 219.31 167.9 315.13 123.81" fill="#f8f8f9" stroke="#222" stroke-miterlimit="1" stroke-width="1.03"/><polygon points="186.33 87.26 183.33 88.64 283.31 134.64 286.31 133.26 186.33 87.26" fill="#f2f2f2" stroke="#222" stroke-miterlimit="1" stroke-width="1.03"/><polygon points="183.39 85.89 112.22 118.63 115.17 119.99 186.34 87.24 183.39 85.89" fill="#f2f2f2" stroke="#222" stroke-miterlimit="1" stroke-width="1.03"/><polygon points="256.73 146.87 183.32 113.1 141.77 132.23 215.16 165.99 256.73 146.87" fill="#f2f2f2" stroke="#222" stroke-miterlimit="1" stroke-width="1.03"/><polygon points="177.08 245.64 177.08 245.72 177.16 245.68 177.08 245.64" fill="none" stroke="#ea0029" stroke-miterlimit="1" stroke-width="1.03"/><polygon points="215.16 165.99 232.41 158.06 197.91 158.06 215.16 165.99" fill="#e5e5e6" stroke="#222" stroke-miterlimit="1" stroke-width="1.03"/><polygon points="95.58 110.97 109.08 117.19 109.08 104.76 95.58 110.97" fill="#e5e5e6" stroke="#222" stroke-miterlimit="1" stroke-width="1.03"/><polygon points="191.4 66.88 191.34 66.91 174.53 74.64 208.27 74.64 191.4 66.88" fill="#e5e5e6" stroke="#222" stroke-miterlimit="1" stroke-width="1.03"/><rect x="174.53" y="74.64" width="33.74" height="2.98" fill="#dededf" stroke="#222" stroke-miterlimit="1" stroke-width="1.03"/><polygon points="296.72 115.34 296.72 128.47 310.98 121.9 296.72 115.34" fill="#e5e5e6" stroke="#222" stroke-miterlimit="1" stroke-width="1.03"/><polygon points="67.92 102.53 67.92 287.63 214.7 355.16 214.7 170.07 67.92 102.53" fill="#dededf" stroke="#222" stroke-miterlimit="1" stroke-width="1.03"/><polygon points="83.73 299.05 214.68 359.3 214.68 334.39 83.73 274.14 83.73 299.05" fill="#dededf" stroke="#222" stroke-miterlimit="1" stroke-width="1.03"/><polyline points="89.71 108.18 85.08 110.34 85.08 274.68" fill="none" stroke="#222" stroke-miterlimit="1" stroke-width="1.03"/><polygon points="211.46 212.03 206.83 214.19 206.83 331.97 211.46 329.85 211.46 212.03" fill="#bdbec0" stroke="#222" stroke-miterlimit="1" stroke-width="1.03"/><polygon points="206.83 214.19 82.41 156.94 82.41 274.73 206.83 331.97 206.83 214.19" fill="none" stroke="#ea0029" stroke-miterlimit="1" stroke-width="1.03"/><polygon points="206.83 214.19 82.41 156.94 82.41 274.73 206.83 331.97 206.83 214.19" fill="#e5e5e6"/><polygon points="206.83 214.19 82.41 156.94 82.41 274.73 206.83 331.97 206.83 214.19" fill="none" stroke="#222" stroke-miterlimit="1" stroke-width="1.03"/><polygon points="211.46 212.03 87.11 154.82 82.45 156.96 206.83 214.19 211.46 212.03" fill="#f8f8f9" stroke="#222" stroke-miterlimit="1" stroke-width="1.03"/><polyline points="149.16 183.35 144.5 185.5 144.49 185.51 144.49 303.3" fill="none" stroke="#222" stroke-miterlimit="1" stroke-width="1.03"/><polygon points="211.46 171.33 206.83 173.49 206.83 210.68 211.46 208.55 211.46 171.33" fill="#bdbec0" stroke="#222" stroke-miterlimit="1" stroke-width="1.03"/><polygon points="211.46 171.33 87.11 114.11 82.45 116.25 206.83 173.49 211.46 171.33" fill="#f8f8f9" stroke="#222" stroke-miterlimit="1" stroke-width="1.03"/><polygon points="206.83 173.49 82.41 116.23 82.41 153.43 206.83 210.68 206.83 173.49" fill="#e5e5e6" stroke="#222" stroke-miterlimit="1" stroke-width="1.03"/></g></g></svg>