<svg xmlns="http://www.w3.org/2000/svg" xmlns:xlink="http://www.w3.org/1999/xlink" width="380" height="400" viewBox="0 0 380 400"><defs><clipPath id="clip-path"><rect width="380" height="390" fill="none"/></clipPath><linearGradient id="linear-gradient" x1="350.81" y1="149.09" x2="176.24" y2="149.09" gradientUnits="userSpaceOnUse"><stop offset="0" stop-color="#bdbec0" stop-opacity="0"/><stop offset="1" stop-color="#bdbec0" stop-opacity="0.3"/></linearGradient><linearGradient id="linear-gradient-2" x1="-4.42" y1="143.74" x2="175.35" y2="143.74" gradientUnits="userSpaceOnUse"><stop offset="0" stop-color="#bdbec0" stop-opacity="0"/><stop offset="1" stop-color="#bdbec0" stop-opacity="0.5"/></linearGradient></defs><g id="Layer_2" data-name="Layer 2"><rect width="380" height="400" fill="#f5f5f4"/><g clip-path="url(#clip-path)"><polygon points="83.36 288.69 83.36 316.81 181.42 271.7 181.42 271.7 181.42 243.57 83.36 288.69" fill="#919b57" stroke="#222" stroke-miterlimit="1" stroke-width="1.03"/><polygon points="181.42 243.57 181.42 271.7 310.37 331.03 310.37 302.9 181.42 243.57" fill="#cad878" stroke="#222" stroke-miterlimit="1" stroke-width="1.03"/><polygon points="212.3 376.13 83.36 316.81 83.36 284.21 212.3 343.54 212.3 376.13" fill="#cad878" stroke="#222" stroke-miterlimit="1" stroke-width="1.03"/><line x1="83.36" y1="284.21" x2="212.3" y2="343.54" fill="#f8f8f9" stroke="#222" stroke-miterlimit="1" stroke-width="1.03"/><polygon points="217.21 341.27 88.28 281.95 83.36 284.21 212.3 343.54 217.21 341.27" fill="#d7e29a" stroke="#222" stroke-miterlimit="1" stroke-width="1.03"/><polygon points="305.43 296.16 212.3 339.01 212.3 339.01 217.21 341.27 212.3 343.54 310.35 298.42 305.43 296.16" fill="#d7e29a" stroke="#222" stroke-miterlimit="1" stroke-width="1.03"/><polygon points="186.27 241.33 181.42 243.56 300.58 298.39 305.43 296.16 186.27 241.33" fill="#d7e29a" stroke="#222" stroke-miterlimit="1" stroke-width="1.03"/><polygon points="186.27 241.33 181.42 239.1 88.28 281.95 93.14 284.19 186.27 241.33" fill="#d7e29a" stroke="#222" stroke-miterlimit="1" stroke-width="1.03"/><polygon points="212.3 343.54 310.37 298.41 310.37 331.01 212.3 376.13 212.3 343.54" fill="#919b57" stroke="#222" stroke-miterlimit="1" stroke-width="1.03"/><polygon points="175.35 -7.75 175.35 212.43 175.43 212.47 378.56 305.93 378.56 -7.75 175.35 -7.75" fill="url(#linear-gradient)"/><polygon points="-4.42 -7.75 -4.42 295.22 175.35 212.5 175.35 212.43 175.35 -7.75 -4.42 -7.75" fill="url(#linear-gradient-2)"/><polyline points="-4.42 295.22 175.35 212.5 175.35 212.43 175.35 -7.75" fill="none" stroke="#222" stroke-miterlimit="1" stroke-width="1.03"/><polyline points="175.35 -7.75 175.35 212.43 175.43 212.47 378.56 305.93" fill="none" stroke="#222" stroke-miterlimit="1" stroke-width="1.03"/><polygon points="189.65 33.66 185.5 31.75 89.68 75.84 93.83 77.75 189.65 33.66" fill="#f8f8f9" stroke="#222" stroke-miterlimit="1" stroke-width="1.03"/><polygon points="318.07 88.46 190.1 29.58 185.45 31.72 313.45 90.62 318.07 88.46" fill="#f8f8f9" stroke="#222" stroke-miterlimit="1" stroke-width="1.03"/><polygon points="181.66 52.67 189.61 56.33 189.61 33.7 93.85 77.76 110.5 85.42 181.66 52.67" fill="#bdbec0" stroke="#222" stroke-miterlimit="1" stroke-width="1.03"/><polygon points="189.68 33.67 189.61 33.7 189.61 56.33 284.58 100.04 284.58 100.04 309.26 88.69 189.68 33.67" fill="#dededf" stroke="#222" stroke-miterlimit="1" stroke-width="1.03"/><polygon points="113.45 86.78 140.05 99.01 140.05 99.01 181.57 79.89 181.57 55.43 113.45 86.78" fill="#bdbec0" stroke="#222" stroke-miterlimit="1" stroke-width="1.03"/><polygon points="281.61 101.41 181.62 55.41 181.57 55.43 181.57 79.89 181.59 79.89 255 113.66 255 113.66 281.61 101.41" fill="#dededf" stroke="#222" stroke-miterlimit="1" stroke-width="1.03"/><polygon points="66.19 69.32 66.19 233.65 212.97 301.19 212.97 136.85 66.19 69.32" fill="#dededf" stroke="#222" stroke-miterlimit="1" stroke-width="1.03"/><polygon points="217.6 134.7 212.97 136.85 212.97 301.19 217.6 299.06 217.6 134.7" fill="#bdbec0" stroke="#222" stroke-miterlimit="1" stroke-width="1.03"/><polygon points="217.6 134.7 70.82 67.16 66.19 69.32 212.97 136.85 217.6 134.7" fill="#f8f8f9" stroke="#222" stroke-miterlimit="1" stroke-width="1.03"/><polyline points="87.98 74.97 83.36 77.13 83.36 241.46" fill="none" stroke="#222" stroke-miterlimit="1" stroke-width="1.03"/><polygon points="313.41 90.6 309.26 88.69 213.44 132.78 217.59 134.69 313.41 90.6" fill="#f8f8f9" stroke="#222" stroke-miterlimit="1" stroke-width="1.03"/><polygon points="184.61 54.04 181.61 55.42 281.58 101.42 284.58 100.04 184.61 54.04" fill="#f2f2f2" stroke="#222" stroke-miterlimit="1" stroke-width="1.03"/><polygon points="181.66 52.67 110.5 85.42 113.45 86.78 184.62 54.03 181.66 52.67" fill="#f2f2f2" stroke="#222" stroke-miterlimit="1" stroke-width="1.03"/><polygon points="255 113.66 181.59 79.89 140.05 99.01 213.44 132.78 255 113.66" fill="#f2f2f2" stroke="#222" stroke-miterlimit="1" stroke-width="1.03"/><polygon points="209.73 178.82 205.11 180.98 205.11 298.76 209.73 296.63 209.73 178.82" fill="#bdbec0" stroke="#222" stroke-miterlimit="1" stroke-width="1.03"/><polygon points="209.73 178.82 85.39 121.6 80.73 123.75 205.11 180.98 209.73 178.82" fill="#f8f8f9" stroke="#222" stroke-miterlimit="1" stroke-width="1.03"/><line x1="147.43" y1="150.14" x2="142.77" y2="152.28" fill="none" stroke="#222" stroke-miterlimit="1" stroke-width="1.03"/><polygon points="205.11 180.98 80.68 123.73 80.68 241.51 205.11 298.76 205.11 180.98" fill="none" stroke="#ea0029" stroke-miterlimit="1" stroke-width="1.03"/><polygon points="205.11 180.98 80.68 123.73 80.68 241.51 205.11 298.76 205.11 180.98" fill="#e5e5e6"/><polygon points="205.11 180.98 80.68 123.73 80.68 241.51 205.11 298.76 205.11 180.98" fill="none" stroke="#222" stroke-miterlimit="1" stroke-width="1.03"/><line x1="142.77" y1="152.3" x2="142.77" y2="270.09" fill="none" stroke="#ea0029" stroke-miterlimit="1" stroke-width="1.03"/><line x1="142.77" y1="152.3" x2="142.77" y2="270.09" fill="none" stroke="#222" stroke-miterlimit="1" stroke-width="1.03"/><polygon points="213.44 132.78 230.69 124.84 196.19 124.84 213.44 132.78" fill="#e5e5e6" stroke="#222" stroke-miterlimit="1" stroke-width="1.03"/><polygon points="93.85 77.76 107.36 83.97 107.36 71.55 93.85 77.76" fill="#e5e5e6" stroke="#222" stroke-miterlimit="1" stroke-width="1.03"/><polygon points="189.68 33.67 189.61 33.7 172.81 41.43 206.55 41.43 189.68 33.67" fill="#e5e5e6" stroke="#222" stroke-miterlimit="1" stroke-width="1.03"/><rect x="172.8" y="41.43" width="33.74" height="2.98" fill="#dededf" stroke="#222" stroke-miterlimit="1" stroke-width="1.03"/><polygon points="295 82.13 295 95.25 309.26 88.69 295 82.13" fill="#e5e5e6" stroke="#222" stroke-miterlimit="1" stroke-width="1.03"/><polygon points="209.73 138.11 205.11 140.27 205.11 177.47 209.73 175.34 209.73 138.11" fill="#bdbec0" stroke="#222" stroke-miterlimit="1" stroke-width="1.03"/><polygon points="209.73 138.11 85.39 80.9 80.73 83.04 205.11 140.27 209.73 138.11" fill="#f8f8f9" stroke="#222" stroke-miterlimit="1" stroke-width="1.03"/><polygon points="205.11 140.27 80.68 83.02 80.68 120.22 205.11 177.47 205.11 140.27" fill="#e5e5e6" stroke="#222" stroke-miterlimit="1" stroke-width="1.03"/><polygon points="217.6 134.71 217.6 299.09 318.13 252.84 318.13 88.46 217.6 134.71" fill="#bdbec0" stroke="#222" stroke-miterlimit="1" stroke-width="1.03"/></g></g></svg>