<svg xmlns="http://www.w3.org/2000/svg" width="463.2" height="106.19" viewBox="0 0 463.2 106.19"><g id="Layer_2" data-name="Layer 2"><path d="M.18,93.81H10c3.54,0,4.1,1.17,4.1,3.47v1c0,1.73-1,2.2-2.25,2.32v0c1.69.31,2.09,1.19,2.09,2.3v3.13H12.36v-2.69c0-1.91-.93-2.14-2.44-2.14H1.84v4.83H.18Zm9.61,6c1.84,0,2.62-.49,2.62-1.77V97c0-1.37-.59-1.81-3-1.81H1.84v4.7Z" fill="#fff"/><path d="M21.65,93.81h12v1.35H23.31v3.91h10v1.35H23.31v4.28H33.74v1.35H21.65Z" fill="#fff"/><path d="M46.83,93.81h2.06l7.27,12.24H54.29l-1.52-2.59H43l-1.52,2.59H39.56Zm1,1.35-4.11,7H52Z" fill="#fff"/><path d="M62.61,93.81H72.5c4.11,0,5.23,1.29,5.23,6.12,0,4.5-1.12,6.12-5.28,6.12H62.61Zm13.46,5.53c0-3.53-1.1-4.18-3.13-4.18H64.27v9.54h8.4c2,0,3.4-.44,3.4-4.11Z" fill="#fff"/><path d="M91,100.88l-7-7.07h2.23l5.61,5.68,5.62-5.68H99.7l-7,7.07v5.17H91Z" fill="#fff"/><path d="M104.19,100.9h4.73v1.35h-4.73Z" fill="#fff"/><path d="M121.46,95.16h-6.19V93.81h14v1.35h-6.19v10.89h-1.66Z" fill="#fff"/><path d="M135.57,98.26c0-3.1,1.05-4.58,4.36-4.58h7c3.32,0,4.37,1.48,4.37,4.58v3.35c0,3.09-1,4.58-4.37,4.58h-7c-3.31,0-4.36-1.49-4.36-4.58Zm14.12-.63c0-2.13-1.29-2.6-2.87-2.6H140.1c-1.59,0-2.87.47-2.87,2.6v4.6c0,2.13,1.28,2.6,2.87,2.6h6.72c1.58,0,2.87-.47,2.87-2.6Z" fill="#fff"/><path d="M158.71,100.9h4.73v1.35h-4.73Z" fill="#fff"/><path d="M171.18,93.81h1.66v12.24h-1.66Z" fill="#fff"/><path d="M180.71,93.81h2.47l11.21,10.75V93.81h1.66v12.24h-2.47L182.37,95.3v10.75h-1.66Z" fill="#fff"/><path d="M203.56,102.2h1.56v.86c0,1.2.64,1.77,2.7,1.77H213c2.4,0,3.11-.5,3.11-2.26,0-1.54-.61-1.93-2.67-1.93h-3.14c-5.06,0-6.72-.3-6.72-3.55,0-2.79,1.66-3.41,5.08-3.41h3.56c4.11,0,5.14,1,5.14,3.23v.42h-1.55c0-2-.24-2.3-4.59-2.3h-1.75c-3.2,0-4.33.17-4.33,2.18,0,1.45.46,1.94,3,1.94h4.91c3.22,0,4.58.93,4.58,3v.8c0,3-2.47,3.23-4.92,3.23h-4.6c-2.42,0-4.55-.43-4.55-3.1Z" fill="#fff"/><path d="M230.08,95.16h-6.19V93.81h14v1.35h-6.18v10.89h-1.66Z" fill="#fff"/><path d="M248.86,93.81h2.06l7.27,12.24h-1.88l-1.52-2.59H245l-1.52,2.59h-1.88Zm1,1.35-4.11,7H254Z" fill="#fff"/><path d="M264.74,93.81h1.66V104.7h9.5v1.35H264.74Z" fill="#fff"/><path d="M282.35,93.81H284V104.7h9.5v1.35H282.35Z" fill="#fff"/><path d="M312.47,98.26c0-3.1,1-4.58,4.36-4.58h6.34c3,0,3.84,1.4,3.84,3v1h-1.46v-.56c0-2.08-1.28-2.18-2.8-2.18H317c-1.59,0-2.88.47-2.88,2.6v4.6c0,2.13,1.29,2.6,2.88,2.6h5.8c2.23,0,2.87-.47,2.87-2.13v-.76h1.56v.83c0,2.22-.71,3.42-4.15,3.42h-6.25c-3.32,0-4.36-1.49-4.36-4.58Z" fill="#fff"/><path d="M340.47,93.81h2.07l7.27,12.24h-1.88l-1.52-2.59H336.6l-1.52,2.59H333.2Zm1,1.35-4.1,7h8.21Z" fill="#fff"/><path d="M356.36,93.81h10.45c2.53,0,3.24,1.32,3.24,2.72v1c0,.88-.49,1.78-2,1.93v.07c1.31.06,2.45.55,2.45,2.41v1.46c0,1.71-1.52,2.6-3.55,2.6H356.36Zm12,2.64c0-1.12-1.23-1.29-1.74-1.29H358v3.91h8.56c.89,0,1.82-.29,1.82-1.51Zm.48,5.73c0-1.52-.85-1.76-2.35-1.76H358v4.28h8.76c1.54,0,2.1-.56,2.1-1.64Z" fill="#fff"/><path d="M378.19,93.81h1.66v12.24h-1.66Z" fill="#fff"/><path d="M387.72,93.81h2.47l11.21,10.75V93.81h1.66v12.24h-2.47L389.38,95.3v10.75h-1.66Z" fill="#fff"/><path d="M410.88,93.81h12v1.35H412.53v3.91h10v1.35h-10v4.28H423v1.35H410.88Z" fill="#fff"/><path d="M435,95.16h-6.19V93.81h14v1.35h-6.19v10.89H435Z" fill="#fff"/><path d="M449.14,102.2h1.55v.86c0,1.2.64,1.77,2.71,1.77h5.14c2.4,0,3.11-.5,3.11-2.26,0-1.54-.61-1.93-2.67-1.93h-3.15c-5.05,0-6.71-.3-6.71-3.55,0-2.79,1.66-3.41,5.07-3.41h3.57c4.11,0,5.14,1,5.14,3.23v.42h-1.56c0-2-.23-2.3-4.58-2.3H455c-3.19,0-4.32.17-4.32,2.18,0,1.45.45,1.94,3,1.94h4.9c3.23,0,4.58.93,4.58,3v.8c0,3-2.47,3.23-4.92,3.23h-4.6c-2.41,0-4.54-.43-4.54-3.1Z" fill="#fff"/><path d="M0,0V77.9H462.09V0ZM59.69,36c0,4.59-1,7.28-5.86,8.42v.09c3.12.57,5.72,1.94,5.72,7.56V57.9H49.06V53.79c0-3.59-1-4.77-4.3-4.77H28.27V57.9H17.78V23.69H49.44c8.08,0,10.25,4,10.25,10.16ZM104.83,57.9h-38V23.69h37.43v7.94H77.27v5.48h25.52V44.2H77.27v5.48h27.56ZM137.39,46V57.9H126.9V46L108,23.69h12.66l11.53,14,11.53-14h12.67ZM457,72.82H164.87V4.55L457,5.08Z" fill="#fff"/><path d="M44.67,32.2H28.27v8.31H45.61c2.84,0,3.88-1.13,3.88-3.59V35.79C49.49,32.76,48,32.2,44.67,32.2Z" fill="#fff"/><polygon points="177.65 57.9 193.81 42.03 210.21 57.9 216.73 57.9 197.88 39.8 214.61 23.69 208.23 23.69 193.81 37.44 179.59 23.69 173.02 23.69 189.75 39.8 170.9 57.9 177.65 57.9" fill="#fff"/><path d="M226.9,44.44h22.63c10.07,0,10.68-3.83,10.68-11.44,0-8-3.54-9.31-9.78-9.31H222.27V57.9h4.63Zm0-17h22.44c4,0,6.24,1,6.24,5.06v3.26c0,3.54-2.17,4.87-5.86,4.87H226.9Z" fill="#fff"/><path d="M271,44.39h22.59c4.2,0,6.8.66,6.8,6V57.9h4.35V49.16c0-3.12-1.13-5.57-5.86-6.43v-.09c3.54-.33,6.29-1.65,6.29-6.47V33.38c0-6.43-1.56-9.69-11.44-9.69H266.36V57.9H271Zm0-16.92h21.08c6.8,0,8.45,1.23,8.45,5.06v3.12c0,3.59-2.17,5-7.32,5H271Z" fill="#fff"/><polygon points="347.07 54.12 317.92 54.12 317.92 42.17 345.75 42.17 345.75 38.39 317.92 38.39 317.92 27.47 346.89 27.47 346.89 23.69 313.29 23.69 313.29 57.9 347.07 57.9 347.07 54.12" fill="#fff"/><path d="M372,42.78h8.79c5.77,0,7.47,1.09,7.47,5.39,0,4.91-2,6.33-8.7,6.33H365.18c-5.77,0-7.56-1.61-7.56-5V47.13h-4.35v2.5c0,7.47,6,8.65,12.71,8.65h12.85c6.86,0,13.76-.61,13.76-9V47c0-5.81-3.78-8.41-12.81-8.41H366.07c-7.23,0-8.5-1.37-8.5-5.43,0-5.63,3.16-6.1,12.1-6.1h4.91c12.15,0,12.71,1,12.81,6.43h4.35V32.34c0-6.1-2.89-9-14.37-9h-10c-9.55,0-14.18,1.75-14.18,9.55C353.22,41.93,357.85,42.78,372,42.78Z" fill="#fff"/><path d="M418.63,42.78h8.79c5.76,0,7.46,1.09,7.46,5.39,0,4.91-2,6.33-8.69,6.33H411.82c-5.76,0-7.56-1.61-7.56-5V47.13h-4.35v2.5c0,7.47,6,8.65,12.71,8.65h12.86c6.85,0,13.75-.61,13.75-9V47c0-5.81-3.78-8.41-12.81-8.41h-13.7c-7.23,0-8.51-1.37-8.51-5.43,0-5.63,3.17-6.1,12.1-6.1h4.92c12.14,0,12.71,1,12.8,6.43h4.35V32.34c0-6.1-2.88-9-14.37-9H414c-9.54,0-14.17,1.75-14.17,9.55C399.87,41.93,404.5,42.78,418.63,42.78Z" fill="#fff"/></g></svg>