<svg xmlns="http://www.w3.org/2000/svg" width="303" height="347" viewBox="0 0 303 347"><g id="Layer_2" data-name="Layer 2"><path d="M45.19,86.08,148.25,82v0a9.31,9.31,0,0,1,7,2.71c44.94,44.85,92.39,90,136,135.76a24.75,24.75,0,0,1-.45,35c-26.45,26.14-53.23,52-79.84,78-.29.28-.58.56-.86.85A24.57,24.57,0,0,1,191.68,342a25.31,25.31,0,0,1-16.41-6.65,22.7,22.7,0,0,1-1.85-1.82L41.29,199.12a9.34,9.34,0,0,1-3-6.66L36.24,95.81A9.35,9.35,0,0,1,45.19,86.08Z"/><path d="M148.64,91.28,110,92.83A147.34,147.34,0,0,1,100,120c.43.35.85.72,1.27,1.12a17.38,17.38,0,0,1,5.58,12.36,17.6,17.6,0,0,1-17.22,17.78,17.44,17.44,0,0,1-18-17,17,17,0,0,1,4.94-12.62,16.81,16.81,0,0,1,11-5.29,141.59,141.59,0,0,0,8.78-23l-50.74,2,2.06,96.86L180.89,327.85a15.45,15.45,0,0,0,22.12.35l81.1-79.26a15.42,15.42,0,0,0,.36-22.11L148.64,91.28Z" fill="#fff" stroke="#222" stroke-miterlimit="10" stroke-width="4"/><path d="M39.35,179.11C1.73,115-1.37,59.4,11.7,33.62,21.26,14.76,38.15,5.54,55.49,5a54.65,54.65,0,0,1,46,23.19c14,19.58,18.11,51-1.48,91.84.43.35.85.72,1.27,1.12a17.38,17.38,0,0,1,5.58,12.36,17.6,17.6,0,0,1-17.22,17.78,17.44,17.44,0,0,1-18-17,17,17,0,0,1,4.94-12.62,16.81,16.81,0,0,1,11-5.29c17.29-36,15.1-64.5,3.52-80.68A41.89,41.89,0,0,0,55.88,17.8c-12.9.41-25.52,7.38-32.75,21.65C11.69,62,13.22,102.08,45.32,162.8l-6,16.31Z" fill="#222" stroke="#222" stroke-miterlimit="10" stroke-width="2"/><path d="M180,270.29c-1.87,0-3-.11-3.64-2.6l-2.18-10.29c-.52-2.18.52-3.63,4.36-3.95A36.51,36.51,0,0,0,196.2,247l-20.26-20.26C162.43,232.57,146,238,132.3,224.26c-9.88-9.87-12.27-24.94.83-40.32l-10.29-10.29a2.77,2.77,0,0,1,0-3.94l1.35-1.35a2.79,2.79,0,0,1,3.95,0l10.39,10.4a54.21,54.21,0,0,1,25-11.53,3.6,3.6,0,0,1,4.05,2.8l1.87,10.19c.32,2-.51,3.42-2.07,3.73-4.89.94-11.54,2.4-17.46,6.24l19,19c12.77-5.3,31.58-11.63,45.19,2,11.33,11.32,12,27.32-1.14,42.08l10.81,10.8a2.72,2.72,0,0,1-.21,3.95c-1.25,1.25-3.33,3.12-5.09,1.35l-10.81-10.8C195.68,268.94,183.62,270.19,180,270.29Zm-35.33-74.81c-4.57,5.82-4.26,11.53-.21,15.58s9,3.85,17.15,1.36ZM202,226.23c-4.06-4-10.08-5.3-18.6-2.6l18.29,18.29C205.86,236.73,206.69,230.91,202,226.23Z" fill="#222"/></g></svg>