<svg xmlns="http://www.w3.org/2000/svg" width="94.54" height="60.49" viewBox="0 0 94.54 60.49"><g id="Layer_2" data-name="Layer 2"><path d="M86.08,0H6.68A9.65,9.65,0,0,0,4.91.17,7.16,7.16,0,0,0,3.2.74a5,5,0,0,0-1.43,1,5,5,0,0,0-1,1.43A5.74,5.74,0,0,0,.17,4.91C.06,5.48.06,6.11,0,6.68V53.81a9.65,9.65,0,0,0,.17,1.77,7.16,7.16,0,0,0,.57,1.71,6.52,6.52,0,0,0,1,1.43,5,5,0,0,0,1.43,1,5.23,5.23,0,0,0,1.71.57,15.14,15.14,0,0,0,1.77.17H87.85a8.94,8.94,0,0,0,1.78-.17,6.37,6.37,0,0,0,1.71-.57,6.77,6.77,0,0,0,1.43-1,5,5,0,0,0,1-1.43,5.74,5.74,0,0,0,.57-1.71c.11-.57.11-1.2.17-1.77V6.68a9.65,9.65,0,0,0-.17-1.77A7.16,7.16,0,0,0,93.8,3.2a6.52,6.52,0,0,0-1-1.43,5.16,5.16,0,0,0-1.43-1A5.84,5.84,0,0,0,89.63.17C89.05.06,88.43.06,87.85,0Z"/><path d="M86.08,2h1.77c.46,0,1,.06,1.49.11a3.18,3.18,0,0,1,1.14.35,3.54,3.54,0,0,1,.92.68,3.54,3.54,0,0,1,.68.92,3.18,3.18,0,0,1,.34,1.14,6.42,6.42,0,0,1,.12,1.48V53.81a13.18,13.18,0,0,1-.12,1.48,3.73,3.73,0,0,1-.34,1.15,3.49,3.49,0,0,1-.68.91,3.33,3.33,0,0,1-2.06,1,7,7,0,0,1-1.49.11H6.68a14.17,14.17,0,0,1-1.48-.11A2.73,2.73,0,0,1,4.06,58a3.36,3.36,0,0,1-.92-.69,3.49,3.49,0,0,1-.68-.91,3.25,3.25,0,0,1-.35-1.14A7.08,7.08,0,0,1,2,53.75V6.68c0-.45.06-1,.11-1.48a3.61,3.61,0,0,1,.35-1.14,3.54,3.54,0,0,1,.68-.92,3.54,3.54,0,0,1,.92-.68A3.18,3.18,0,0,1,5.2,2.11,7,7,0,0,1,6.68,2h79.4" fill="#fff"/><path d="M25.82,20.34A5.27,5.27,0,0,0,27,16.57a5.42,5.42,0,0,0-3.49,1.77,5,5,0,0,0-1.25,3.6,4.13,4.13,0,0,0,3.54-1.6M27,22.28c-1.94-.12-3.6,1.08-4.51,1.08s-2.35-1-3.89-1a5.72,5.72,0,0,0-4.85,3c-2.06,3.59-.57,8.91,1.48,11.82,1,1.43,2.17,3,3.71,3s2.06-1,3.83-1,2.29,1,3.89.91,2.62-1.43,3.6-2.91a11.54,11.54,0,0,0,1.59-3.31,5.17,5.17,0,0,1-.62-9.2A5.3,5.3,0,0,0,27,22.28"/><path d="M43.81,18.22A6.8,6.8,0,0,1,51,25.31a6.87,6.87,0,0,1-7.25,7.14H39.07v7.36H35.7V18.22ZM39.07,29.65H42.9c2.91,0,4.57-1.6,4.57-4.29s-1.66-4.28-4.57-4.28H39v8.57Zm12.74,5.77c0-2.75,2.11-4.46,5.88-4.69L62,30.5V29.3c0-1.77-1.2-2.8-3.15-2.8s-3,.92-3.31,2.29H52.5c.17-2.86,2.62-5,6.51-5s6.28,2,6.28,5.2V39.87H62.21V37.3h-.06a5.59,5.59,0,0,1-5,2.86c-3.2,0-5.37-1.94-5.37-4.74ZM62,34V32.73L58.15,33c-1.94.11-3,1-3,2.34s1.15,2.29,2.86,2.29A3.79,3.79,0,0,0,62,34ZM68.15,45.7V43.07a5.94,5.94,0,0,0,1,.06c1.48,0,2.28-.63,2.79-2.23,0-.06.29-1,.29-1L66.55,24.16H70L74,37h.06l4-12.86h3.42L75.63,40.79c-1.37,3.82-2.91,5-6.17,5-.23-.05-1-.05-1.31-.11Z"/></g></svg>