<svg xmlns="http://www.w3.org/2000/svg" width="124.57" height="40.32" viewBox="0 0 124.57 40.32"><g id="Layer_2" data-name="Layer 2"><g id="g4158"><polygon id="polygon9" points="53.98 39.73 43.89 39.73 50.2 0.71 60.29 0.71 53.98 39.73" fill="#00579d"/><path id="path11" d="M90.56,1.66a24.87,24.87,0,0,0-9-1.66c-10,0-17,5.31-17,12.91-.09,5.61,5,8.72,8.84,10.59s5.23,3.16,5.23,4.86c0,2.61-3.15,3.82-6.06,3.82A20,20,0,0,1,63,30.1l-1.33-.62-1.41,8.76a30.87,30.87,0,0,0,11.26,2.08C82.13,40.32,89,35.08,89.11,27c0-4.44-2.66-7.85-8.47-10.63-3.53-1.79-5.69-3-5.69-4.82,0-1.66,1.83-3.36,5.81-3.36a17.36,17.36,0,0,1,7.52,1.49l.91.42,1.37-8.43Z" fill="#00579d"/><path id="path13" d="M104,25.91,108,15c0,.08.83-2.28,1.33-3.74l.71,3.37S112,24,112.36,25.91ZM116.43.71h-7.81c-2.4,0-4.23.7-5.27,3.24l-15,35.78H99l2.12-5.85h13c.29,1.37,1.21,5.85,1.21,5.85h9.34l-8.14-39Z" fill="#00579d"/><path id="path15" d="M35.46.71,25.58,27.32l-1.08-5.4c-1.83-6.23-7.56-13-13.95-16.36L19.6,39.69H30.27L46.13.71Z" fill="#00579d"/><path id="path17" d="M16.4.71H.17L0,1.5c12.66,3.23,21.05,11,24.5,20.42L21,4C20.39,1.5,18.6.79,16.4.71Z" fill="#f8a41a"/></g></g></svg>