<svg xmlns="http://www.w3.org/2000/svg" width="177.49" height="47.3" viewBox="0 0 177.49 47.3"><g id="Layer_2" data-name="Layer 2"><path d="M21.3,0H7.49A1.91,1.91,0,0,0,5.6,1.62L0,37a1.17,1.17,0,0,0,1,1.32H7.74a1.92,1.92,0,0,0,1.9-1.62l1.5-9.55A1.92,1.92,0,0,1,13,25.56h4.37c9.09,0,14.34-4.4,15.71-13.12.62-3.82,0-6.81-1.76-8.91C29.4,1.22,25.92,0,21.3,0Zm1.59,12.93c-.75,4.95-4.54,4.95-8.2,4.95H12.61l1.46-9.25a1.15,1.15,0,0,1,1.14-1h.95c2.49,0,4.85,0,6.06,1.42.73.85,1,2.11.67,3.85Zm39.67-.16H56a1.15,1.15,0,0,0-1.13,1l-.3,1.85-.46-.67c-1.43-2.08-4.62-2.77-7.81-2.77-7.3,0-13.54,5.53-14.76,13.29A12.47,12.47,0,0,0,34,35.6C36,38,38.85,39,42.28,39a12.64,12.64,0,0,0,9.15-3.78L51.14,37a1.15,1.15,0,0,0,1,1.32l.18,0h6a1.91,1.91,0,0,0,1.89-1.62L63.7,14.1a1.14,1.14,0,0,0-1-1.31l-.19,0ZM53.35,25.64A7.38,7.38,0,0,1,45.89,32a5.61,5.61,0,0,1-4.44-1.78,5.62,5.62,0,0,1-1-4.65,7.41,7.41,0,0,1,7.41-6.36A5.56,5.56,0,0,1,52.23,21a5.71,5.71,0,0,1,1.12,4.68ZM97.77,12.77H91.13a1.94,1.94,0,0,0-1.59.84l-9.16,13.5-3.89-13a1.92,1.92,0,0,0-1.84-1.37H68.13A1.15,1.15,0,0,0,67,14.29l7.32,21.48-6.88,9.71a1.15,1.15,0,0,0,.27,1.6,1.17,1.17,0,0,0,.67.22h6.64a1.92,1.92,0,0,0,1.57-.83l22.1-31.89a1.15,1.15,0,0,0-.29-1.6,1.1,1.1,0,0,0-.66-.21Z" fill="#253b80"/><path d="M119.77,0H106a1.91,1.91,0,0,0-1.89,1.62L98.48,37a1.15,1.15,0,0,0,1,1.32h7.26A1.35,1.35,0,0,0,108,37.21l1.58-10a1.92,1.92,0,0,1,1.9-1.62h4.36c9.1,0,14.35-4.4,15.72-13.12.62-3.82,0-6.81-1.76-8.91-2-2.31-5.44-3.53-10.06-3.53Zm1.59,12.93c-.75,4.95-4.54,4.95-8.2,4.95h-2.08l1.46-9.25a1.15,1.15,0,0,1,1.14-1h.95c2.49,0,4.85,0,6.06,1.42.73.85,1,2.11.67,3.85ZM161,12.77h-6.61a1.15,1.15,0,0,0-1.13,1L153,15.59l-.47-.67c-1.43-2.08-4.62-2.77-7.8-2.77-7.31,0-13.55,5.53-14.76,13.29a12.47,12.47,0,0,0,2.46,10.16c2,2.37,4.9,3.36,8.33,3.36a12.67,12.67,0,0,0,9.15-3.78l-.3,1.83a1.15,1.15,0,0,0,1,1.32l.18,0h5.95a1.92,1.92,0,0,0,1.9-1.62l3.57-22.63a1.14,1.14,0,0,0-1-1.31l-.18,0Zm-9.21,12.87A7.38,7.38,0,0,1,144.36,32a5.59,5.59,0,0,1-4.44-1.78,5.62,5.62,0,0,1-1-4.65,7.4,7.4,0,0,1,7.41-6.36A5.57,5.57,0,0,1,150.7,21,5.71,5.71,0,0,1,151.82,25.64ZM168.83,1,163.16,37a1.15,1.15,0,0,0,1,1.32H170a1.92,1.92,0,0,0,1.9-1.62l5.58-35.4A1.15,1.15,0,0,0,176.52,0H170A1.13,1.13,0,0,0,168.83,1Z" fill="#1799d5"/></g></svg>