<svg xmlns="http://www.w3.org/2000/svg" xmlns:xlink="http://www.w3.org/1999/xlink" width="454" height="425" viewBox="0 0 454 425"><defs><linearGradient id="linear-gradient" x1="224.35" y1="271.85" x2="288.61" y2="271.85" gradientUnits="userSpaceOnUse"><stop offset="0" stop-color="#bc6d3e"/><stop offset="1" stop-color="#bc6d3e" stop-opacity="0"/></linearGradient></defs><g id="Layer_2" data-name="Layer 2"><polygon points="160.3 8.06 160.3 277.02 260.13 322.95 260.13 322.93 261.84 323.74 272.14 328.48 261.84 323.74 276.19 330.49 276.19 61.38 160.3 8.06" fill="#bdbec0" stroke="#222" stroke-miterlimit="1" stroke-width="1.45"/><polygon points="110.38 421.94 110.38 391.81 126.44 399.37 260.13 337.86 260.13 353.07 110.38 421.94" fill="#d1d1d3" stroke="#222" stroke-miterlimit="1" stroke-width="1.45"/><polygon points="15.53 74.58 15.53 343.72 160.3 277.13 160.3 7.96 15.53 74.58" fill="#d7d8d9" stroke="#222" stroke-miterlimit="1" stroke-width="1.45"/><polygon points="260.13 322.93 260.13 322.95 261.84 323.74 260.13 322.93" fill="none"/><polygon points="281.22 59.05 276.19 61.36 276.19 330.5 281.22 328.18 281.22 59.05" fill="#cad878" stroke="#222" stroke-miterlimit="1" stroke-width="1.45"/><polygon points="266.1 325.74 260.13 322.93 260.13 353.07 266.1 350.32 266.1 325.74" fill="#d1d1d3" stroke="#222" stroke-miterlimit="1" stroke-width="1.45"/><polygon points="160.26 7.98 165.28 5.67 281.22 59.02 276.2 61.33 160.26 7.98" fill="#eeefef" stroke="#222" stroke-miterlimit="1" stroke-width="1.45"/><polygon points="4.87 74.3 159.71 3.05 165.34 5.64 10.46 76.91 4.87 74.3" fill="#eeefef" stroke="#222" stroke-miterlimit="1" stroke-width="1.45"/><polygon points="48.99 89.97 169.97 34.3 170.03 34.33 170.03 63.93 170.01 63.92 81.18 104.78 81.18 104.78 48.99 89.97" fill="#d7d8d9" stroke="#222" stroke-miterlimit="1" stroke-width="1.45"/><polygon points="166.36 32.65 169.99 34.32 49.02 89.98 45.39 88.31 166.36 32.65" fill="#eeefef" stroke="#222" stroke-miterlimit="1" stroke-width="1.45"/><polygon points="276.19 324.87 160.42 271.46 10.67 340.33 126.44 393.75 276.19 324.87" fill="#eeefef" stroke="#222" stroke-miterlimit="1" stroke-width="1.45"/><polygon points="116.35 394.62 110.38 391.81 110.38 421.95 116.35 419.2 116.35 394.62" fill="#d1d1d3" stroke="#222" stroke-miterlimit="1" stroke-width="1.45"/><polygon points="293.05 202.59 298.64 205.21 298.64 414.06 293.05 411.49 293.05 202.59" fill="#bdbec0" stroke="#222" stroke-miterlimit="1" stroke-width="1.45"/><polygon points="293.05 202.59 443.51 133.36 449.14 135.96 298.64 205.21 293.05 202.59" fill="#eeefef" stroke="#222" stroke-miterlimit="1" stroke-width="1.45"/><polygon points="298.64 205.21 449.2 135.93 449.2 344.79 298.64 414.06 298.64 205.21" fill="none" stroke="#ea0029" stroke-miterlimit="1" stroke-width="1.24"/><polygon points="298.64 205.21 449.2 135.93 449.2 344.79 298.64 414.06 298.64 205.21" fill="#d1d1d3"/><polygon points="298.64 205.21 449.2 135.93 449.2 344.79 298.64 414.06 298.64 205.21" fill="none" stroke="#222" stroke-miterlimit="1" stroke-width="1.45"/><polygon points="293.05 134.38 298.64 136.99 298.64 197.06 293.05 194.49 293.05 134.38" fill="#bdbec0" stroke="#222" stroke-miterlimit="1" stroke-width="1.45"/><polygon points="293.05 134.38 443.51 65.15 449.14 67.74 298.64 136.99 293.05 134.38" fill="#eeefef" stroke="#222" stroke-miterlimit="1" stroke-width="1.45"/><polygon points="298.64 136.99 449.2 67.72 449.2 127.79 298.64 197.06 298.64 136.99" fill="#d1d1d3" stroke="#222" stroke-miterlimit="1" stroke-width="1.45"/><polygon points="131.48 391.46 131.48 397.06 276.19 330.47 276.19 324.87 131.48 391.46" fill="#cad878" stroke="#222" stroke-miterlimit="1" stroke-width="1.45"/><polygon points="233.23 214.11 160.42 180.53 10.67 249.41 83.48 282.99 233.23 214.11" fill="#eeefef" stroke="#222" stroke-miterlimit="1" stroke-width="1.45"/><polygon points="88.52 280.8 88.52 286.4 233.23 219.81 233.23 214.21 88.52 280.8" fill="#dededf" stroke="#222" stroke-miterlimit="1" stroke-width="1.45"/><polygon points="169.93 30.99 272.74 78.29 269.17 79.93 166.35 32.64 169.93 30.99" fill="#eeefef" stroke="#222" stroke-miterlimit="1" stroke-width="1.45"/><polygon points="269.17 79.93 269.17 116.04 272.74 114.39 272.74 78.29 269.17 79.93" fill="#d7d8d9" stroke="#222" stroke-miterlimit="1" stroke-width="1.45"/><polygon points="265.54 78.27 269.17 79.94 148.19 135.6 144.56 133.93 265.54 78.27" fill="#eeefef" stroke="#222" stroke-miterlimit="1" stroke-width="1.45"/><polygon points="170.03 34.33 170.03 63.93 233.32 93.09 265.5 78.29 170.03 34.33" fill="#bdbec0" stroke="#222" stroke-miterlimit="1" stroke-width="1.45"/><polygon points="269.17 79.94 148.18 135.61 148.18 171.7 269.17 116.04 269.17 79.94" fill="#d1d1d3" stroke="#222" stroke-miterlimit="1" stroke-width="1.45"/><polygon points="45.37 88.29 148.18 135.59 144.61 137.23 41.79 89.93 45.37 88.29" fill="#f2f2f2" stroke="#222" stroke-miterlimit="1" stroke-width="1.45"/><polygon points="144.61 137.23 144.61 173.33 148.18 171.69 148.18 135.59 144.61 137.23" fill="#d7d8d9" stroke="#222" stroke-miterlimit="1" stroke-width="1.45"/><polygon points="41.79 126.03 144.61 173.32 144.61 137.23 41.79 89.93 41.79 126.03" fill="#bdbec0" stroke="#222" stroke-miterlimit="1" stroke-width="1.45"/><polygon points="170.01 63.92 81.14 104.8 144.53 133.97 233.34 93.1 170.01 63.92" fill="#eeefef" stroke="#222" stroke-miterlimit="1" stroke-width="1.45"/><polygon points="316.8 146.79 316.8 170.56 431.05 117.99 431.05 94.22 316.8 146.79" fill="#c7c8c9" stroke="#222" stroke-miterlimit="1" stroke-width="1.45"/><polygon points="316.8 215 316.8 387.56 431.05 334.99 431.05 162.43 316.8 215" fill="none" stroke="#ea0029" stroke-miterlimit="1" stroke-width="1.24"/><polygon points="316.8 215 316.8 387.56 431.05 334.99 431.05 162.43 316.8 215" fill="#c7c8c9"/><polygon points="316.8 215 316.8 387.56 431.05 334.99 431.05 162.43 316.8 215" fill="none" stroke="#222" stroke-miterlimit="1" stroke-width="1.45"/><polygon points="431.05 94.22 428.63 95.33 428.63 116.73 431.05 117.84 431.05 94.22" fill="#bdbec0" stroke="#222" stroke-miterlimit="1" stroke-width="1.45"/><polygon points="428.58 116.71 316.8 168.14 316.8 170.56 431.05 117.99 431.05 117.84 428.58 116.71" fill="#f8f8f9" stroke="#222" stroke-miterlimit="1" stroke-width="1.45"/><polygon points="431.05 162.43 428.63 163.55 428.63 333.71 431.05 334.82 431.05 162.43" fill="none" stroke="#ea0029" stroke-miterlimit="1" stroke-width="1.24"/><polygon points="431.05 162.43 428.63 163.55 428.63 333.71 431.05 334.82 431.05 162.43" fill="#bdbec0"/><polygon points="431.05 162.43 428.63 163.55 428.63 333.71 431.05 334.82 431.05 162.43" fill="none" stroke="#222" stroke-miterlimit="1" stroke-width="1.45"/><polygon points="428.61 333.7 316.8 385.14 316.8 387.56 431.05 334.99 431.05 334.82 428.61 333.7" fill="none" stroke="#ea0029" stroke-miterlimit="1" stroke-width="1.24"/><polygon points="428.61 333.7 316.8 385.14 316.8 387.56 431.05 334.99 431.05 334.82 428.61 333.7" fill="#f8f8f9"/><polygon points="428.61 333.7 316.8 385.14 316.8 387.56 431.05 334.99 431.05 334.82 428.61 333.7" fill="none" stroke="#222" stroke-miterlimit="1" stroke-width="1.45"/><polyline points="431.05 136.14 431.05 76.07 425.43 73.5" fill="none" stroke="#222" stroke-miterlimit="1" stroke-width="1.45"/><polyline points="316.8 188.73 316.8 128.66 311.18 126.09" fill="none" stroke="#222" stroke-miterlimit="1" stroke-width="1.45"/><polyline points="316.8 405.71 316.8 196.86 311.18 194.29" fill="none" stroke="#222" stroke-miterlimit="1" stroke-width="1.45"/><polyline points="431.05 353.14 431.05 144.28 425.43 141.72" fill="none" stroke="#222" stroke-miterlimit="1" stroke-width="1.45"/><polygon points="276.19 66.95 276.19 61.35 131.48 127.93 131.48 133.53 276.19 66.95" fill="#cad878" stroke="#222" stroke-miterlimit="1" stroke-width="1.45"/><polygon points="111.67 118.81 131.48 127.93 276.2 61.33 256.39 52.22 111.67 118.81" fill="#eeefef" stroke="#222" stroke-miterlimit="1" stroke-width="1.45"/><polygon points="180.08 22.71 180.08 17.12 35.37 83.7 35.37 89.3 180.08 22.71" fill="#d1d1d3" stroke="#222" stroke-miterlimit="1" stroke-width="1.45"/><polygon points="15.56 74.58 35.37 83.69 180.09 17.1 160.28 7.98 15.56 74.58" fill="#eeefef" stroke="#222" stroke-miterlimit="1" stroke-width="1.45"/><polygon points="4.8 74.29 126.44 130.26 126.44 399.37 110.38 391.81 110.38 421.94 4.8 373.54 4.8 74.29" fill="#bdbec0" stroke="#222" stroke-miterlimit="1" stroke-width="1.45"/><polygon points="10.51 76.89 15.53 74.58 131.48 127.93 126.46 130.24 10.51 76.89" fill="#eeefef" stroke="#222" stroke-miterlimit="1" stroke-width="1.45"/><polygon points="131.48 127.93 126.44 130.24 126.44 399.38 131.48 397.06 131.48 127.93" fill="#cad878" stroke="#222" stroke-miterlimit="1" stroke-width="1.45"/><polygon points="246.4 267.96 246.4 280.91 224.19 244 246.4 227.34 246.4 240.29 351.98 288.7 351.98 316.37 246.4 267.96" fill="url(#linear-gradient)"/></g></svg>