<svg xmlns="http://www.w3.org/2000/svg" width="40.82" height="40.82" viewBox="0 0 40.82 40.82"><g id="Layer_2" data-name="Layer 2"><path d="M40.82,20.41A20.41,20.41,0,1,1,20.41,0,20.4,20.4,0,0,1,40.82,20.41Z" fill="#9a999a"/><path d="M21.22,10.06V15.5h5.11v3.38H21.22V24.4a8.93,8.93,0,0,0,.2,2.41,1.68,1.68,0,0,0,.74.85,3.14,3.14,0,0,0,1.63.42A5.86,5.86,0,0,0,27,27v3.4a13.5,13.5,0,0,1-2.49.91,11,11,0,0,1-2.42.26,8.26,8.26,0,0,1-2.61-.37,5.6,5.6,0,0,1-1.94-1.07,3.92,3.92,0,0,1-1.11-1.47,6.43,6.43,0,0,1-.31-2.25V18.88H13.78v-3A6.38,6.38,0,0,0,16,14.66a6,6,0,0,0,1.46-1.85,8.6,8.6,0,0,0,.75-2.75Z" fill="#fff"/></g></svg>