<svg xmlns="http://www.w3.org/2000/svg" width="500" height="370" viewBox="0 0 500 370"><g id="Layer_2" data-name="Layer 2"><rect width="500" height="370" fill="#fff"/><polygon points="83.45 140.08 136.04 178.84 83.45 217.6 83.45 140.08" fill="#cad878"/><polygon points="416.55 140.08 363.96 178.84 416.55 217.6 416.55 140.08" fill="#cad878"/><polygon points="361.89 300.33 238.44 214.67 238.44 28.89 361.89 114.55 361.89 300.33" fill="none" stroke="#222" stroke-miterlimit="1" stroke-width="3.46"/><polygon points="361.89 300.33 361.89 114.55 354.27 119.13 354.27 304.91 361.89 300.33" fill="#bdbec0" stroke="#222" stroke-miterlimit="1" stroke-width="3.46"/><polygon points="238.44 28.89 361.89 114.55 354.27 119.13 230.81 33.47 238.44 28.89" fill="#bdbec0" stroke="#222" stroke-miterlimit="1" stroke-width="3.46"/><polygon points="354.27 304.91 230.81 219.25 230.81 33.47 354.27 119.13 354.27 304.91" fill="#bdbec0" stroke="#222" stroke-miterlimit="1" stroke-width="3.46"/><polygon points="138.86 77.98 262.31 163.64 262.31 171.51 138.86 85.85 138.86 77.98" fill="#fff" stroke="#222" stroke-miterlimit="1" stroke-width="3.46"/><polygon points="146.48 81.27 269.93 166.93 354.27 127.01 230.81 41.35 146.48 81.27" fill="#fff" stroke="#222" stroke-miterlimit="1" stroke-width="3.46"/><polygon points="146.48 73.39 269.93 159.06 354.27 119.13 230.81 33.47 146.48 73.39" fill="#fff" stroke="#222" stroke-miterlimit="1" stroke-width="3.46"/><polygon points="354.27 119.13 269.93 159.06 269.93 166.93 354.27 127.01 354.27 119.13" fill="#fff" stroke="#222" stroke-miterlimit="1" stroke-width="3.46"/><polygon points="146.48 259.18 269.93 344.84 354.27 304.91 230.81 219.25 146.48 259.18" fill="#fff" stroke="#222" stroke-miterlimit="1" stroke-width="3.46"/><polygon points="146.48 251.3 269.93 336.96 354.27 297.04 230.81 211.38 146.48 251.3" fill="#fff" stroke="#222" stroke-miterlimit="1" stroke-width="3.46"/><polygon points="354.27 297.04 269.93 336.96 269.93 344.84 354.27 304.91 354.27 297.04" fill="#fff" stroke="#222" stroke-miterlimit="1" stroke-width="3.46"/><polygon points="269.93 344.84 146.48 259.18 146.48 73.39 269.93 159.06 269.93 344.84" fill="none" stroke="#222" stroke-miterlimit="1" stroke-width="3.46"/><polygon points="269.93 344.84 269.93 159.06 262.31 163.64 262.31 349.42 269.93 344.84" fill="#ceced0" stroke="#222" stroke-miterlimit="1" stroke-width="3.46"/><polygon points="146.48 73.39 269.93 159.06 262.31 163.64 138.86 77.98 146.48 73.39" fill="#dededf" stroke="#222" stroke-miterlimit="1" stroke-width="3.46"/><polygon points="262.31 349.42 138.86 263.76 138.86 77.98 262.31 163.64 262.31 349.42" fill="#bdbec0" stroke="#222" stroke-miterlimit="1" stroke-width="3.46"/></g></svg>