<svg xmlns="http://www.w3.org/2000/svg" width="330.37" height="75.87" viewBox="0 0 330.37 75.87"><g id="Layer_2" data-name="Layer 2"><path d="M.13,67h7c2.52,0,2.92.84,2.92,2.48v.71c0,1.23-.7,1.56-1.61,1.65v0c1.21.22,1.5.85,1.5,1.64v2.23H8.81V73.86c0-1.37-.67-1.53-1.74-1.53H1.31v3.44H.13ZM7,71.36c1.31,0,1.86-.35,1.86-1.27V69.3c0-1-.42-1.29-2.15-1.29H1.31v3.35Z" fill="#9a999a"/><path d="M15.44,67H24v1H16.62v2.78h7.1v1h-7.1v3h7.44v1H15.44Z" fill="#9a999a"/><path d="M33.4,67h1.47l5.18,8.73H38.71l-1.08-1.84h-7l-1.09,1.84H28.21Zm.73,1L31.2,73h5.86Z" fill="#9a999a"/><path d="M44.66,67h7.05c2.93,0,3.72.92,3.72,4.37,0,3.21-.79,4.36-3.76,4.36h-7ZM54.25,71c0-2.52-.78-3-2.23-3H45.84v6.8h6c1.43,0,2.42-.32,2.42-2.93Z" fill="#9a999a"/><path d="M64.92,72.08l-5-5h1.59l4,4.06,4-4.06H71.1l-5,5v3.69H64.92Z" fill="#9a999a"/><path d="M74.31,72.1h3.37v1H74.31Z" fill="#9a999a"/><path d="M86.63,68H82.22V67h10v1H87.81v7.76H86.63Z" fill="#9a999a"/><path d="M96.69,70.22c0-2.21.75-3.27,3.11-3.27h5c2.36,0,3.11,1.06,3.11,3.27V72.6c0,2.21-.75,3.27-3.11,3.27h-5c-2.36,0-3.11-1.06-3.11-3.27Zm10.07-.45c0-1.52-.92-1.86-2.05-1.86H99.92c-1.13,0-2,.34-2,1.86v3.28c0,1.52.91,1.85,2,1.85h4.79c1.13,0,2.05-.33,2.05-1.85Z" fill="#9a999a"/><path d="M113.19,72.1h3.38v1h-3.38Z" fill="#9a999a"/><path d="M122.09,67h1.18v8.73h-1.18Z" fill="#9a999a"/><path d="M128.89,67h1.76l8,7.67V67h1.18v8.73h-1.76l-8-7.66v7.66h-1.18Z" fill="#9a999a"/><path d="M145.19,73h1.1v.62c0,.85.46,1.26,1.93,1.26h3.67c1.71,0,2.22-.36,2.22-1.61s-.44-1.38-1.91-1.38H150c-3.61,0-4.79-.21-4.79-2.53,0-2,1.18-2.43,3.62-2.43h2.54c2.93,0,3.67.75,3.67,2.3v.3h-1.11c0-1.38-.17-1.64-3.27-1.64h-1.25c-2.28,0-3.09.12-3.09,1.56,0,1,.33,1.38,2.17,1.38H152c2.3,0,3.26.67,3.26,2.15v.57c0,2.14-1.76,2.3-3.5,2.3h-3.28c-1.73,0-3.24-.3-3.24-2.21Z" fill="#9a999a"/><path d="M164.1,68h-4.41V67h10v1h-4.41v7.76H164.1Z" fill="#9a999a"/><path d="M177.49,67H179l5.19,8.73h-1.34l-1.09-1.84h-7l-1.08,1.84h-1.34Zm.74,1L175.3,73h5.86Z" fill="#9a999a"/><path d="M188.82,67H190v7.77h6.78v1h-8Z" fill="#9a999a"/><path d="M201.38,67h1.18v7.77h6.78v1h-8Z" fill="#9a999a"/><path d="M222.86,70.22c0-2.21.75-3.27,3.11-3.27h4.52c2.15,0,2.74,1,2.74,2.17v.75h-1v-.4c0-1.48-.91-1.56-2-1.56h-4.1c-1.13,0-2.05.34-2.05,1.86v3.28c0,1.52.92,1.85,2.05,1.85h4.14c1.59,0,2.05-.33,2.05-1.51v-.55h1.1v.59c0,1.58-.5,2.44-2.95,2.44H226c-2.36,0-3.11-1.06-3.11-3.27Z" fill="#9a999a"/><path d="M242.84,67h1.47l5.18,8.73h-1.34l-1.08-1.84h-7L239,75.77h-1.34Zm.73,1L240.64,73h5.86Z" fill="#9a999a"/><path d="M254.17,67h7.45c1.8,0,2.31.95,2.31,1.95v.74c0,.63-.35,1.27-1.41,1.38v0c.93,0,1.75.39,1.75,1.72v1c0,1.21-1.09,1.85-2.53,1.85h-7.57Zm8.58,1.89c0-.8-.88-.92-1.24-.92h-6.16v2.78h6.1c.64,0,1.3-.2,1.3-1.07Zm.34,4.08c0-1.08-.61-1.25-1.68-1.25h-6.06v3h6.24c1.1,0,1.5-.4,1.5-1.17Z" fill="#9a999a"/><path d="M269.74,67h1.18v8.73h-1.18Z" fill="#9a999a"/><path d="M276.54,67h1.76l8,7.67V67h1.18v8.73h-1.76l-8-7.66v7.66h-1.18Z" fill="#9a999a"/><path d="M293.05,67h8.57v1h-7.39v2.78h7.1v1h-7.1v3h7.44v1h-8.62Z" fill="#9a999a"/><path d="M310.26,68h-4.41V67h10v1h-4.41v7.76h-1.19Z" fill="#9a999a"/><path d="M320.34,73h1.11v.62c0,.85.46,1.26,1.93,1.26H327c1.71,0,2.22-.36,2.22-1.61s-.43-1.38-1.9-1.38h-2.25c-3.6,0-4.78-.21-4.78-2.53,0-2,1.18-2.43,3.62-2.43h2.54c2.93,0,3.66.75,3.66,2.3v.3H329c0-1.38-.17-1.64-3.26-1.64h-1.26c-2.27,0-3.08.12-3.08,1.56,0,1,.32,1.38,2.17,1.38h3.49c2.31,0,3.27.67,3.27,2.15v.57c0,2.14-1.76,2.3-3.51,2.3h-3.28c-1.72,0-3.24-.3-3.24-2.21Z" fill="#9a999a"/><path d="M0,0V55.66H330.14V0ZM42.65,25.74c0,3.27-.75,5.2-4.19,6v.06c2.23.41,4.09,1.39,4.09,5.41v4.15h-7.5V38.43c0-2.56-.74-3.41-3.07-3.41H20.2v6.35H12.7V16.93H35.32c5.77,0,7.33,2.86,7.33,7.25ZM74.89,41.37H47.71V16.93H74.45V22.6H55.21v3.91H73.44v5.07H55.21v3.91H74.89Zm23.27-8.51v8.51h-7.5V32.86L77.12,16.93h9l8.24,10,8.24-10h9ZM326.51,52H117.79V3.25l208.72.38Z" fill="#9a999a"/><path d="M31.91,23H20.2v5.94H32.59c2,0,2.77-.81,2.77-2.56v-.81C35.36,23.41,34.27,23,31.91,23Z" fill="#9a999a"/><polygon points="126.92 41.37 138.47 30.02 150.19 41.37 154.85 41.37 141.37 28.44 153.33 16.93 148.77 16.93 138.47 26.75 128.31 16.93 123.61 16.93 135.57 28.44 122.1 41.37 126.92 41.37" fill="#9a999a"/><path d="M162.11,31.75h16.17c7.19,0,7.63-2.74,7.63-8.17,0-5.71-2.53-6.65-7-6.65H158.8V41.37h3.31Zm0-12.12h16c2.87,0,4.46.71,4.46,3.61v2.33c0,2.53-1.55,3.48-4.19,3.48h-16.3Z" fill="#9a999a"/><path d="M193.61,31.71h16.14c3,0,4.86.48,4.86,4.29v5.37h3.1V35.12c0-2.23-.81-4-4.18-4.59v-.07c2.53-.23,4.49-1.18,4.49-4.62v-2c0-4.6-1.12-6.92-8.17-6.92H190.3V41.37h3.31Zm0-12.08h15.06c4.86,0,6,.87,6,3.61v2.23c0,2.56-1.55,3.54-5.23,3.54H193.61Z" fill="#9a999a"/><polygon points="247.97 38.67 227.14 38.67 227.14 30.13 247.02 30.13 247.02 27.43 227.14 27.43 227.14 19.63 247.83 19.63 247.83 16.93 223.83 16.93 223.83 41.37 247.97 41.37 247.97 38.67" fill="#9a999a"/><path d="M265.76,30.57H272c4.12,0,5.34.77,5.34,3.84,0,3.52-1.42,4.53-6.22,4.53H260.9c-4.12,0-5.4-1.15-5.4-3.55V33.67h-3.11v1.79c0,5.34,4.26,6.18,9.08,6.18h9.19c4.89,0,9.82-.44,9.82-6.45V33.6c0-4.15-2.7-6-9.15-6h-9.79c-5.16,0-6.08-1-6.08-3.88,0-4,2.27-4.35,8.65-4.35h3.51c8.68,0,9.08.71,9.15,4.59h3.1V23.1c0-4.35-2.05-6.44-10.26-6.44h-7.12c-6.82,0-10.13,1.24-10.13,6.82C252.36,30,255.67,30.57,265.76,30.57Z" fill="#9a999a"/><path d="M299.09,30.57h6.28c4.12,0,5.33.77,5.33,3.84,0,3.52-1.42,4.53-6.21,4.53H294.23c-4.12,0-5.41-1.15-5.41-3.55V33.67h-3.1v1.79c0,5.34,4.25,6.18,9.08,6.18H304c4.9,0,9.83-.44,9.83-6.45V33.6c0-4.15-2.7-6-9.15-6h-9.79c-5.17,0-6.08-1-6.08-3.88,0-4,2.26-4.35,8.64-4.35h3.51c8.68,0,9.09.71,9.15,4.59h3.11V23.1c0-4.35-2.06-6.44-10.26-6.44h-7.13c-6.82,0-10.13,1.24-10.13,6.82C285.68,30,289,30.57,299.09,30.57Z" fill="#9a999a"/></g></svg>