<svg xmlns="http://www.w3.org/2000/svg" width="40.82" height="40.82" viewBox="0 0 40.82 40.82"><g id="Layer_2" data-name="Layer 2"><path d="M40.82,20.41A20.41,20.41,0,1,1,20.41,0,20.41,20.41,0,0,1,40.82,20.41Z" fill="#9a999a"/><path d="M18.12,7.15h-1.5l-1,3.9-1-3.9H13c.31.92.64,1.85.95,2.77a26.52,26.52,0,0,1,.91,3.13v4h1.48v-4Zm4,7.53V12.09a2.89,2.89,0,0,0-.42-1.74,2,2,0,0,0-3.12,0,2.82,2.82,0,0,0-.42,1.74v2.59a2.81,2.81,0,0,0,.42,1.73,2,2,0,0,0,3.12,0A2.88,2.88,0,0,0,22.09,14.68Zm-1.34.25c0,.68-.21,1-.64,1s-.64-.34-.64-1V11.82c0-.68.21-1,.64-1s.64.34.64,1ZM27,17.07V9.68H25.7v5.65c-.3.42-.58.62-.85.62s-.28-.1-.31-.31a2.53,2.53,0,0,1,0-.52V9.68H23.19v5.84a3.52,3.52,0,0,0,.12,1.1.82.82,0,0,0,.86.55,2.19,2.19,0,0,0,1.53-.91v.81Z" fill="#fff"/><path d="M31.37,26A23.53,23.53,0,0,1,31,31.21a2.78,2.78,0,0,1-2.37,2.16,74.92,74.92,0,0,1-8.21.3,74.92,74.92,0,0,1-8.21-.3,2.77,2.77,0,0,1-2.37-2.16A23.53,23.53,0,0,1,9.45,26a23.58,23.58,0,0,1,.39-5.18,2.77,2.77,0,0,1,2.37-2.15,72.43,72.43,0,0,1,8.2-.31,72.51,72.51,0,0,1,8.21.31A2.77,2.77,0,0,1,31,20.85,23.57,23.57,0,0,1,31.37,26Z" fill="#fff"/><path d="M15.71,22.35V21H11.09v1.39h1.55v8.43h1.48V22.35Zm2.67,8.43V30a2.15,2.15,0,0,1-1.51.9.83.83,0,0,1-.86-.55,3.87,3.87,0,0,1-.11-1.09V23.46h1.32v5.39a4.78,4.78,0,0,0,0,.51c0,.21.13.31.31.31s.55-.2.84-.62V23.46h1.33v7.32Zm5-2.09c0,.66-.19,1-.57,1a.93.93,0,0,1-.66-.32V24.89a.93.93,0,0,1,.66-.32c.38,0,.57.34.57,1Zm1.33-.11V25.67a5.55,5.55,0,0,0-.14-1.47,1,1,0,0,0-1.05-.83,1.79,1.79,0,0,0-1.37.8V21H20.86v9.82h1.32v-.71a1.78,1.78,0,0,0,1.37.81,1,1,0,0,0,1.05-.83A5.61,5.61,0,0,0,24.74,28.58Zm3.67-2.32H27.09v-.68c0-.67.22-1,.66-1s.66.34.66,1Zm1.33,2.18v-.2H28.39a8.93,8.93,0,0,1,0,.9.58.58,0,0,1-.59.53c-.46,0-.68-.34-.68-1v-1.3h2.65V25.85a2.89,2.89,0,0,0-.41-1.73,1.84,1.84,0,0,0-1.56-.75,1.88,1.88,0,0,0-1.59.75,2.82,2.82,0,0,0-.41,1.73v2.56a2.87,2.87,0,0,0,.42,1.72,1.91,1.91,0,0,0,1.61.75,1.82,1.82,0,0,0,1.6-.8,2,2,0,0,0,.31-.79C29.72,29.16,29.74,28.86,29.74,28.44Z" fill="#9a999a"/></g></svg>