<svg xmlns="http://www.w3.org/2000/svg" width="339" height="339" viewBox="0 0 339 339"><g id="Layer_2" data-name="Layer 2"><circle cx="168.83" cy="169.54" r="124.43" fill="#bc6d3e"/><circle cx="169.5" cy="169.5" r="164.62" fill="none" stroke="#bc6d3e" stroke-miterlimit="10" stroke-width="5"/><path d="M115.16,148.81a11.34,11.34,0,1,1-11.31,11.37A11.32,11.32,0,0,1,115.16,148.81Zm0,18.58a7.25,7.25,0,1,0-7.21-7.21A7.25,7.25,0,0,0,115.16,167.39Z" fill="#fff"/><path d="M136.23,149.72a.6.6,0,0,1,.6-.6h9a6.83,6.83,0,0,1,6.87,6.78,7,7,0,0,1-4.66,6.36l4.31,8a.59.59,0,0,1-.53.91h-3.31a.54.54,0,0,1-.5-.28l-4.19-8.35h-3.5v8a.62.62,0,0,1-.6.6h-2.89a.6.6,0,0,1-.6-.6Zm9.26,9.45a3.21,3.21,0,0,0,3.12-3.21,3.14,3.14,0,0,0-3.12-3.06h-5.14v6.27Z" fill="#fff"/><path d="M162.68,149.72a.6.6,0,0,1,.57-.6h7.46a11,11,0,1,1,0,22h-7.46a.59.59,0,0,1-.57-.6Zm7.65,17.61a7.2,7.2,0,0,0,0-14.39h-3.59v14.39Z" fill="#fff"/><path d="M191.5,149.72a.6.6,0,0,1,.6-.6h12.81a.6.6,0,0,1,.6.6v2.59a.59.59,0,0,1-.6.59h-9.32v5.17h7.78a.62.62,0,0,1,.6.6v2.61a.6.6,0,0,1-.6.6h-7.78v5.51h9.32a.6.6,0,0,1,.6.6v2.58a.6.6,0,0,1-.6.6H192.1a.6.6,0,0,1-.6-.6Z" fill="#fff"/><path d="M215.31,149.72a.6.6,0,0,1,.59-.6h9a6.83,6.83,0,0,1,6.87,6.78,7,7,0,0,1-4.66,6.36l4.31,8a.59.59,0,0,1-.53.91h-3.31a.56.56,0,0,1-.51-.28l-4.18-8.35h-3.5v8a.62.62,0,0,1-.6.6h-2.9a.59.59,0,0,1-.59-.6Zm9.26,9.45a3.21,3.21,0,0,0,3.11-3.21,3.14,3.14,0,0,0-3.11-3.06h-5.14v6.27Z" fill="#fff"/><path d="M119.3,179.88a.59.59,0,0,1,.6-.57h.47a.7.7,0,0,1,.54.22l12.85,13.7h.06v-13a.59.59,0,0,1,.6-.59h2.9a.61.61,0,0,1,.59.59v21.2a.59.59,0,0,1-.59.57h-.45a.71.71,0,0,1-.53-.22l-12.91-14.24h-.07v13.54a.59.59,0,0,1-.59.6H119.9a.62.62,0,0,1-.6-.6Z" fill="#fff"/><path d="M159,179.31a11.34,11.34,0,1,1-11.31,11.37A11.32,11.32,0,0,1,159,179.31Zm0,18.58a7.25,7.25,0,1,0-7.21-7.21A7.25,7.25,0,0,0,159,197.89Z" fill="#fff"/><path d="M178,180.38a.55.55,0,0,1,.57-.75h2.9a.66.66,0,0,1,.57.44l3.27,12.56h.13l5-13a.53.53,0,0,1,.54-.35h.57a.5.5,0,0,1,.53.35l5,13h.13l3.21-12.56a.64.64,0,0,1,.57-.44H204a.55.55,0,0,1,.57.75l-6,21.17a.61.61,0,0,1-.57.44h-.5a.54.54,0,0,1-.54-.35l-5.64-14.27h-.15l-5.58,14.27a.53.53,0,0,1-.53.35h-.51a.6.6,0,0,1-.56-.44Z" fill="#fff"/><path d="M215,196.79a2.6,2.6,0,1,1,0,5.2,2.6,2.6,0,0,1,0-5.2ZM214,192.6l-1.23-8.79v-3.59a.61.61,0,0,1,.6-.59h3.46a.61.61,0,0,1,.6.59v3.53l-1.23,8.85a.64.64,0,0,1-.6.51h-1A.64.64,0,0,1,214,192.6Z" fill="#fff"/></g></svg>