<svg xmlns="http://www.w3.org/2000/svg" width="1620" height="705.98" viewBox="0 0 1620 705.98"><g id="Layer_2" data-name="Layer 2"><path d="M495.74,437.73H478.63v42.48h11.1c6.61,0,30.62-.3,30.62-21.77C520.35,449.14,514.05,437.73,495.74,437.73Z" fill="#808041"/><polygon points="362.91 584.14 384.93 584.14 374 558.04 362.91 584.14" fill="#808041"/><polygon points="380.61 443.88 380.31 443.88 366.05 486.36 394.72 486.36 380.61 443.88" fill="#808041"/><polygon points="212.46 584.14 234.48 584.14 223.54 558.04 212.46 584.14" fill="#808041"/><path d="M0,0V706H1620V0ZM121.83,193.91c0-52.54,42.59-96.32,95.13-96.32,55.33,0,98.31,41.39,98.31,97.12,0,23.88-8.75,44.58-23.08,63.28l-37,39-56.12,50.15H315.27V397.3H125V347.15l101.49-94.33c17.91-16.72,35.83-34.23,35.83-60.5,0-24.68-17.52-43-42.2-43-31.44,0-47.36,26.27-45.37,55.33H121.83Zm18.16,229L164.46,475l24.32-52.09h18l-34.22,71V534H156.36V493.87l-34.53-71Zm38,185.52h-7.47L158,561.73l-12.55,46.66H138l-16.17-56.9h5.93l13.94,49.59,13.63-49.59h5.39L174.34,601l13.94-49.51h5.93Zm67,0-8.24-19.09H210.22L202,608.39h-6.16l24.56-56.9h6.31l24.41,56.9Zm50.66,0h-7.08L269.2,582.6h1.7c4,0,8.62.15,12.39-1.54a12.36,12.36,0,0,0,7.39-11.55,12.66,12.66,0,0,0-5.31-10.16c-3.77-2.7-8.39-2.7-12.86-2.7h-9v51.74h-5.69v-56.9h13.55c5.39,0,11.39.08,16.17,2.77a17.68,17.68,0,0,1,8.85,15.79,17.18,17.18,0,0,1-16.78,17.09Zm3.94-170.66H255.87v32.72h43.68v14.86H255.87v33.78h43.68V534H239.66V422.87h59.89Zm42.8,170.66h-7.08L315.94,582.6h1.69c4,0,8.63.15,12.4-1.54a12.36,12.36,0,0,0,7.39-11.55,12.69,12.69,0,0,0-5.31-10.16c-3.77-2.7-8.39-2.7-12.86-2.7h-9v51.74h-5.7v-56.9H318.1c5.38,0,11.39.08,16.16,2.77a17.67,17.67,0,0,1,8.86,15.79,17.19,17.19,0,0,1-16.79,17.09ZM330.92,534,373.1,422.87h14.56L429.84,534H412.58l-12.31-32.73H360.34L348,534Zm64.48,74.44-8.24-19.09H360.67l-8.23,19.09h-6.16l24.56-56.9h6.31l24.41,56.9Zm58.13,0h-5.7l-33.88-50v50h-5.69v-56.9H416l31.87,47.2v-47.2h5.7Zm38.11-51.74H478.71v51.74H473V556.65H459.92v-5.16h31.72ZM535.81,534H515.55l-36.62-51.49h-.3V534H462.41V422.87h34.38c15.61,0,23.71,3.75,29.57,9.31,7,6.75,10.21,17,10.21,26.26,0,29.42-24.62,34.08-31.83,34.08Zm-18,55.42v19h-5.7v-19l-19.78-37.88h6.23l16.4,32,16.4-32h6.24Zm-81.15-184.9c-50.95,0-98.71-42.59-100.7-94.34h52.94c3.18,23.49,21.09,42.59,45.77,42.59,29.85,0,50.55-22.29,50.15-52.14.4-27.06-22.68-49.75-49.75-49.75-15.52,0-29.06,7.56-38.61,19.5L349.11,257.2l27.86-154H509.91v50.15H416.37l-9.15,54.13a89.6,89.6,0,0,1,36.62-8.35c55.72,0,94.33,49.35,94.33,102.29C538.17,357.5,492.79,404.47,436.67,404.47Z" fill="#808041"/></g></svg>