<svg xmlns="http://www.w3.org/2000/svg" width="330" height="510" viewBox="0 0 330 510"><g id="Layer_2" data-name="Layer 2"><rect x="6.6" y="304.74" width="313" height="13" fill="none" stroke="#222" stroke-miterlimit="10" stroke-width="1.5"/><polygon points="322.6 3.39 319.6 3.39 6.6 3.39 3.6 3.39 3.6 6.74 6.6 6.74 6.6 16.39 319.6 16.39 319.6 6.74 322.6 6.74 322.6 3.39" fill="none" stroke="#222" stroke-miterlimit="10" stroke-width="1.5"/><rect x="-131.58" y="154.56" width="288.35" height="12" transform="translate(173.16 147.96) rotate(90)" fill="none" stroke="#222" stroke-miterlimit="10" stroke-width="1.5"/><rect x="87.6" y="16.39" width="58" height="116.75" fill="none" stroke="#222" stroke-miterlimit="10" stroke-width="1.5"/><rect x="18.6" y="16.39" width="69" height="116.75" fill="none" stroke="#222" stroke-miterlimit="10" stroke-width="1.5"/><rect x="18.6" y="133.14" width="69" height="171.6" fill="none" stroke="#222" stroke-miterlimit="10" stroke-width="1.5"/><rect x="145.6" y="16.39" width="58" height="116.75" fill="none" stroke="#222" stroke-miterlimit="10" stroke-width="1.5"/><rect x="203.6" y="16.39" width="58" height="116.75" fill="none" stroke="#222" stroke-miterlimit="10" stroke-width="1.5"/><rect x="261.6" y="16.39" width="58" height="116.75" fill="none" stroke="#222" stroke-miterlimit="10" stroke-width="1.5"/><rect x="87.6" y="190.99" width="58" height="113.75" fill="none" stroke="#222" stroke-miterlimit="10" stroke-width="1.5"/><rect x="145.6" y="190.99" width="58" height="113.75" fill="none" stroke="#222" stroke-miterlimit="10" stroke-width="1.5"/><rect x="203.6" y="190.99" width="58" height="113.75" fill="none" stroke="#222" stroke-miterlimit="10" stroke-width="1.5"/><rect x="261.6" y="190.99" width="58" height="113.75" fill="none" stroke="#222" stroke-miterlimit="10" stroke-width="1.5"/><rect x="87.6" y="190.99" width="58" height="22.84" fill="none" stroke="#222" stroke-miterlimit="10" stroke-width="1.5"/><rect x="145.6" y="190.99" width="58" height="22.84" fill="none" stroke="#222" stroke-miterlimit="10" stroke-width="1.5"/><rect x="87.6" y="213.83" width="58" height="37.71" fill="none" stroke="#222" stroke-miterlimit="10" stroke-width="1.5"/><rect x="145.6" y="213.83" width="58" height="37.71" fill="none" stroke="#222" stroke-miterlimit="10" stroke-width="1.5"/><rect x="203.6" y="190.99" width="58" height="22.84" fill="none" stroke="#222" stroke-miterlimit="10" stroke-width="1.5"/><rect x="261.6" y="190.99" width="58" height="22.84" fill="none" stroke="#222" stroke-miterlimit="10" stroke-width="1.5"/><rect x="87.6" y="177.99" width="238.8" height="13" fill="#cad878" stroke="#222" stroke-miterlimit="10" stroke-width="1.5"/><line x1="79.6" y1="109.14" x2="79.6" y2="125.94" fill="none" stroke="#222" stroke-miterlimit="10" stroke-width="2"/><line x1="137.6" y1="109.14" x2="137.6" y2="125.94" fill="none" stroke="#222" stroke-miterlimit="10" stroke-width="2"/><line x1="153.6" y1="109.14" x2="153.6" y2="125.94" fill="none" stroke="#222" stroke-miterlimit="10" stroke-width="2"/><line x1="253.6" y1="109.14" x2="253.6" y2="125.94" fill="none" stroke="#222" stroke-miterlimit="10" stroke-width="2"/><line x1="269.6" y1="109.14" x2="269.6" y2="125.94" fill="none" stroke="#222" stroke-miterlimit="10" stroke-width="2"/><line x1="253.6" y1="221.14" x2="253.6" y2="237.94" fill="none" stroke="#222" stroke-miterlimit="10" stroke-width="2"/><line x1="269.6" y1="221.14" x2="269.6" y2="237.94" fill="none" stroke="#222" stroke-miterlimit="10" stroke-width="2"/><line x1="79.6" y1="141.81" x2="79.6" y2="158.61" fill="none" stroke="#222" stroke-miterlimit="10" stroke-width="2"/><line x1="241" y1="202.41" x2="224.2" y2="202.41" fill="none" stroke="#222" stroke-miterlimit="10" stroke-width="2"/><line x1="183" y1="202.41" x2="166.2" y2="202.41" fill="none" stroke="#222" stroke-miterlimit="10" stroke-width="2"/><line x1="125" y1="202.41" x2="108.2" y2="202.41" fill="none" stroke="#222" stroke-miterlimit="10" stroke-width="2"/><line x1="183" y1="232.69" x2="166.2" y2="232.69" fill="none" stroke="#222" stroke-miterlimit="10" stroke-width="2"/><line x1="125" y1="232.69" x2="108.2" y2="232.69" fill="none" stroke="#222" stroke-miterlimit="10" stroke-width="2"/><line x1="183" y1="278.14" x2="166.2" y2="278.14" fill="none" stroke="#222" stroke-miterlimit="10" stroke-width="1.5"/><line x1="125" y1="278.14" x2="108.2" y2="278.14" fill="none" stroke="#222" stroke-miterlimit="10" stroke-width="2"/><line x1="299" y1="202.41" x2="282.2" y2="202.41" fill="none" stroke="#222" stroke-miterlimit="10" stroke-width="2"/><rect x="194" y="448.79" width="58" height="45" fill="none" stroke="#222" stroke-miterlimit="10" stroke-width="1.5"/><rect x="194" y="403.79" width="58" height="45" fill="none" stroke="#222" stroke-miterlimit="10" stroke-width="1.5"/><rect x="194" y="380.04" width="58" height="23.75" fill="none" stroke="#222" stroke-miterlimit="10" stroke-width="1.5"/><rect x="78" y="380.04" width="58" height="113.75" fill="none" stroke="#222" stroke-miterlimit="10" stroke-width="1.5"/><rect x="136" y="380.04" width="58" height="113.75" fill="none" stroke="#222" stroke-miterlimit="10" stroke-width="1.5"/><rect x="73" y="370.04" width="184" height="10" fill="#cad878" stroke="#222" stroke-miterlimit="10" stroke-width="1.5"/><line x1="128" y1="391.38" x2="128" y2="408.18" fill="none" stroke="#222" stroke-miterlimit="10" stroke-width="2"/><line x1="88" y1="493.79" x2="88" y2="506.61" fill="none" stroke="#222" stroke-miterlimit="10" stroke-width="2"/><line x1="242" y1="493.79" x2="242" y2="506.61" fill="none" stroke="#222" stroke-miterlimit="10" stroke-width="2"/><line x1="144" y1="391.38" x2="144" y2="408.18" fill="none" stroke="#222" stroke-miterlimit="10" stroke-width="2"/><line x1="231.4" y1="391.91" x2="214.6" y2="391.91" fill="none" stroke="#222" stroke-miterlimit="10" stroke-width="2"/><line x1="231.4" y1="426.29" x2="214.6" y2="426.29" fill="none" stroke="#222" stroke-miterlimit="10" stroke-width="2"/><line x1="231.4" y1="471.29" x2="214.6" y2="471.29" fill="none" stroke="#222" stroke-miterlimit="10" stroke-width="2"/></g></svg>