<?xml version="1.0" encoding="UTF-8"?>
<svg id="Layer_2" data-name="Layer 2" xmlns="http://www.w3.org/2000/svg" viewBox="0 0 332.8 513">
  <defs>
    <style>
      .cls-1, .cls-2 {
        fill: none;
      }

      .cls-1, .cls-2, .cls-3 {
        stroke: #222;
        stroke-miterlimit: 10;
      }

      .cls-1, .cls-3 {
        stroke-width: 1.5px;
      }

      .cls-2 {
        stroke-width: 2px;
      }

      .cls-3 {
        fill: #cad878;
      }
    </style>
  </defs>
  <g>
    <rect class="cls-1" x="8" y="306.24" width="313" height="13"/>
    <polygon class="cls-1" points="324 4.89 321 4.89 8 4.89 5 4.89 5 8.24 8 8.24 8 17.89 321 17.89 321 8.24 324 8.24 324 4.89"/>
    <rect class="cls-1" x="-130.18" y="156.06" width="288.35" height="12" transform="translate(176.06 148.06) rotate(90)"/>
    <rect class="cls-1" x="89" y="17.89" width="58" height="116.75"/>
    <rect class="cls-1" x="20" y="17.89" width="69" height="116.75"/>
    <rect class="cls-1" x="20" y="134.64" width="69" height="171.6"/>
    <rect class="cls-1" x="147" y="17.89" width="58" height="116.75"/>
    <rect class="cls-1" x="205" y="17.89" width="58" height="116.75"/>
    <rect class="cls-1" x="263" y="17.89" width="58" height="116.75"/>
    <rect class="cls-1" x="89" y="192.49" width="58" height="113.75"/>
    <rect class="cls-1" x="147" y="192.49" width="58" height="113.75"/>
    <rect class="cls-1" x="205" y="192.49" width="58" height="113.75"/>
    <rect class="cls-1" x="263" y="192.49" width="58" height="113.75"/>
    <rect class="cls-1" x="89" y="192.49" width="58" height="22.84"/>
    <rect class="cls-1" x="147" y="192.49" width="58" height="22.84"/>
    <rect class="cls-1" x="89" y="215.33" width="58" height="37.71"/>
    <rect class="cls-1" x="147" y="215.33" width="58" height="37.71"/>
    <rect class="cls-1" x="205" y="192.49" width="58" height="22.84"/>
    <rect class="cls-1" x="263" y="192.49" width="58" height="22.84"/>
    <rect class="cls-3" x="89" y="179.49" width="238.8" height="13"/>
    <line class="cls-2" x1="81" y1="110.64" x2="81" y2="127.44"/>
    <line class="cls-2" x1="139" y1="110.64" x2="139" y2="127.44"/>
    <line class="cls-2" x1="155" y1="110.64" x2="155" y2="127.44"/>
    <line class="cls-2" x1="255" y1="110.64" x2="255" y2="127.44"/>
    <line class="cls-2" x1="271" y1="110.64" x2="271" y2="127.44"/>
    <line class="cls-2" x1="255" y1="222.64" x2="255" y2="239.44"/>
    <line class="cls-2" x1="271" y1="222.64" x2="271" y2="239.44"/>
    <line class="cls-2" x1="81" y1="143.31" x2="81" y2="160.11"/>
    <g>
      <line class="cls-2" x1="242.4" y1="203.91" x2="225.6" y2="203.91"/>
      <line class="cls-2" x1="184.4" y1="203.91" x2="167.6" y2="203.91"/>
      <line class="cls-2" x1="126.4" y1="203.91" x2="109.6" y2="203.91"/>
      <line class="cls-2" x1="184.4" y1="234.19" x2="167.6" y2="234.19"/>
      <line class="cls-2" x1="126.4" y1="234.19" x2="109.6" y2="234.19"/>
      <line class="cls-1" x1="184.4" y1="279.64" x2="167.6" y2="279.64"/>
      <line class="cls-2" x1="126.4" y1="279.64" x2="109.6" y2="279.64"/>
      <line class="cls-2" x1="300.4" y1="203.91" x2="283.6" y2="203.91"/>
    </g>
  </g>
  <g>
    <rect class="cls-1" x="195.4" y="450.29" width="58" height="45"/>
    <rect class="cls-1" x="195.4" y="405.29" width="58" height="45"/>
    <rect class="cls-1" x="195.4" y="381.54" width="58" height="23.75"/>
    <rect class="cls-1" x="79.4" y="381.54" width="58" height="113.75"/>
    <rect class="cls-1" x="137.4" y="381.54" width="58" height="113.75"/>
    <rect class="cls-3" x="74.4" y="371.54" width="184" height="10"/>
    <line class="cls-2" x1="129.4" y1="392.88" x2="129.4" y2="409.68"/>
    <line class="cls-2" x1="89.4" y1="495.29" x2="89.4" y2="508.11"/>
    <line class="cls-2" x1="243.4" y1="495.29" x2="243.4" y2="508.11"/>
    <line class="cls-2" x1="145.4" y1="392.88" x2="145.4" y2="409.68"/>
    <line class="cls-2" x1="232.8" y1="393.41" x2="216" y2="393.41"/>
    <line class="cls-2" x1="232.8" y1="427.79" x2="216" y2="427.79"/>
    <line class="cls-2" x1="232.8" y1="472.79" x2="216" y2="472.79"/>
  </g>
</svg>