<?xml version="1.0" encoding="UTF-8"?>
<svg id="Layer_2" data-name="Layer 2" xmlns="http://www.w3.org/2000/svg" viewBox="0 0 332.8 324">
  <defs>
    <style>
      .cls-1, .cls-2 {
        fill: none;
      }

      .cls-1, .cls-2, .cls-3 {
        stroke: #222;
        stroke-miterlimit: 10;
      }

      .cls-1, .cls-3 {
        stroke-width: 1.5px;
      }

      .cls-2 {
        stroke-width: 2px;
      }

      .cls-3 {
        fill: #cad878;
      }
    </style>
  </defs>
  <rect class="cls-1" x="8" y="306.18" width="313" height="13"/>
  <polygon class="cls-3" points="324 4.82 321 4.82 8 4.82 5 4.82 5 8.18 8 8.18 8 17.82 321 17.82 321 8.18 324 8.18 324 4.82"/>
  <rect class="cls-1" x="-130.18" y="156" width="288.35" height="12" transform="translate(176 148) rotate(90)"/>
  <rect class="cls-1" x="89" y="17.82" width="58" height="116.75"/>
  <rect class="cls-1" x="20" y="17.82" width="69" height="116.75"/>
  <rect class="cls-1" x="20" y="134.58" width="69" height="171.6"/>
  <rect class="cls-1" x="147" y="17.82" width="58" height="116.75"/>
  <rect class="cls-1" x="205" y="17.82" width="58" height="116.75"/>
  <rect class="cls-1" x="263" y="17.82" width="58" height="116.75"/>
  <rect class="cls-1" x="89" y="192.42" width="58" height="113.75"/>
  <rect class="cls-1" x="147" y="192.42" width="58" height="113.75"/>
  <rect class="cls-1" x="205" y="192.42" width="58" height="113.75"/>
  <rect class="cls-1" x="263" y="192.42" width="58" height="113.75"/>
  <rect class="cls-1" x="89" y="192.42" width="58" height="22.84"/>
  <rect class="cls-1" x="147" y="192.42" width="58" height="22.84"/>
  <rect class="cls-1" x="89" y="215.27" width="58" height="37.71"/>
  <rect class="cls-1" x="147" y="215.27" width="58" height="37.71"/>
  <rect class="cls-1" x="205" y="192.42" width="58" height="22.84"/>
  <rect class="cls-1" x="263" y="192.42" width="58" height="22.84"/>
  <rect class="cls-1" x="89" y="179.42" width="238.8" height="13"/>
  <line class="cls-2" x1="81" y1="110.58" x2="81" y2="127.38"/>
  <line class="cls-2" x1="139" y1="110.58" x2="139" y2="127.38"/>
  <line class="cls-2" x1="155" y1="110.58" x2="155" y2="127.38"/>
  <line class="cls-2" x1="255" y1="110.58" x2="255" y2="127.38"/>
  <line class="cls-2" x1="271" y1="110.58" x2="271" y2="127.38"/>
  <line class="cls-2" x1="255" y1="222.58" x2="255" y2="239.38"/>
  <line class="cls-2" x1="271" y1="222.58" x2="271" y2="239.38"/>
  <line class="cls-2" x1="81" y1="143.25" x2="81" y2="160.05"/>
  <g>
    <line class="cls-2" x1="242.4" y1="203.85" x2="225.6" y2="203.85"/>
    <line class="cls-2" x1="184.4" y1="203.85" x2="167.6" y2="203.85"/>
    <line class="cls-2" x1="126.4" y1="203.85" x2="109.6" y2="203.85"/>
    <line class="cls-2" x1="184.4" y1="234.12" x2="167.6" y2="234.12"/>
    <line class="cls-2" x1="126.4" y1="234.12" x2="109.6" y2="234.12"/>
    <line class="cls-2" x1="184.4" y1="279.58" x2="167.6" y2="279.58"/>
    <line class="cls-2" x1="126.4" y1="279.58" x2="109.6" y2="279.58"/>
    <line class="cls-2" x1="300.4" y1="203.85" x2="283.6" y2="203.85"/>
  </g>
</svg>