<?xml version="1.0" encoding="UTF-8"?><svg xmlns="http://www.w3.org/2000/svg" viewBox="0 0 176.9 170.24"><defs><style>.e{fill:#fff;}</style></defs><g id="a"/><g id="b"><g id="c"><g><g id="d"><g><path class="e" d="M43.78,73.7c-6.15-4.45-12.48-9.47-17.93-14.22-1.04-.97-2.3-1.47-3.73-1.47-2.92,.01-4.57,.02-6.44,.02-1.3,0-2.7,0-4.7,0-4.33-.01-7.36-3.05-7.36-7.39,0-13.23,0-26.45,0-39.68,0-4.32,3-7.34,7.28-7.35,12.33,0,24.66,0,36.99,0,13.54,0,27.08,0,40.62,.01,4.28,0,7.27,3.03,7.27,7.36,0,13.23,0,26.45,0,39.68,0,.62-.04,1.11-.12,1.51-.7,3.56-3.54,5.86-7.24,5.86H40.06l3.72,15.68Z"/><path d="M47.69,7.2c13.6,0,27.21,0,40.82,.01,2.26,0,3.67,1.44,3.67,3.76,0,13.22,0,26.45,0,39.67,0,.51-.04,.75-.05,.82-.37,1.87-1.72,2.95-3.71,2.95-6.26,0-12.51,0-18.77,0H35.5l2.11,8.86,.36,1.53c-3.39-2.65-6.68-5.37-9.71-8.01-1.7-1.56-3.82-2.39-6.18-2.39-2.88,.01-4.52,.02-6.38,.02-1.3,0-2.71,0-4.72,0-2.32,0-3.77-1.46-3.77-3.79,0-13.22,0-26.45,0-39.67,0-2.31,1.41-3.75,3.69-3.75,12.27,0,24.53,0,36.79,0m0-7.2C35.42,0,23.16,0,10.89,0,4.63,.01,.01,4.67,0,10.95c0,13.23,0,26.45,0,39.68,0,6.3,4.66,10.97,10.95,10.98,2.02,0,3.43,0,4.73,0,1.87,0,3.52,0,6.41-.02h.01c.54,0,.92,.16,1.31,.53,6.35,5.54,13.39,11.01,19.4,15.31,.72,.7,1.5,1.15,2.51,1.15,.05,0,.1,0,.16,0,1.91-.09,2.94-1.49,2.36-3.29l-3.25-13.69c8.34,0,16.69,0,25.03,0,6.26,0,12.51,0,18.77,0,5.43,0,9.74-3.51,10.77-8.76,.14-.72,.18-1.47,.19-2.2,.01-13.23,.01-26.45,0-39.68,0-6.28-4.61-10.95-10.87-10.96-13.61,0-27.22-.01-40.82-.01h0Z"/></g></g><g><circle cx="30.54" cy="32.49" r="6.81"/><circle cx="49.69" cy="32.49" r="6.81"/><circle cx="68.84" cy="32.49" r="6.81"/></g><g><circle class="e" cx="135.28" cy="79.39" r="18.48"/><path d="M135.28,64.51c8.2,0,14.88,6.67,14.88,14.88s-6.67,14.88-14.88,14.88-14.88-6.67-14.88-14.88,6.67-14.88,14.88-14.88m0-7.2c-12.19,0-22.08,9.88-22.08,22.08s9.88,22.08,22.08,22.08,22.08-9.88,22.08-22.08-9.88-22.08-22.08-22.08h0Z"/></g><g><path class="e" d="M97.43,141.88c1.82-19.28,18.1-34.42,37.85-34.42s36.03,15.14,37.85,34.42H97.43Z"/><path d="M135.28,111.06c16.51,0,30.34,11.68,33.66,27.22H101.62c3.32-15.53,17.15-27.22,33.66-27.22m0-7.2c-22.98,0-41.62,18.63-41.62,41.62h83.23c0-22.98-18.63-41.62-41.62-41.62h0Z"/></g><g><path class="e" d="M79.65,114.89c-12.33,0-22.36-10.03-22.36-22.36s10.03-22.36,22.36-22.36,22.36,10.03,22.36,22.36-10.03,22.36-22.36,22.36Z"/><path d="M79.65,73.78c10.34,0,18.76,8.41,18.76,18.76s-8.41,18.76-18.76,18.76-18.76-8.41-18.76-18.76,8.41-18.76,18.76-18.76m0-7.2c-14.34,0-25.96,11.62-25.96,25.96s11.62,25.96,25.96,25.96,25.96-11.62,25.96-25.96-11.62-25.96-25.96-25.96h0Z"/></g><g><path class="e" d="M34.46,166.64c1.84-23.32,21.41-41.73,45.19-41.73s43.35,18.41,45.19,41.73H34.46Z"/><path d="M79.65,128.51c20.56,0,37.69,14.94,41.11,34.53H38.54c3.42-19.59,20.55-34.53,41.11-34.53m0-7.2c-27.02,0-48.93,21.91-48.93,48.93h97.87c0-27.02-21.91-48.93-48.93-48.93h0Z"/></g></g></g></g></svg>