<svg xmlns="http://www.w3.org/2000/svg" width="263" height="351" viewBox="0 0 263 351"><g id="Layer_2" data-name="Layer 2"><g id="L2wtN2"><path d="M106.82,346.11c-.59-.84-1.13-1.73-1.78-2.53q-16.91-20.7-33.81-41.41a2.09,2.09,0,0,0-2.38-.85q-27.12,5.22-54.25,10.32c-.38.07-.76.09-1.38.15l4.17-11.48q16-44.07,32.12-88.12c.54-1.46.31-2.29-1-2.88q-5.93-2.59-11.87-5.17c-2.64-1.14-5.36-2.13-8-3.38-6.09-2.94-9.11-7.82-8.51-14.63.35-3.91,1-7.8,1.54-11.7.33-2.47.65-5,.88-7.43a17.77,17.77,0,0,0-3.87-12.76c-2.39-3.12-5-6.1-7.38-9.23a60,60,0,0,1-4.57-6.74,12.9,12.9,0,0,1,.09-13.63A102.11,102.11,0,0,1,13,116c1.74-2.31,3.62-4.5,5.42-6.76,3.78-4.72,4.81-10.12,4-16-.75-5.32-1.63-10.64-2.2-16-.75-7.08,2.33-12.19,8.77-15.09,4.54-2,9.2-3.87,13.88-5.57A21.62,21.62,0,0,0,56.53,42.84c.64-1.83,1.34-3.64,2-5.45.91-2.32,1.72-4.69,2.78-6.94C65.44,21.69,70.45,19,80,20.37c4.39.63,8.77,1.36,13.16,2,5.8.87,11.16-.15,15.85-3.86,3.74-3,7.43-6,11.19-8.93a34.52,34.52,0,0,1,4-2.63c4.92-2.79,9.93-2.82,14.67.21,3.5,2.23,6.7,4.91,10,7.43,1.73,1.31,3.39,2.69,5.1,4,4.61,3.6,9.87,4.6,15.55,3.78,4.34-.63,8.65-1.43,13-1.95a37,37,0,0,1,7.14-.16,11.2,11.2,0,0,1,9.1,5.44,91.88,91.88,0,0,1,4.89,10c1.06,2.38,1.87,4.86,2.75,7.32a21.63,21.63,0,0,0,13.68,13.57c4.68,1.71,9.34,3.51,13.88,5.57,6.43,2.91,9.42,8,8.77,15.11-.24,2.54-.59,5.07-.92,7.59-.48,3.63-1.08,7.24-1.47,10.88a18,18,0,0,0,4.06,13.35c2.28,2.94,4.75,5.73,7,8.71a63,63,0,0,1,5,7.6,12.09,12.09,0,0,1,0,12.27,105.37,105.37,0,0,1-6.62,9.54c-1.68,2.28-3.54,4.42-5.31,6.63-3.79,4.72-4.78,10.13-4,16,.75,5.32,1.64,10.63,2.21,16,.74,7-2.3,12.08-8.65,15-4,1.83-8.12,3.24-12.15,5-2.6,1.1-5.1,2.41-7.65,3.62-1.2.57-1.44,1.28-.95,2.63q17.82,48.73,35.53,97.5c.25.67.48,1.35.81,2.3-2.86-.53-5.56-1-8.24-1.52q-23.87-4.53-47.73-9A2.26,2.26,0,0,0,192,302q-17.76,21.63-35.44,43.31a4.17,4.17,0,0,0-.41.85h-.33a2.52,2.52,0,0,0-.05-.48q-11.81-32.38-23.6-64.78c-.17-.44-.38-.87-.69-1.59-.32.78-.53,1.26-.71,1.75q-8.16,22.39-16.31,44.8c-2.46,6.76-4.87,13.53-7.29,20.3ZM186,227c.32-.33,1-.75,1.26-1.35,1.36-3.33,2.71-6.68,3.89-10.08,4.22-12.14,12.38-20.27,24.51-24.48,3.4-1.18,6.72-2.59,10.1-3.85a1.47,1.47,0,0,0,1.13-1.86c-.55-3.29-.93-6.6-1.56-9.86-2.47-12.77,0-24.24,8.7-34.17,2.41-2.76,4.6-5.71,7-8.52a1.81,1.81,0,0,0,0-2.72c-2.45-2.94-4.78-6-7.26-8.91A37.08,37.08,0,0,1,225,89.43c.63-3.66,1.13-7.35,1.77-11a2.26,2.26,0,0,0-1.72-3c-3.25-1.12-6.41-2.47-9.66-3.61q-18-6.33-24.27-24.29c-1.2-3.4-2.58-6.73-3.82-10.11a1.67,1.67,0,0,0-2.11-1.29c-4,.66-8,1.26-12,1.88-10.31,1.59-19.92,0-28.39-6.44-4-3-7.85-6.18-11.71-9.35a2.18,2.18,0,0,0-3.28,0c-3.42,2.84-6.89,5.61-10.36,8.38-8.83,7.06-18.89,9.16-29.92,7.34-3.72-.61-7.45-1.15-11.17-1.8a2.27,2.27,0,0,0-3,1.74c-1.1,3.19-2.45,6.3-3.56,9.49q-6.28,18.1-24.34,24.44c-3.4,1.19-6.74,2.56-10.11,3.82a1.67,1.67,0,0,0-1.29,2.11c.56,3.22.94,6.48,1.56,9.69,2.47,12.77,0,24.23-8.7,34.17-2.38,2.72-4.54,5.62-6.86,8.38a2,2,0,0,0,0,3c2.39,2.85,4.65,5.81,7.06,8.64C37.14,151,40,161.6,37.94,173.62c-.68,3.93-1.2,7.89-1.83,11.84a1.39,1.39,0,0,0,1,1.76c1.66.61,3.31,1.28,5,1.95,3.7,1.49,7.46,2.86,11.08,4.53,9.5,4.41,15.1,12.24,18.64,21.79,1.27,3.43,2.63,6.83,3.91,10.26a1.48,1.48,0,0,0,1.86,1.13c2.63-.44,5.27-.78,7.89-1.23,6-1,12-1.72,18-.7,6.83,1.16,12.53,4.61,17.82,8.88,2.9,2.33,5.8,4.66,8.65,7a2,2,0,0,0,3,0c2.85-2.39,5.81-4.65,8.64-7.06a37.17,37.17,0,0,1,32.1-8.71C177.62,225.77,181.52,226.33,186,227ZM37.81,290.83c.66-.05,1.1,0,1.52-.11,11.82-2.25,23.64-4.48,35.44-6.78a2.73,2.73,0,0,1,3.09,1.13q11.31,14,22.73,27.87c.31.38.66.72,1.08,1.18.31-.8.58-1.46.82-2.12q4.44-12.18,8.87-24.37,5.6-15.39,11.16-30.79c.2-.54.21-1.56-.13-1.83q-6.66-5.37-13.47-10.59a18.24,18.24,0,0,0-13.22-4c-2.37.22-4.73.58-7.09.84-4.9.53-9.79,1.26-14.7,1.46A10.41,10.41,0,0,1,65,238.37a78.37,78.37,0,0,1-4.15-7c-.26-.44-.45-.91-.8-1.62C52.56,250.31,45.21,270.48,37.81,290.83Zm123.47,23.38c.54-.63.9-1,1.25-1.46q11.39-13.94,22.74-27.87a2.44,2.44,0,0,1,2.69-1q15.1,2.94,30.23,5.79c2.25.43,4.51.82,7,1.28-7.46-20.5-14.8-40.68-22.27-61.19-.62,1.37-1.07,2.43-1.58,3.46-3.69,7.62-7.82,10.18-16.27,9.57a114.11,114.11,0,0,1-12.84-1.86c-7.59-1.41-14.4-.16-20.35,5.07-3.33,2.93-6.84,5.66-10.41,8.3-1.21.89-1.5,1.55-1,3,3.48,9.35,6.87,18.73,10.29,28.11S157.71,304.42,161.28,314.21Z"/><path d="M186,227c-4.43-.7-8.33-1.26-12.21-1.95a37.17,37.17,0,0,0-32.1,8.71c-2.83,2.41-5.79,4.67-8.64,7.06a2,2,0,0,1-3,0c-2.85-2.39-5.75-4.72-8.65-7-5.29-4.27-11-7.72-17.82-8.88-6.06-1-12.06-.33-18,.7-2.62.45-5.26.79-7.89,1.23a1.48,1.48,0,0,1-1.86-1.13c-1.28-3.43-2.64-6.83-3.91-10.26-3.54-9.55-9.14-17.38-18.64-21.79-3.62-1.67-7.38-3-11.08-4.53-1.64-.67-3.29-1.34-5-1.95a1.39,1.39,0,0,1-1-1.76c.63-4,1.15-7.91,1.83-11.84,2.08-12-.8-22.65-8.73-31.94-2.41-2.83-4.67-5.79-7.06-8.64a2,2,0,0,1,0-3c2.32-2.76,4.48-5.66,6.86-8.38,8.67-9.94,11.17-21.4,8.7-34.17-.62-3.21-1-6.47-1.56-9.69a1.67,1.67,0,0,1,1.29-2.11c3.37-1.26,6.71-2.63,10.11-3.82q18.09-6.34,24.34-24.44c1.11-3.19,2.46-6.3,3.56-9.49a2.27,2.27,0,0,1,3-1.74c3.72.65,7.45,1.19,11.17,1.8,11,1.82,21.09-.28,29.92-7.34,3.47-2.77,6.94-5.54,10.36-8.38a2.18,2.18,0,0,1,3.28,0c3.86,3.17,7.74,6.31,11.71,9.35,8.47,6.46,18.08,8,28.39,6.44,4-.62,8-1.22,12-1.88a1.67,1.67,0,0,1,2.11,1.29c1.24,3.38,2.62,6.71,3.82,10.11q6.3,18,24.27,24.29c3.25,1.14,6.41,2.49,9.66,3.61a2.26,2.26,0,0,1,1.72,3c-.64,3.66-1.14,7.35-1.77,11a37.08,37.08,0,0,0,8.63,31.8c2.48,2.92,4.81,6,7.26,8.91a1.81,1.81,0,0,1,0,2.72c-2.36,2.81-4.55,5.76-7,8.52-8.67,9.93-11.17,21.4-8.7,34.17.63,3.26,1,6.57,1.56,9.86a1.47,1.47,0,0,1-1.13,1.86c-3.38,1.26-6.7,2.67-10.1,3.85-12.13,4.21-20.29,12.34-24.51,24.48-1.18,3.4-2.53,6.75-3.89,10.08C187,226.28,186.27,226.7,186,227ZM131.5,211.47a80,80,0,1,0-80-80A80.1,80.1,0,0,0,131.5,211.47Z" fill="#fff"/><path d="M37.81,290.83c7.4-20.35,14.75-40.52,22.21-61,.35.71.54,1.18.8,1.62a78.37,78.37,0,0,0,4.15,7,10.41,10.41,0,0,0,8.94,4.38c4.91-.2,9.8-.93,14.7-1.46,2.36-.26,4.72-.62,7.09-.84a18.24,18.24,0,0,1,13.22,4q6.8,5.22,13.47,10.59c.34.27.33,1.29.13,1.83q-5.53,15.42-11.16,30.79-4.42,12.19-8.87,24.37c-.24.66-.51,1.32-.82,2.12-.42-.46-.77-.8-1.08-1.18Q89.21,299,77.86,285.07a2.73,2.73,0,0,0-3.09-1.13c-11.8,2.3-23.62,4.53-35.44,6.78C38.91,290.8,38.47,290.78,37.81,290.83Z" fill="#fff"/><path d="M161.28,314.21c-3.57-9.79-7-19.32-10.5-28.85S144,266.6,140.49,257.25c-.52-1.41-.23-2.07,1-3,3.57-2.64,7.08-5.37,10.41-8.3,6-5.23,12.76-6.48,20.35-5.07a114.11,114.11,0,0,0,12.84,1.86c8.45.61,12.58-1.95,16.27-9.57.51-1,1-2.09,1.58-3.46,7.47,20.51,14.81,40.69,22.27,61.19-2.49-.46-4.75-.85-7-1.28q-15.12-2.88-30.23-5.79a2.44,2.44,0,0,0-2.69,1q-11.33,14-22.74,27.87C162.18,313.17,161.82,313.58,161.28,314.21Z" fill="#fff"/><path d="M131.5,211.47a80,80,0,1,1,79.93-79.89A80.1,80.1,0,0,1,131.5,211.47Zm.07-143.95a64,64,0,1,0,63.91,64.08A64.07,64.07,0,0,0,131.57,67.52Z"/><path d="M131.57,67.52a64,64,0,1,1-64.08,63.91A64.08,64.08,0,0,1,131.57,67.52Zm-.06,16c-.46.88-.75,1.4-1,1.94q-6.19,12.7-12.37,25.43a2.68,2.68,0,0,1-2.28,1.78c-7.31,1-14.6,2.12-21.9,3.2l-7.77,1.17-.33.59a9.1,9.1,0,0,1,1.53,1q10.09,9.92,20.14,19.91a3.07,3.07,0,0,1,.87,2.25c-1.06,6.74-2.25,13.46-3.39,20.18-.57,3.37-1.12,6.73-1.73,10.36.82-.4,1.37-.64,1.89-.92q12.5-6.64,25-13.32a2.52,2.52,0,0,1,2.73,0c8.35,4.5,16.73,8.93,25.1,13.39.5.26,1,.49,1.76.86-1.74-10.26-3.39-20.16-5.12-30a2.91,2.91,0,0,1,.93-2.92c6.8-6.63,13.54-13.32,20.3-20,.36-.36.68-.76,1.18-1.32-.61-.12-.92-.19-1.23-.24-9.6-1.42-19.2-2.86-28.81-4.24a2.2,2.2,0,0,1-2-1.42c-1.8-3.81-3.68-7.58-5.52-11.37Z" fill="#fff"/><path d="M131.51,83.53l8,16.3c1.84,3.79,3.72,7.56,5.52,11.37a2.2,2.2,0,0,0,2,1.42c9.61,1.38,19.21,2.82,28.81,4.24.31,0,.62.12,1.23.24-.5.56-.82,1-1.18,1.32-6.76,6.67-13.5,13.36-20.3,20a2.91,2.91,0,0,0-.93,2.92c1.73,9.88,3.38,19.78,5.12,30-.75-.37-1.26-.6-1.76-.86-8.37-4.46-16.75-8.89-25.1-13.39a2.52,2.52,0,0,0-2.73,0q-12.45,6.7-25,13.32c-.52.28-1.07.52-1.89.92.61-3.63,1.16-7,1.73-10.36,1.14-6.72,2.33-13.44,3.39-20.18a3.07,3.07,0,0,0-.87-2.25q-10-10-20.14-19.91a9.1,9.1,0,0,0-1.53-1l.33-.59L94,115.88c7.3-1.08,14.59-2.2,21.9-3.2a2.68,2.68,0,0,0,2.28-1.78q6.15-12.74,12.37-25.43C130.76,84.93,131.05,84.41,131.51,83.53Z"/></g></g></svg>