<svg xmlns="http://www.w3.org/2000/svg" width="270" height="298" viewBox="0 0 270 298"><g id="Layer_2" data-name="Layer 2"><g id="jVQ7z7"><path d="M239,293.48H31c-9.51-4-11.79-7.44-11.79-18V149.31c-9.84-1.5-14.37-6.7-14.38-16.24q0-20,0-40c0-10.36,5.73-16.08,16-16.08H68.73A57.88,57.88,0,0,0,62,73.47C47,66.18,38.71,49.75,42,34A36.14,36.14,0,0,1,97.81,11c10.28,6.81,18.84,15.55,26.64,25,3.73,4.53,7.08,9.36,10.54,14,3.55-4.72,6.9-9.6,10.67-14.12,8.2-9.86,17-19.24,28.15-25.81,13.32-7.87,27-7.46,39.54,1.5s17.42,21.61,14.34,36.81C225,61.65,216.53,70.17,204.24,75.2c-1,.42-2,.87-3.06,1.3l.19.46h3.1c15.34,0,30.69,0,46,0,8,0,14.39,5.76,14.51,13.53.23,15,.19,30.06,0,45.09-.07,6.43-4.63,11.53-10.9,13.08-1.06.26-2.15.45-3.37.7V275.45C250.75,286,248.48,289.51,239,293.48ZM106.26,91.6V278.85h57.46V91.6ZM91.39,149.32H33.93V278.86H91.39Zm144.66,0H178.59V278.85h57.46ZM19.38,134.45H91.32V91.66H19.38Zm159.24-42.9v42.94h71.93V91.55Zm-36.44-22c2.24.48,3.87,1.14,5.5,1.12,6.56-.06,13.18.18,19.66-.64,12-1.52,23.87-4.4,34.79-9.9a21.57,21.57,0,1,0-21.4-37.38c-15.38,10.22-27.09,24-36,40C143.63,64.75,143.13,67,142.18,69.6Zm-14.38-.23a76.23,76.23,0,0,0-3.36-8.12c-7.08-12.69-16.59-23.41-27.54-32.87a55.28,55.28,0,0,0-8.43-6.1c-7.16-4.14-14.57-4.2-21.73-.09S55.8,32.72,55.92,41c.14,10.16,5.61,16.84,14.78,20.6a130.47,130.47,0,0,0,42.12,9.59A36.52,36.52,0,0,0,127.8,69.37Z"/><path d="M106.26,91.6h57.46V278.85H106.26Z" fill="#fff"/><path d="M91.39,149.32V278.86H33.93V149.32Z" fill="#fff"/><path d="M236.05,149.32V278.85H178.59V149.32Z" fill="#fff"/><path d="M19.38,134.45V91.66H91.32v42.79Z" fill="#fff"/><path d="M178.62,91.55h71.93v42.94H178.62Z" fill="#fff"/><path d="M142.18,69.6c.95-2.62,1.45-4.85,2.52-6.78,8.94-16.07,20.65-29.8,36-40a21.57,21.57,0,1,1,21.4,37.38c-10.92,5.5-22.74,8.38-34.79,9.9-6.48.82-13.1.58-19.66.64C146.05,70.74,144.42,70.08,142.18,69.6Z" fill="#fff"/><path d="M127.8,69.37a36.52,36.52,0,0,1-15,1.81A130.47,130.47,0,0,1,70.7,61.59C61.53,57.83,56.06,51.15,55.92,41c-.12-8.27,3.65-14.68,10.82-18.8s14.57-4.05,21.73.09a55.28,55.28,0,0,1,8.43,6.1c10.95,9.46,20.46,20.18,27.54,32.87A76.23,76.23,0,0,1,127.8,69.37Z" fill="#fff"/></g></g></svg>