<?xml version="1.0" encoding="UTF-8"?><svg xmlns="http://www.w3.org/2000/svg" viewBox="0 0 156.44 152.39"><defs><style>.d{fill:#cad878;}.d,.e{stroke-width:1.5px;}.d,.e,.f{stroke:#222;stroke-miterlimit:10;}.e,.f{fill:none;}.f{stroke-width:2px;}</style></defs><g id="a"/><g id="b"><g id="c"><g><rect class="e" x="2.19" y="145.4" width="150.24" height="6.24"/><polygon class="e" points="153.87 .75 152.43 .75 2.19 .75 .75 .75 .75 2.36 2.19 2.36 2.19 6.99 152.43 6.99 152.43 2.36 153.87 2.36 153.87 .75"/><rect class="e" x="-64.13" y="73.31" width="138.41" height="5.76" transform="translate(81.26 71.12) rotate(90)"/><rect class="d" x="41.07" y="6.99" width="27.84" height="56.04"/><rect class="e" x="7.95" y="6.99" width="33.12" height="56.04"/><rect class="e" x="7.95" y="63.03" width="33.12" height="82.37"/><rect class="d" x="68.91" y="6.99" width="27.84" height="56.04"/><rect class="d" x="96.75" y="6.99" width="27.84" height="56.04"/><rect class="d" x="124.59" y="6.99" width="27.84" height="56.04"/><rect class="e" x="41.07" y="90.8" width="27.84" height="54.6"/><rect class="e" x="68.91" y="90.8" width="27.84" height="54.6"/><rect class="e" x="96.75" y="90.8" width="27.84" height="54.6"/><rect class="e" x="124.59" y="90.8" width="27.84" height="54.6"/><rect class="e" x="41.07" y="90.8" width="27.84" height="10.97"/><rect class="e" x="68.91" y="90.8" width="27.84" height="10.97"/><rect class="e" x="41.07" y="101.76" width="27.84" height="18.1"/><rect class="e" x="68.91" y="101.76" width="27.84" height="18.1"/><rect class="e" x="96.75" y="90.8" width="27.84" height="10.97"/><rect class="e" x="124.59" y="90.8" width="27.84" height="10.97"/><rect class="e" x="41.07" y="84.56" width="114.62" height="6.24"/><line class="f" x1="37.23" y1="51.51" x2="37.23" y2="59.58"/><line class="f" x1="65.07" y1="51.51" x2="65.07" y2="59.58"/><line class="f" x1="72.75" y1="51.51" x2="72.75" y2="59.58"/><line class="f" x1="120.75" y1="51.51" x2="120.75" y2="59.58"/><line class="f" x1="128.43" y1="51.51" x2="128.43" y2="59.58"/><line class="f" x1="120.75" y1="105.27" x2="120.75" y2="113.33"/><line class="f" x1="128.43" y1="105.27" x2="128.43" y2="113.33"/><line class="f" x1="37.23" y1="67.19" x2="37.23" y2="75.26"/><g><line class="f" x1="114.7" y1="96.28" x2="106.64" y2="96.28"/><line class="f" x1="86.86" y1="96.28" x2="78.8" y2="96.28"/><line class="f" x1="59.02" y1="96.28" x2="50.96" y2="96.28"/><line class="f" x1="86.86" y1="110.81" x2="78.8" y2="110.81"/><line class="f" x1="59.02" y1="110.81" x2="50.96" y2="110.81"/><line class="e" x1="86.86" y1="132.63" x2="78.8" y2="132.63"/><line class="e" x1="59.02" y1="132.63" x2="50.96" y2="132.63"/><line class="f" x1="142.54" y1="96.28" x2="134.48" y2="96.28"/></g></g></g></g></svg>