<svg xmlns="http://www.w3.org/2000/svg" width="253.32" height="127.41" viewBox="0 0 253.32 127.41"><g id="Layer_2" data-name="Layer 2"><path d="M88.75,87.7H13V11.91H88.75V87.7ZM38.86,40H57.65c3.79,0,5.52.65,5.52,4.12v1.3c0,2.81-1.19,4.11-4.44,4.11H38.86V40Zm-12,29.45h12V59.22h18.9c3.73,0,4.92,1.36,4.92,5.47V69.4h12V62.74c0-6.44-3-8-6.55-8.66V54c5.52-1.3,6.71-4.38,6.71-9.63V41.85c0-7-2.49-11.64-11.74-11.64H26.84V69.4Z" fill="#fff"/><polygon points="104.86 30.21 147.73 30.21 147.73 39.3 116.87 39.3 116.87 45.58 146.11 45.58 146.11 53.7 116.87 53.7 116.87 59.98 148.44 59.98 148.44 69.4 104.86 69.4 104.86 30.21 104.86 30.21" fill="#fff"/><path d="M240.34,87.7H164.55V11.91h75.79V87.7ZM196.43,69.4h12V55.76l21.71-25.55H215.65l-13.21,16-13.21-16H174.72l21.71,25.55V69.4Z" fill="#fff"/><path d="M1.05,99.61V0h251.2V99.61Zm244.7-6.5V6.5H7.55V93.11Z" fill="#fff"/><path d="M0,111H2.15L7.81,125.2,13.36,111h2.82l5.48,14.24L27.39,111h2.15l-6.45,16.21H20.27L14.77,113,9.26,127.24H6.44Z" fill="#fff"/><path d="M31.39,116.92c0-4.09,1.39-6.06,5.78-6.06H46.5c4.38,0,5.77,2,5.77,6.06v4.43c0,4.09-1.39,6.06-5.77,6.06H37.17c-4.39,0-5.78-2-5.78-6.06Zm18.69-.83c0-2.82-1.7-3.44-3.81-3.44H37.39c-2.1,0-3.8.62-3.8,3.44v6.09c0,2.82,1.7,3.44,3.8,3.44h8.88c2.11,0,3.81-.62,3.81-3.44Z" fill="#fff"/><path d="M55.72,116.92c0-4.09,1.38-6.06,5.77-6.06h9.33c4.39,0,5.77,2,5.77,6.06v4.43c0,4.09-1.38,6.06-5.77,6.06H61.49c-4.39,0-5.77-2-5.77-6.06Zm18.68-.83c0-2.82-1.7-3.44-3.8-3.44H61.71c-2.1,0-3.8.62-3.8,3.44v6.09c0,2.82,1.7,3.44,3.8,3.44H70.6c2.1,0,3.8-.62,3.8-3.44Z" fill="#fff"/><path d="M80.33,111H93.42c5.44,0,6.92,1.71,6.92,8.11,0,6-1.48,8.1-7,8.1h-13Zm17.81,7.32c0-4.67-1.45-5.52-4.14-5.52H82.52v12.61H93.64c2.67,0,4.5-.58,4.5-5.43Z" fill="#fff"/><path d="M102.19,111h2.15L110,125.2,115.55,111h2.82l5.48,14.24L129.58,111h2.15l-6.45,16.21h-2.81L117,113l-5.5,14.24h-2.82Z" fill="#fff"/><path d="M133.59,116.92c0-4.09,1.38-6.06,5.77-6.06h9.33c4.39,0,5.77,2,5.77,6.06v4.43c0,4.09-1.38,6.06-5.77,6.06h-9.33c-4.39,0-5.77-2-5.77-6.06Zm18.68-.83c0-2.82-1.7-3.44-3.8-3.44h-8.89c-2.1,0-3.8.62-3.8,3.44v6.09c0,2.82,1.7,3.44,3.8,3.44h8.89c2.1,0,3.8-.62,3.8-3.44Z" fill="#fff"/><path d="M158.2,111h13c4.67,0,5.41,1.55,5.41,4.59v1.32c0,2.28-1.3,2.91-3,3.07v0c2.24.4,2.78,1.57,2.78,3v4.14h-2.06v-3.56c0-2.53-1.23-2.84-3.22-2.84h-10.7v6.4H158.2Zm12.71,8c2.44,0,3.47-.65,3.47-2.35v-1.48c0-1.81-.79-2.39-4-2.39h-10v6.22Z" fill="#fff"/><path d="M180.42,111h2.19v6.87h2.75L195.52,111h3.58l.05,0-11.61,7.74,12.66,8.37,0,0h-3.84l-11.12-7.55h-2.58v7.55h-2.19Z" fill="#fff"/><path d="M202.57,111h2.19v16.21h-2.19Z" fill="#fff"/><path d="M209,111h3.27l14.84,14.24V111h2.19v16.21H226L211.19,113v14.24H209Z" fill="#fff"/><path d="M253.32,121.44c0,4.41-1.43,6-5.48,6h-9c-4.39,0-5.77-2-5.77-6.06v-4.43c0-4.09,1.38-6.06,5.77-6.06h8.28c2.91,0,6,.71,6,4.45v.58H251c0-3-.92-3.24-6.33-3.24H239c-2.1,0-3.8.62-3.8,3.44v6.09c0,2.82,1.7,3.44,3.8,3.44h8.57c2.19,0,3.54-.76,3.54-3V121h-8.3V119.2h10.49Z" fill="#fff"/><path d="M0,111H2.15L7.81,125.2,13.36,111h2.82l5.48,14.24L27.39,111h2.15l-6.45,16.21H20.27L14.77,113,9.26,127.24H6.44Z" fill="#fff"/><path d="M31.39,116.92c0-4.09,1.39-6.06,5.78-6.06H46.5c4.38,0,5.77,2,5.77,6.06v4.43c0,4.09-1.39,6.06-5.77,6.06H37.17c-4.39,0-5.78-2-5.78-6.06Zm18.69-.83c0-2.82-1.7-3.44-3.81-3.44H37.39c-2.1,0-3.8.62-3.8,3.44v6.09c0,2.82,1.7,3.44,3.8,3.44h8.88c2.11,0,3.81-.62,3.81-3.44Z" fill="#fff"/><path d="M55.72,116.92c0-4.09,1.38-6.06,5.77-6.06h9.33c4.39,0,5.77,2,5.77,6.06v4.43c0,4.09-1.38,6.06-5.77,6.06H61.49c-4.39,0-5.77-2-5.77-6.06Zm18.68-.83c0-2.82-1.7-3.44-3.8-3.44H61.71c-2.1,0-3.8.62-3.8,3.44v6.09c0,2.82,1.7,3.44,3.8,3.44H70.6c2.1,0,3.8-.62,3.8-3.44Z" fill="#fff"/><path d="M80.33,111H93.42c5.44,0,6.92,1.71,6.92,8.11,0,6-1.48,8.1-7,8.1h-13Zm17.81,7.32c0-4.67-1.45-5.52-4.14-5.52H82.52v12.61H93.64c2.67,0,4.5-.58,4.5-5.43Z" fill="#fff"/><path d="M102.19,111h2.15L110,125.2,115.55,111h2.82l5.48,14.24L129.58,111h2.15l-6.45,16.21h-2.81L117,113l-5.5,14.24h-2.82Z" fill="#fff"/><path d="M133.59,116.92c0-4.09,1.38-6.06,5.77-6.06h9.33c4.39,0,5.77,2,5.77,6.06v4.43c0,4.09-1.38,6.06-5.77,6.06h-9.33c-4.39,0-5.77-2-5.77-6.06Zm18.68-.83c0-2.82-1.7-3.44-3.8-3.44h-8.89c-2.1,0-3.8.62-3.8,3.44v6.09c0,2.82,1.7,3.44,3.8,3.44h8.89c2.1,0,3.8-.62,3.8-3.44Z" fill="#fff"/><path d="M158.2,111h13c4.67,0,5.41,1.55,5.41,4.59v1.32c0,2.28-1.3,2.91-3,3.07v0c2.24.4,2.78,1.57,2.78,3v4.14h-2.06v-3.56c0-2.53-1.23-2.84-3.22-2.84h-10.7v6.4H158.2Zm12.71,8c2.44,0,3.47-.65,3.47-2.35v-1.48c0-1.81-.79-2.39-4-2.39h-10v6.22Z" fill="#fff"/><path d="M180.42,111h2.19v6.87h2.75L195.52,111h3.58l.05,0-11.61,7.74,12.66,8.37,0,0h-3.84l-11.12-7.55h-2.58v7.55h-2.19Z" fill="#fff"/><path d="M202.57,111h2.19v16.21h-2.19Z" fill="#fff"/><path d="M209,111h3.27l14.84,14.24V111h2.19v16.21H226L211.19,113v14.24H209Z" fill="#fff"/><path d="M253.32,121.44c0,4.41-1.43,6-5.48,6h-9c-4.39,0-5.77-2-5.77-6.06v-4.43c0-4.09,1.38-6.06,5.77-6.06h8.28c2.91,0,6,.71,6,4.45v.58H251c0-3-.92-3.24-6.33-3.24H239c-2.1,0-3.8.62-3.8,3.44v6.09c0,2.82,1.7,3.44,3.8,3.44h8.57c2.19,0,3.54-.76,3.54-3V121h-8.3V119.2h10.49Z" fill="#fff"/><path d="M0,111H2.15L7.81,125.2,13.36,111h2.82l5.48,14.24L27.39,111h2.15l-6.45,16.21H20.27L14.77,113,9.26,127.24H6.44Z" fill="#fff"/><path d="M31.39,116.92c0-4.09,1.39-6.06,5.78-6.06H46.5c4.38,0,5.77,2,5.77,6.06v4.43c0,4.09-1.39,6.06-5.77,6.06H37.17c-4.39,0-5.78-2-5.78-6.06Zm18.69-.83c0-2.82-1.7-3.44-3.81-3.44H37.39c-2.1,0-3.8.62-3.8,3.44v6.09c0,2.82,1.7,3.44,3.8,3.44h8.88c2.11,0,3.81-.62,3.81-3.44Z" fill="#fff"/><path d="M55.72,116.92c0-4.09,1.38-6.06,5.77-6.06h9.33c4.39,0,5.77,2,5.77,6.06v4.43c0,4.09-1.38,6.06-5.77,6.06H61.49c-4.39,0-5.77-2-5.77-6.06Zm18.68-.83c0-2.82-1.7-3.44-3.8-3.44H61.71c-2.1,0-3.8.62-3.8,3.44v6.09c0,2.82,1.7,3.44,3.8,3.44H70.6c2.1,0,3.8-.62,3.8-3.44Z" fill="#fff"/><path d="M80.33,111H93.42c5.44,0,6.92,1.71,6.92,8.11,0,6-1.48,8.1-7,8.1h-13Zm17.81,7.32c0-4.67-1.45-5.52-4.14-5.52H82.52v12.61H93.64c2.67,0,4.5-.58,4.5-5.43Z" fill="#fff"/><path d="M102.19,111h2.15L110,125.2,115.55,111h2.82l5.48,14.24L129.58,111h2.15l-6.45,16.21h-2.81L117,113l-5.5,14.24h-2.82Z" fill="#fff"/><path d="M133.59,116.92c0-4.09,1.38-6.06,5.77-6.06h9.33c4.39,0,5.77,2,5.77,6.06v4.43c0,4.09-1.38,6.06-5.77,6.06h-9.33c-4.39,0-5.77-2-5.77-6.06Zm18.68-.83c0-2.82-1.7-3.44-3.8-3.44h-8.89c-2.1,0-3.8.62-3.8,3.44v6.09c0,2.82,1.7,3.44,3.8,3.44h8.89c2.1,0,3.8-.62,3.8-3.44Z" fill="#fff"/><path d="M158.2,111h13c4.67,0,5.41,1.55,5.41,4.59v1.32c0,2.28-1.3,2.91-3,3.07v0c2.24.4,2.78,1.57,2.78,3v4.14h-2.06v-3.56c0-2.53-1.23-2.84-3.22-2.84h-10.7v6.4H158.2Zm12.71,8c2.44,0,3.47-.65,3.47-2.35v-1.48c0-1.81-.79-2.39-4-2.39h-10v6.22Z" fill="#fff"/><path d="M180.42,111h2.19v6.87h2.75L195.52,111h3.58l.05,0-11.61,7.74,12.66,8.37,0,0h-3.84l-11.12-7.55h-2.58v7.55h-2.19Z" fill="#fff"/><path d="M202.57,111h2.19v16.21h-2.19Z" fill="#fff"/><path d="M209,111h3.27l14.84,14.24V111h2.19v16.21H226L211.19,113v14.24H209Z" fill="#fff"/><path d="M253.32,121.44c0,4.41-1.43,6-5.48,6h-9c-4.39,0-5.77-2-5.77-6.06v-4.43c0-4.09,1.38-6.06,5.77-6.06h8.28c2.91,0,6,.71,6,4.45v.58H251c0-3-.92-3.24-6.33-3.24H239c-2.1,0-3.8.62-3.8,3.44v6.09c0,2.82,1.7,3.44,3.8,3.44h8.57c2.19,0,3.54-.76,3.54-3V121h-8.3V119.2h10.49Z" fill="#fff"/><path d="M0,111H2.15L7.81,125.2,13.36,111h2.82l5.48,14.24L27.39,111h2.15l-6.45,16.21H20.27L14.77,113,9.26,127.24H6.44Z" fill="#fff"/><path d="M31.39,116.92c0-4.09,1.39-6.06,5.78-6.06H46.5c4.38,0,5.77,2,5.77,6.06v4.43c0,4.09-1.39,6.06-5.77,6.06H37.17c-4.39,0-5.78-2-5.78-6.06Zm18.69-.83c0-2.82-1.7-3.44-3.81-3.44H37.39c-2.1,0-3.8.62-3.8,3.44v6.09c0,2.82,1.7,3.44,3.8,3.44h8.88c2.11,0,3.81-.62,3.81-3.44Z" fill="#fff"/><path d="M55.72,116.92c0-4.09,1.38-6.06,5.77-6.06h9.33c4.39,0,5.77,2,5.77,6.06v4.43c0,4.09-1.38,6.06-5.77,6.06H61.49c-4.39,0-5.77-2-5.77-6.06Zm18.68-.83c0-2.82-1.7-3.44-3.8-3.44H61.71c-2.1,0-3.8.62-3.8,3.44v6.09c0,2.82,1.7,3.44,3.8,3.44H70.6c2.1,0,3.8-.62,3.8-3.44Z" fill="#fff"/><path d="M80.33,111H93.42c5.44,0,6.92,1.71,6.92,8.11,0,6-1.48,8.1-7,8.1h-13Zm17.81,7.32c0-4.67-1.45-5.52-4.14-5.52H82.52v12.61H93.64c2.67,0,4.5-.58,4.5-5.43Z" fill="#fff"/><path d="M102.19,111h2.15L110,125.2,115.55,111h2.82l5.48,14.24L129.58,111h2.15l-6.45,16.21h-2.81L117,113l-5.5,14.24h-2.82Z" fill="#fff"/><path d="M133.59,116.92c0-4.09,1.38-6.06,5.77-6.06h9.33c4.39,0,5.77,2,5.77,6.06v4.43c0,4.09-1.38,6.06-5.77,6.06h-9.33c-4.39,0-5.77-2-5.77-6.06Zm18.68-.83c0-2.82-1.7-3.44-3.8-3.44h-8.89c-2.1,0-3.8.62-3.8,3.44v6.09c0,2.82,1.7,3.44,3.8,3.44h8.89c2.1,0,3.8-.62,3.8-3.44Z" fill="#fff"/><path d="M158.2,111h13c4.67,0,5.41,1.55,5.41,4.59v1.32c0,2.28-1.3,2.91-3,3.07v0c2.24.4,2.78,1.57,2.78,3v4.14h-2.06v-3.56c0-2.53-1.23-2.84-3.22-2.84h-10.7v6.4H158.2Zm12.71,8c2.44,0,3.47-.65,3.47-2.35v-1.48c0-1.81-.79-2.39-4-2.39h-10v6.22Z" fill="#fff"/><path d="M180.42,111h2.19v6.87h2.75L195.52,111h3.58l.05,0-11.61,7.74,12.66,8.37,0,0h-3.84l-11.12-7.55h-2.58v7.55h-2.19Z" fill="#fff"/><path d="M202.57,111h2.19v16.21h-2.19Z" fill="#fff"/><path d="M209,111h3.27l14.84,14.24V111h2.19v16.21H226L211.19,113v14.24H209Z" fill="#fff"/><path d="M253.32,121.44c0,4.41-1.43,6-5.48,6h-9c-4.39,0-5.77-2-5.77-6.06v-4.43c0-4.09,1.38-6.06,5.77-6.06h8.28c2.91,0,6,.71,6,4.45v.58H251c0-3-.92-3.24-6.33-3.24H239c-2.1,0-3.8.62-3.8,3.44v6.09c0,2.82,1.7,3.44,3.8,3.44h8.57c2.19,0,3.54-.76,3.54-3V121h-8.3V119.2h10.49Z" fill="#fff"/></g></svg>