<svg xmlns="http://www.w3.org/2000/svg" width="250" height="250" viewBox="0 0 250 250"><g id="Layer_2" data-name="Layer 2"><circle cx="124.51" cy="125.03" r="90.71" fill="#fff"/><circle cx="125" cy="125" r="120.01" fill="none" stroke="#fff" stroke-miterlimit="10" stroke-width="5"/><path d="M108.08,109.91a8.68,8.68,0,0,1,5.6,2.14.44.44,0,0,1,0,.64l-1.43,1.49a.38.38,0,0,1-.59,0,5.25,5.25,0,1,0-3.45,9.26,7,7,0,0,0,2.73-.58v-2h-1.83a.41.41,0,0,1-.44-.41v-1.82a.42.42,0,0,1,.44-.43h4.41a.42.42,0,0,1,.41.43v5.88a.44.44,0,0,1-.18.37,11.65,11.65,0,0,1-5.7,1.49,8.26,8.26,0,0,1,0-16.51Z" fill="#717554"/><path d="M121.39,110.58a.44.44,0,0,1,.44-.44h9.35a.44.44,0,0,1,.43.44v1.88a.44.44,0,0,1-.43.44h-6.8v3.76h5.67a.46.46,0,0,1,.44.44V119a.44.44,0,0,1-.44.43h-5.67v4h6.8a.44.44,0,0,1,.43.44v1.88a.44.44,0,0,1-.43.44h-9.35a.44.44,0,0,1-.44-.44Z" fill="#717554"/><path d="M141.35,112.9h-3.52a.44.44,0,0,1-.43-.44v-1.88a.44.44,0,0,1,.43-.44h10a.44.44,0,0,1,.43.44v1.88a.44.44,0,0,1-.43.44h-3.52v12.88a.45.45,0,0,1-.43.44h-2.14a.45.45,0,0,1-.43-.44Z" fill="#717554"/><path d="M64.1,146.89c-.23-.18-.32-.32-.11-.69l.82-1.42a.53.53,0,0,1,.78-.16A5.59,5.59,0,0,0,69.06,146a1.91,1.91,0,0,0,2.09-1.77c0-1.17-1-2-2.91-2.75-2.16-.88-4.32-2.25-4.32-5,0-2.05,1.51-4.41,5.17-4.41a8,8,0,0,1,4.59,1.54.56.56,0,0,1,.14.75l-.88,1.31a.6.6,0,0,1-.8.28A5.93,5.93,0,0,0,69,134.77c-1.31,0-2,.73-2,1.6,0,1.08.85,1.82,2.71,2.57,2.22.9,4.8,2.23,4.8,5.19,0,2.37-2,4.55-5.29,4.55A7.23,7.23,0,0,1,64.1,146.89Z" fill="#717554"/><path d="M84,135.13H80.49a.43.43,0,0,1-.43-.43v-1.89a.43.43,0,0,1,.43-.43h10a.44.44,0,0,1,.44.43v1.89a.44.44,0,0,1-.44.43H87V148a.45.45,0,0,1-.44.43H84.44A.44.44,0,0,1,84,148Z" fill="#717554"/><path d="M95.74,147.85l7.14-15.45a.4.4,0,0,1,.39-.25h.23a.39.39,0,0,1,.39.25L111,147.85a.4.4,0,0,1-.39.6h-2a.66.66,0,0,1-.67-.46l-1.13-2.48H99.92L98.79,148a.69.69,0,0,1-.66.46h-2A.4.4,0,0,1,95.74,147.85Zm9.92-4.89-2.3-5.05h-.07L101,143Z" fill="#717554"/><path d="M117.11,132.81a.44.44,0,0,1,.44-.43h6.57a5,5,0,0,1,5,4.93,5.06,5.06,0,0,1-3.4,4.64l3.15,5.84a.43.43,0,0,1-.39.66h-2.41a.4.4,0,0,1-.37-.2l-3-6.09H120.1V148a.45.45,0,0,1-.44.43h-2.11a.44.44,0,0,1-.44-.43Zm6.75,6.89a2.34,2.34,0,0,0,2.28-2.34,2.29,2.29,0,0,0-2.28-2.23h-3.74v4.57Z" fill="#717554"/><path d="M139,135.13h-3.51a.44.44,0,0,1-.44-.43v-1.89a.44.44,0,0,1,.44-.43h10a.43.43,0,0,1,.44.43v1.89a.43.43,0,0,1-.44.43H142V148a.45.45,0,0,1-.44.43h-2.13A.45.45,0,0,1,139,148Z" fill="#717554"/><path d="M152.63,132.81a.43.43,0,0,1,.44-.43h9.34a.44.44,0,0,1,.44.43v1.89a.44.44,0,0,1-.44.43h-6.8v3.77h5.68a.45.45,0,0,1,.43.44v1.9a.44.44,0,0,1-.43.44h-5.68v4h6.8a.44.44,0,0,1,.44.43V148a.44.44,0,0,1-.44.43h-9.34a.43.43,0,0,1-.44-.43Z" fill="#717554"/><path d="M170,132.81a.42.42,0,0,1,.41-.43h5.44a8,8,0,1,1,0,16.07H170.4A.42.42,0,0,1,170,148Zm5.58,12.84a5.25,5.25,0,0,0,0-10.49H173v10.49Z" fill="#717554"/></g></svg>