<svg xmlns="http://www.w3.org/2000/svg" xmlns:xlink="http://www.w3.org/1999/xlink" width="380" height="400" viewBox="0 0 380 400"><defs><clipPath id="clip-path"><rect width="380" height="390" fill="none"/></clipPath><linearGradient id="linear-gradient" x1="280.25" y1="311.53" x2="296.24" y2="311.53" gradientUnits="userSpaceOnUse"><stop offset="0" stop-color="#5c5c5c"/><stop offset="0.3" stop-color="#878787"/><stop offset="1" stop-color="#222"/></linearGradient><linearGradient id="linear-gradient-2" x1="282.76" y1="296.77" x2="293.86" y2="296.77" xlink:href="#linear-gradient"/><linearGradient id="linear-gradient-3" x1="281.93" y1="288.03" x2="294.69" y2="288.03" xlink:href="#linear-gradient"/><linearGradient id="linear-gradient-4" x1="208.27" y1="343.99" x2="224.26" y2="343.99" xlink:href="#linear-gradient"/><linearGradient id="linear-gradient-5" x1="210.78" y1="329.24" x2="221.88" y2="329.24" xlink:href="#linear-gradient"/><linearGradient id="linear-gradient-6" x1="209.95" y1="320.49" x2="222.71" y2="320.49" xlink:href="#linear-gradient"/><linearGradient id="linear-gradient-7" x1="354.1" y1="165.45" x2="179.53" y2="165.45" gradientUnits="userSpaceOnUse"><stop offset="0" stop-color="#bdbec0" stop-opacity="0"/><stop offset="1" stop-color="#bdbec0" stop-opacity="0.3"/></linearGradient><linearGradient id="linear-gradient-8" x1="-1.13" y1="160.09" x2="178.64" y2="160.09" gradientUnits="userSpaceOnUse"><stop offset="0" stop-color="#bdbec0" stop-opacity="0"/><stop offset="1" stop-color="#bdbec0" stop-opacity="0.5"/></linearGradient><linearGradient id="linear-gradient-9" x1="94.66" y1="289.73" x2="110.65" y2="289.73" xlink:href="#linear-gradient"/><linearGradient id="linear-gradient-10" x1="97.17" y1="274.98" x2="108.28" y2="274.98" xlink:href="#linear-gradient"/><linearGradient id="linear-gradient-11" x1="96.34" y1="266.23" x2="109.11" y2="266.23" xlink:href="#linear-gradient"/></defs><g id="Layer_2" data-name="Layer 2"><rect width="380" height="400" fill="#f5f5f4"/><g clip-path="url(#clip-path)"><ellipse cx="288.24" cy="307.18" rx="7.99" ry="4" fill="#717171" stroke="#222" stroke-miterlimit="1" stroke-width="1.03"/><path d="M296.24,307.18c0,2.2-3.58,4-8,4s-8-1.79-8-4v4.7c0,2.21,3.58,4,8,4s8-1.79,8-4Z" stroke="#222" stroke-miterlimit="1" stroke-width="1.03" fill="url(#linear-gradient)"/><path d="M282.76,283.59v23.59c0,1.53,2.49,2.77,5.55,2.77s5.55-1.24,5.55-2.77V283.59Z" stroke="#222" stroke-miterlimit="1" stroke-width="1.03" fill="url(#linear-gradient-2)"/><path d="M281.93,272.87V300c0,1.76,2.86,3.19,6.38,3.19s6.38-1.43,6.38-3.19V272.87Z" stroke="#222" stroke-miterlimit="1" stroke-width="1.03" fill="url(#linear-gradient-3)"/><ellipse cx="216.26" cy="339.64" rx="7.99" ry="4" fill="#717171" stroke="#222" stroke-miterlimit="1" stroke-width="1.03"/><path d="M224.26,339.64c0,2.21-3.58,4-8,4s-8-1.79-8-4v4.71c0,2.21,3.58,4,8,4s8-1.78,8-4Z" stroke="#222" stroke-miterlimit="1" stroke-width="1.03" fill="url(#linear-gradient-4)"/><path d="M210.78,316.05v23.59c0,1.54,2.49,2.78,5.55,2.78s5.55-1.24,5.55-2.78V316.05Z" stroke="#222" stroke-miterlimit="1" stroke-width="1.03" fill="url(#linear-gradient-5)"/><path d="M210,305.34v27.12c0,1.76,2.86,3.19,6.38,3.19s6.38-1.43,6.38-3.19V305.34Z" stroke="#222" stroke-miterlimit="1" stroke-width="1.03" fill="url(#linear-gradient-6)"/><polygon points="178.64 0 178.64 237.39 178.72 237.43 381.86 330.9 381.86 0 178.64 0" fill="url(#linear-gradient-7)"/><polygon points="-1.13 0 -1.13 320.19 178.64 237.47 178.64 237.39 178.64 0 -1.13 0" fill="url(#linear-gradient-8)"/><polyline points="-1.13 320.19 178.64 237.47 178.64 237.39 178.64 17.21" fill="none" stroke="#222" stroke-miterlimit="1" stroke-width="1.03"/><ellipse cx="102.66" cy="285.38" rx="7.99" ry="4" fill="#717171" stroke="#222" stroke-miterlimit="1" stroke-width="1.03"/><path d="M110.65,285.38c0,2.21-3.58,4-8,4s-8-1.79-8-4v4.71c0,2.2,3.58,4,8,4s8-1.79,8-4Z" stroke="#222" stroke-miterlimit="1" stroke-width="1.03" fill="url(#linear-gradient-9)"/><path d="M97.17,261.79v23.59c0,1.54,2.49,2.78,5.55,2.78s5.56-1.24,5.56-2.78V261.79Z" stroke="#222" stroke-miterlimit="1" stroke-width="1.03" fill="url(#linear-gradient-10)"/><path d="M96.34,251.08V278.2c0,1.76,2.86,3.19,6.38,3.19s6.39-1.43,6.39-3.19V251.08Z" stroke="#222" stroke-miterlimit="1" stroke-width="1.03" fill="url(#linear-gradient-11)"/><polyline points="178.64 0 178.64 237.39 178.72 237.43 381.86 330.9" fill="none" stroke="#222" stroke-miterlimit="1" stroke-width="1.03"/><polygon points="192.94 58.62 188.79 56.71 92.97 100.8 97.12 102.71 192.94 58.62" fill="#f8f8f9" stroke="#222" stroke-miterlimit="1" stroke-width="1.03"/><polygon points="321.37 113.42 193.4 54.54 188.74 56.69 316.74 115.58 321.37 113.42" fill="#f8f8f9" stroke="#222" stroke-miterlimit="1" stroke-width="1.03"/><polygon points="184.95 77.64 192.91 81.3 192.91 58.66 97.15 102.72 113.79 110.38 184.95 77.64" fill="#bdbec0" stroke="#222" stroke-miterlimit="1" stroke-width="1.03"/><polygon points="192.97 58.63 192.91 58.66 192.91 81.3 287.88 125.01 287.88 125.01 312.55 113.66 192.97 58.63" fill="#dededf" stroke="#222" stroke-miterlimit="1" stroke-width="1.03"/><polygon points="116.74 111.74 143.34 123.98 143.34 123.98 184.86 104.86 184.86 80.4 116.74 111.74" fill="#bdbec0" stroke="#222" stroke-miterlimit="1" stroke-width="1.03"/><polygon points="284.9 126.38 184.91 80.37 184.86 80.4 184.86 104.86 184.88 104.85 258.29 138.62 258.29 138.62 284.9 126.38" fill="#dededf" stroke="#222" stroke-miterlimit="1" stroke-width="1.03"/><polygon points="69.48 94.28 69.48 258.62 216.26 326.15 216.26 161.82 69.48 94.28" fill="#dededf" stroke="#222" stroke-miterlimit="1" stroke-width="1.03"/><polygon points="220.89 159.66 216.26 161.82 216.26 326.15 220.89 324.02 220.89 159.66" fill="#bdbec0" stroke="#222" stroke-miterlimit="1" stroke-width="1.03"/><polygon points="220.89 159.66 74.11 92.12 69.48 94.28 216.26 161.82 220.89 159.66" fill="#f8f8f9" stroke="#222" stroke-miterlimit="1" stroke-width="1.03"/><polyline points="91.28 99.94 86.65 102.09 86.65 266.43" fill="none" stroke="#222" stroke-miterlimit="1" stroke-width="1.03"/><polygon points="316.7 115.57 312.55 113.66 216.73 157.75 220.88 159.66 316.7 115.57" fill="#f8f8f9" stroke="#222" stroke-miterlimit="1" stroke-width="1.03"/><polygon points="187.9 79.01 184.9 80.39 284.88 126.39 287.88 125.01 187.9 79.01" fill="#f2f2f2" stroke="#222" stroke-miterlimit="1" stroke-width="1.03"/><polygon points="184.95 77.64 113.79 110.38 116.74 111.74 187.91 79 184.95 77.64" fill="#f2f2f2" stroke="#222" stroke-miterlimit="1" stroke-width="1.03"/><polygon points="258.29 138.62 184.88 104.85 143.34 123.98 216.73 157.75 258.29 138.62" fill="#f2f2f2" stroke="#222" stroke-miterlimit="1" stroke-width="1.03"/><polygon points="213.02 203.78 208.4 205.94 208.4 323.73 213.02 321.6 213.02 203.78" fill="#bdbec0" stroke="#222" stroke-miterlimit="1" stroke-width="1.03"/><polygon points="213.02 203.78 88.68 146.57 84.02 148.71 208.4 205.94 213.02 203.78" fill="#f8f8f9" stroke="#222" stroke-miterlimit="1" stroke-width="1.03"/><line x1="150.72" y1="175.1" x2="146.07" y2="177.25" fill="none" stroke="#222" stroke-miterlimit="1" stroke-width="1.03"/><polygon points="208.4 205.94 83.98 148.69 83.98 266.48 208.4 323.73 208.4 205.94" fill="none" stroke="#ea0029" stroke-miterlimit="1" stroke-width="1.03"/><polygon points="208.4 205.94 83.98 148.69 83.98 266.48 208.4 323.73 208.4 205.94" fill="#e5e5e6"/><polygon points="208.4 205.94 83.98 148.69 83.98 266.48 208.4 323.73 208.4 205.94" fill="none" stroke="#222" stroke-miterlimit="1" stroke-width="1.03"/><line x1="146.06" y1="177.27" x2="146.06" y2="295.05" fill="none" stroke="#ea0029" stroke-miterlimit="1" stroke-width="1.03"/><line x1="146.06" y1="177.27" x2="146.06" y2="295.05" fill="none" stroke="#222" stroke-miterlimit="1" stroke-width="1.03"/><polygon points="216.73 157.75 233.98 149.81 199.48 149.81 216.73 157.75" fill="#e5e5e6" stroke="#222" stroke-miterlimit="1" stroke-width="1.03"/><polygon points="97.15 102.72 110.65 108.94 110.65 96.51 97.15 102.72" fill="#e5e5e6" stroke="#222" stroke-miterlimit="1" stroke-width="1.03"/><polygon points="192.97 58.63 192.91 58.66 176.1 66.4 209.84 66.4 192.97 58.63" fill="#e5e5e6" stroke="#222" stroke-miterlimit="1" stroke-width="1.03"/><rect x="176.1" y="66.4" width="33.74" height="2.98" fill="#dededf" stroke="#222" stroke-miterlimit="1" stroke-width="1.03"/><polygon points="298.29 107.09 298.29 120.22 312.55 113.66 298.29 107.09" fill="#e5e5e6" stroke="#222" stroke-miterlimit="1" stroke-width="1.03"/><polygon points="213.02 163.08 208.4 165.24 208.4 202.43 213.02 200.3 213.02 163.08" fill="#bdbec0" stroke="#222" stroke-miterlimit="1" stroke-width="1.03"/><polygon points="213.02 163.08 88.68 105.86 84.02 108.01 208.4 165.24 213.02 163.08" fill="#f8f8f9" stroke="#222" stroke-miterlimit="1" stroke-width="1.03"/><polygon points="208.4 165.24 83.98 107.99 83.98 145.18 208.4 202.43 208.4 165.24" fill="#e5e5e6" stroke="#222" stroke-miterlimit="1" stroke-width="1.03"/><polygon points="47 275.55 47 298.51 193.78 366.05 193.78 366.05 193.78 343.09 47 275.55" fill="#cad878" stroke="#222" stroke-miterlimit="1" stroke-width="1.03"/><polygon points="193.78 343.09 193.78 366.05 196.32 364.88 196.32 341.9 193.78 343.09" fill="#919b57" stroke="#222" stroke-miterlimit="1" stroke-width="1.03"/><polygon points="196.32 341.9 196.32 341.82 49.62 274.33 47 275.55 193.78 343.09 196.32 341.9" fill="#d7e29a" stroke="#222" stroke-miterlimit="1" stroke-width="1.03"/><polygon points="321.42 113.42 220.89 159.68 220.89 324.06 321.42 277.8 321.42 113.42" fill="#bdbec0" stroke="#222" stroke-miterlimit="1" stroke-width="1.03"/><polygon points="351.11 316.21 245.96 364.55 245.96 341.74 351.11 293.39 351.11 316.21" fill="#919b57" stroke="#222" stroke-miterlimit="1" stroke-width="1.03"/><polygon points="245.96 341.74 245.96 364.55 243.47 363.45 243.47 340.64 245.96 341.74" fill="#cad878" stroke="#222" stroke-miterlimit="1" stroke-width="1.03"/><polygon points="243.47 340.64 348.62 292.29 351.11 293.39 245.96 341.74 243.47 340.64" fill="#d7e29a" stroke="#222" stroke-miterlimit="1" stroke-width="1.03"/></g></g></svg>